<?xml version="1.0" standalone="no"?>
<!DOCTYPE svg PUBLIC "-//W3C//DTD SVG 20010904//EN"
 "http://www.w3.org/TR/2001/REC-SVG-20010904/DTD/svg10.dtd">
<svg version="1.0" xmlns="http://www.w3.org/2000/svg"
 width="960.000000pt" height="1280.000000pt" viewBox="0 0 960.000000 1280.000000"
 preserveAspectRatio="xMidYMid meet">
<metadata>
Created by potrace 1.15, written by Peter Selinger 2001-2017
</metadata>
<g transform="translate(0.000000,1280.000000) scale(0.100000,-0.100000)"
fill="#000000" stroke="none">
<path d="M3780 12589 c-234 -14 -582 -87 -746 -156 -192 -80 -361 -201 -570
-408 -170 -168 -279 -298 -396 -473 -83 -123 -106 -174 -153 -328 -113 -371
-191 -799 -183 -997 2 -75 1 -86 -12 -81 -79 35 -334 114 -365 114 -5 0 9 -9
33 -20 48 -22 54 -45 17 -62 -23 -10 -25 -17 -25 -70 0 -33 -4 -58 -10 -58 -6
0 -27 7 -47 15 -49 20 -50 19 -14 -14 17 -16 43 -55 57 -86 24 -51 25 -61 15
-96 -13 -42 -40 -65 -88 -75 -28 -5 -33 -2 -61 38 -53 78 -57 224 -6 251 l26
13 -41 12 c-45 14 -101 74 -101 109 0 39 50 56 149 51 l86 -5 -75 19 c-105 25
-535 108 -564 108 -14 0 -28 -4 -31 -10 -3 -5 -24 -14 -46 -20 -34 -10 -52 -8
-109 9 -102 31 -133 28 -177 -17 -58 -57 -103 -150 -103 -209 0 -111 30 -191
220 -583 159 -328 213 -461 237 -580 27 -136 31 -143 32 -54 1 66 5 86 22 108
49 62 211 126 320 126 70 0 102 -7 94 -20 -3 -4 4 -10 15 -13 13 -3 21 1 26
15 6 21 42 38 80 38 14 0 42 9 64 20 83 42 168 16 210 -65 l24 -48 8 28 c14
55 57 59 146 15 149 -75 179 -194 43 -176 l-46 6 55 -23 c143 -59 238 -166
163 -183 -16 -3 -32 -7 -37 -8 -5 -1 7 -12 26 -24 90 -55 155 -202 114 -257
-15 -20 -58 -25 -111 -11 -22 6 -14 -3 33 -35 74 -49 116 -105 110 -146 -4
-27 -3 -28 44 -28 l47 0 -17 25 c-96 146 -95 210 6 210 86 0 200 -72 216 -136
5 -19 2 -35 -11 -53 -21 -28 -98 -71 -132 -74 -12 -1 -21 -2 -21 -3 0 0 5 -15
11 -32 8 -25 6 -39 -12 -81 -12 -28 -26 -51 -30 -51 -16 0 -100 82 -116 113
-8 16 -13 39 -11 51 4 20 1 21 -78 18 -117 -5 -179 29 -210 115 -37 104 2 157
96 130 14 -4 5 2 -20 14 -25 12 -52 25 -60 29 -11 5 -16 29 -18 93 l-3 86 32
23 31 23 -47 10 c-42 9 -50 16 -81 65 -18 30 -36 69 -40 87 -5 27 -2 33 22 47
l29 15 -52 1 -52 0 -12 43 -12 42 -8 -34 c-12 -56 -41 -76 -107 -75 -70 0
-182 53 -230 108 -17 20 -33 36 -36 36 -2 0 -7 -11 -10 -24 -6 -24 -8 -25 -76
-19 -92 8 -113 -6 -136 -86 -9 -33 -27 -69 -39 -81 -29 -27 -93 -37 -119 -17
-18 13 -18 15 -1 50 18 39 78 94 160 146 52 33 40 33 -48 0 -64 -23 -97 -46
-97 -65 0 -9 -23 -41 -51 -72 -60 -68 -115 -176 -129 -253 -12 -65 -1 -135 30
-184 23 -37 148 -148 130 -116 -12 24 -10 120 4 156 7 20 7 20 -11 -1 -10 -11
-25 -31 -34 -45 l-17 -24 -28 21 c-63 46 -78 174 -31 259 31 56 72 76 166 82
148 10 164 -13 81 -122 -42 -55 -46 -64 -27 -60 12 3 27 2 33 -2 39 -27 46
-137 14 -221 -11 -29 -20 -61 -20 -72 0 -25 23 -35 47 -21 17 10 17 10 1 11
-27 0 -23 47 10 110 42 84 59 92 162 76 47 -8 93 -17 103 -21 31 -13 14 -39
-41 -67 l-53 -27 41 1 c25 0 48 -6 59 -16 10 -9 32 -21 49 -26 l32 -9 -15 36
c-21 50 -19 99 5 116 18 13 18 14 -10 31 -17 9 -34 15 -39 12 -15 -10 -39 28
-70 113 -17 47 -31 86 -31 88 0 1 14 10 31 19 29 15 35 15 76 -1 24 -9 56 -32
71 -51 26 -33 27 -33 32 -12 5 20 14 24 65 28 l60 5 -49 13 c-62 16 -97 35
-140 72 -30 27 -35 28 -46 14 -20 -23 -48 -35 -125 -55 -85 -21 -115 -12 -159
46 -28 36 -29 40 -17 84 27 103 111 136 211 84 30 -16 64 -43 75 -59 20 -29
22 -30 44 -15 31 20 112 19 177 -3 55 -18 147 -88 177 -135 16 -27 17 -34 6
-47 -11 -13 -26 -15 -84 -11 l-70 6 57 -18 c101 -33 172 -90 166 -133 -2 -16
-17 -30 -50 -47 l-48 -23 32 -22 c24 -16 34 -32 39 -61 9 -52 -7 -106 -33
-113 -16 -4 -8 -11 38 -32 121 -55 195 -154 168 -225 -16 -40 -114 -57 -197
-34 -20 5 -55 27 -77 48 -43 41 -106 162 -96 187 3 8 20 21 38 29 l33 14 -48
1 c-42 0 -53 -4 -78 -31 l-29 -31 -28 29 -28 28 -50 -54 c-54 -60 -58 -59 62
-25 98 28 118 5 64 -76 -16 -24 -27 -46 -25 -48 2 -3 20 5 39 16 l35 21 41
-45 c78 -85 34 -115 -103 -74 -40 12 -85 29 -100 37 -49 25 -40 7 12 -26 68
-44 128 -111 159 -179 21 -46 27 -76 30 -152 4 -127 7 -132 41 -79 16 24 42
57 60 73 43 41 39 50 -10 26 -23 -12 -43 -19 -46 -17 -12 13 55 107 76 107 22
0 41 -34 41 -73 0 -43 -38 -137 -67 -170 -16 -17 -15 -17 20 -2 54 22 85 19
118 -14 34 -34 37 -64 10 -107 l-19 -30 52 4 c40 3 55 0 65 -12 23 -27 0 -59
-75 -103 -65 -39 -70 -40 -96 -27 -41 21 -53 50 -34 79 16 24 16 24 -8 15 -17
-6 -30 -4 -45 7 -38 26 38 -112 123 -224 82 -108 241 -279 231 -249 -7 25 19
64 51 77 45 16 177 41 231 43 68 1 84 -14 61 -54 -16 -29 -12 -40 8 -21 14 14
149 80 229 113 39 16 58 26 44 23 -14 -2 -115 -12 -225 -20 -212 -17 -308 -34
-392 -71 l-52 -23 -16 24 c-14 21 -14 27 -1 52 30 56 94 92 169 93 44 0 53 10
33 36 -21 28 -19 31 36 49 58 20 223 17 456 -6 101 -10 153 -10 220 -2 48 6
89 10 91 8 2 -1 -25 -22 -60 -45 -35 -23 -53 -39 -42 -36 28 8 72 -12 80 -36
13 -43 -47 -96 -272 -238 -151 -95 -252 -183 -286 -248 -25 -47 -46 -51 -77
-15 -14 17 -48 57 -75 88 l-50 58 26 48 25 48 -38 -22 c-39 -23 -35 -23 -114
9 -11 4 12 -27 52 -69 39 -42 100 -111 133 -154 98 -123 167 -158 500 -248
141 -38 260 -88 316 -130 19 -15 73 -35 133 -50 110 -28 373 -75 381 -68 9 8
-25 22 -72 28 -26 4 -48 9 -48 12 0 3 22 49 49 103 89 177 203 326 298 389
l46 31 -66 0 c-85 0 -90 21 -17 65 111 65 157 78 180 50 10 -12 8 -21 -7 -48
l-20 -33 58 15 57 15 -29 33 c-16 19 -29 45 -29 58 0 53 105 80 203 51 60 -18
82 -40 66 -69 -13 -22 -100 -67 -131 -67 -21 -1 -21 -2 -5 -11 14 -8 31 -5 72
12 64 26 90 21 80 -18 -10 -42 -43 -82 -85 -103 -52 -27 -83 -25 -136 6 -58
34 -100 27 -143 -21 -43 -49 -53 -72 -100 -220 -60 -189 -79 -232 -117 -264
l-34 -28 127 -12 c322 -32 555 -65 763 -107 206 -43 236 -46 355 -45 72 1 166
2 210 3 112 1 297 -32 430 -77 88 -30 491 -178 507 -186 10 -5 41 -58 70 -117
31 -63 75 -134 107 -172 102 -121 192 -274 351 -595 177 -358 246 -480 354
-622 151 -201 442 -837 589 -1288 108 -331 150 -551 151 -795 1 -204 -9 -249
-95 -446 -192 -442 -408 -777 -700 -1089 -78 -83 -118 -117 -163 -140 -94 -47
-129 -114 -86 -167 60 -77 175 -18 239 122 16 36 39 74 51 85 12 11 68 74 123
140 287 342 555 754 642 990 12 32 28 61 34 63 22 7 98 -81 111 -128 12 -44 9
-192 -6 -318 -5 -43 -4 -51 8 -47 32 13 64 97 128 336 22 85 49 165 58 179 10
14 35 33 54 43 59 29 83 12 275 -195 172 -185 341 -349 508 -491 89 -77 90
-77 106 -56 l16 22 17 -24 c15 -22 15 -25 1 -35 -13 -10 -3 -20 62 -60 42 -27
93 -66 113 -88 99 -108 120 -126 150 -126 56 0 78 72 42 140 -22 42 -73 70
-125 70 -177 0 -454 358 -704 912 l-55 123 -9 395 c-8 375 -23 808 -34 1005
-3 50 -10 176 -15 280 -75 1361 -227 2263 -422 2500 -18 21 -50 79 -73 129
-35 78 -104 210 -134 255 -7 11 -17 7 -48 -22 l-38 -37 31 0 c16 0 39 -7 50
-15 19 -15 19 -15 -1 -31 -32 -26 -85 -45 -106 -39 -28 9 -43 43 -28 61 6 8
18 14 25 14 17 0 18 12 3 27 -18 18 -3 41 38 60 21 10 40 18 42 20 6 4 -37 68
-87 130 -179 224 -313 339 -673 581 -92 61 -189 132 -217 157 l-51 46 6 -35
c9 -58 -3 -86 -36 -86 -16 0 -38 8 -49 18 -21 17 -21 18 -4 67 13 38 23 51 39
53 l22 3 -25 39 c-33 49 -54 121 -54 182 0 45 4 52 56 106 124 126 227 320
359 672 42 113 110 285 152 383 101 241 131 366 149 612 18 261 -71 774 -193
1115 -98 273 -292 617 -480 850 -141 175 -436 460 -629 607 -313 238 -714 411
-1149 497 -417 82 -788 115 -1095 95z m605 -39 c498 -55 857 -152 1230 -334
383 -187 801 -554 1128 -990 171 -227 345 -585 433 -889 98 -343 146 -778 109
-1000 -30 -182 -64 -282 -268 -784 -133 -329 -173 -400 -413 -736 -188 -262
-293 -432 -318 -514 -6 -18 -3 -23 9 -23 9 0 30 -13 46 -29 25 -26 29 -37 29
-86 0 -30 -7 -72 -15 -92 -19 -44 -19 -41 9 -39 13 0 22 4 20 7 -2 3 10 27 25
52 27 41 28 46 11 50 -27 7 -36 76 -15 116 8 17 21 31 29 31 13 0 36 -41 36
-66 0 -34 92 -144 121 -144 5 0 43 -32 84 -72 42 -39 73 -65 70 -57 -9 26 32
59 75 59 27 0 22 21 -8 35 -12 5 -22 15 -22 21 0 13 75 84 88 84 30 0 44 -88
22 -130 -7 -13 -7 -21 0 -25 5 -3 10 -15 10 -27 0 -15 4 -18 17 -12 30 13 103
17 103 6 0 -6 13 -4 30 5 34 17 75 11 84 -12 6 -17 -49 -85 -69 -85 -8 0 -22
13 -31 30 l-18 29 -54 -51 -55 -52 -27 31 c-21 24 -31 28 -45 21 -13 -8 -25
-5 -47 12 -17 12 -26 16 -22 9 5 -8 43 -66 85 -129 98 -148 209 -347 350 -632
94 -189 114 -224 124 -211 27 36 115 -17 115 -69 0 -38 -18 -36 -74 7 -25 19
-46 33 -46 31 0 -2 27 -61 61 -132 34 -71 79 -171 101 -222 40 -94 120 -392
154 -575 l18 -97 20 19 c46 41 111 55 122 26 9 -22 -36 -95 -58 -95 -11 0 -33
7 -50 16 l-31 16 7 -33 c15 -74 76 -434 101 -594 14 -93 35 -199 45 -235 34
-116 79 -394 159 -1000 80 -599 112 -861 108 -873 -3 -10 -74 333 -98 478 -6
39 -14 75 -18 82 -4 7 -15 -17 -25 -52 -19 -68 -26 -75 -46 -50 -17 21 4 96
38 132 l25 27 -67 440 c-83 542 -121 770 -191 1133 -30 155 -55 286 -55 292 0
22 -18 10 -30 -19 -18 -44 -36 -55 -65 -42 -37 17 -33 55 8 86 19 15 43 26 54
26 20 0 20 6 -23 213 -73 354 -125 578 -155 668 -36 113 -124 305 -202 444
-59 104 -64 110 -95 112 l-33 1 40 -43 c38 -41 61 -95 61 -142 0 -37 -15 -27
-62 45 -56 83 -88 145 -88 171 0 19 -2 19 -40 4 -39 -16 -41 -15 -64 6 l-23
22 -17 -26 c-22 -34 -39 -32 -62 10 -29 55 -14 70 76 72 77 2 140 -16 140 -39
0 -7 16 -18 36 -24 29 -9 34 -9 30 3 -22 56 -298 447 -430 608 -74 90 -265
285 -280 285 -6 0 0 -9 13 -19 l24 -18 -24 -16 c-13 -9 -37 -21 -53 -29 -27
-12 -31 -11 -49 14 l-20 26 -36 -35 c-20 -20 -69 -51 -109 -70 -181 -84 -322
-70 -675 68 -98 39 -208 77 -245 86 -57 14 -96 36 -267 151 -436 294 -732 533
-1061 859 -289 286 -435 462 -426 515 5 26 -27 36 -160 48 -112 10 -139 16
-304 73 -181 63 -363 192 -543 386 -96 104 -105 111 -121 96 -10 -9 -35 -19
-55 -22 -44 -7 -65 12 -65 58 0 33 25 44 64 30 35 -14 33 -1 -5 35 -17 16 -63
68 -102 116 -63 79 -72 86 -91 76 -11 -6 -47 -11 -79 -11 -47 1 -63 6 -83 24
-30 29 -31 57 -1 64 24 6 107 -9 138 -26 11 -5 19 -7 19 -5 0 3 -20 37 -46 76
-25 38 -61 104 -81 145 -19 41 -37 75 -38 75 -2 0 -1 -16 2 -35 4 -23 2 -35
-6 -35 -25 0 -79 29 -95 51 -32 47 -10 129 36 129 15 0 18 4 13 18 -71 182
-89 279 -89 497 0 215 15 321 83 575 22 80 44 169 50 198 26 125 155 340 320
532 50 58 115 137 145 176 83 107 251 263 362 337 234 156 511 257 829 302
117 17 623 14 790 -5z m-3705 -2209 c0 -4 -6 -16 -14 -26 -13 -18 -9 -25 38
-76 52 -55 86 -112 86 -142 0 -26 -50 -58 -84 -55 -19 2 -30 8 -28 16 1 7 -9
27 -22 45 -62 81 -86 196 -48 229 28 25 72 31 72 9z m242 -30 c20 -23 28 -42
28 -70 0 -38 -22 -105 -38 -115 -12 -7 -104 56 -136 95 -35 42 -33 97 4 117
42 22 110 9 142 -27z m-499 -7 c121 -62 247 -231 247 -333 l0 -44 -54 59 c-30
33 -92 89 -137 125 -110 85 -169 139 -169 154 0 16 39 65 51 65 5 0 33 -12 62
-26z m646 -39 c21 -28 41 -105 41 -161 0 -34 -1 -35 -22 -20 -41 29 -78 96
-78 141 0 38 13 65 31 65 4 0 17 -11 28 -25z m449 -99 c39 -45 50 -91 26 -117
-18 -20 -41 -23 -93 -13 -30 6 -31 8 -31 60 0 105 41 134 98 70z m-1109 -51
c145 -85 266 -201 259 -249 -3 -19 -13 -22 -98 -33 -52 -6 -114 -14 -137 -18
l-42 -6 -37 73 c-67 133 -87 215 -64 259 16 28 35 24 119 -26z m580 -19 c33
-17 128 -119 154 -164 l18 -32 -29 0 c-42 0 -131 29 -170 55 -110 75 -86 199
27 141z m718 -1 c49 -10 50 -34 4 -52 l-40 -16 42 -21 c40 -20 43 -20 60 -3
19 19 40 22 68 7 21 -12 24 -32 9 -61 -10 -18 -13 -18 -40 -4 -33 17 -34 16
-21 -17 5 -13 5 -33 0 -47 -8 -19 -14 -22 -37 -18 -23 5 -27 2 -28 -20 -2 -30
-51 -83 -77 -83 -25 0 -87 63 -87 88 0 36 28 54 80 50 l47 -3 -25 33 c-15 20
-33 32 -48 32 -34 0 -30 17 11 41 42 25 43 28 10 21 -31 -6 -55 13 -55 44 0
18 8 26 33 33 17 5 39 8 47 6 8 -2 29 -6 47 -10z m-842 -89 c86 -39 123 -103
94 -157 -10 -20 -10 -20 30 0 83 43 159 18 182 -59 14 -48 6 -61 -60 -95 -39
-20 -42 -24 -21 -25 39 0 90 -37 106 -75 8 -19 15 -35 17 -35 1 0 4 21 5 47 4
88 79 194 117 163 8 -7 15 -24 15 -39 0 -25 0 -25 30 11 33 40 101 71 146 66
26 -3 29 -7 27 -36 -1 -38 -76 -142 -102 -142 -23 0 -81 37 -88 57 -4 11 -11
-5 -19 -43 -18 -87 -74 -228 -86 -216 -6 6 -18 34 -28 64 l-17 53 -1 -74 c-1
-40 -3 -75 -5 -77 -2 -2 -19 20 -38 48 -22 33 -51 61 -79 76 -40 21 -54 23
-120 18 -42 -3 -81 -1 -89 3 -20 13 -5 45 37 75 34 24 35 26 13 26 -71 0 -80
79 -17 148 21 24 21 24 -29 -2 l-50 -26 -27 31 c-39 46 -88 143 -88 175 0 65
58 81 145 40z m619 3 c22 -6 53 -24 69 -40 27 -27 28 -31 14 -52 -8 -12 -36
-31 -62 -42 l-47 -20 -34 40 c-85 101 -60 147 60 114z m-814 -209 c20 -5 56
-23 81 -39 58 -36 85 -90 107 -211 17 -90 25 -107 36 -72 16 48 122 62 191 26
52 -27 86 -86 87 -154 1 -27 -1 -52 -3 -55 -3 -2 -61 11 -129 29 -114 30 -125
35 -140 64 l-17 32 -7 -42 c-4 -23 -12 -48 -18 -55 -8 -11 9 -13 93 -13 81 0
113 -5 147 -20 54 -24 58 -56 10 -65 -36 -7 -203 26 -248 48 -23 12 -31 12
-54 0 -48 -25 -117 -27 -153 -4 -59 37 -41 78 60 136 26 15 47 29 47 31 0 3
-50 2 -111 -2 -107 -7 -111 -6 -101 12 8 15 3 26 -24 54 -37 37 -50 70 -40 96
6 15 21 16 123 11 l116 -6 -69 26 c-38 14 -100 36 -138 49 -66 23 -106 47
-106 66 0 15 39 43 78 55 46 14 136 16 182 3z m1149 -5 c55 -28 47 -66 -16
-84 -25 -7 -35 -6 -46 7 -24 28 -39 63 -33 78 7 18 59 18 95 -1z m-135 -110
c0 -34 -10 -69 -30 -110 -36 -73 -59 -81 -105 -35 -26 26 -30 36 -25 62 12 62
95 142 141 136 17 -3 20 -10 19 -53z m239 16 c42 -10 87 -46 87 -69 0 -19 -76
-92 -95 -92 -8 0 -26 21 -40 48 -23 42 -25 44 -20 15 9 -48 -9 -73 -52 -73
-51 0 -113 21 -113 38 0 30 34 83 66 103 61 37 103 45 167 30z m-449 -113 c9
-12 16 -42 16 -67 0 -39 -5 -49 -49 -92 -34 -35 -56 -49 -75 -49 -15 0 -25 -4
-21 -10 3 -5 1 -20 -6 -32 -12 -25 -79 -98 -89 -98 -16 0 -50 44 -50 65 0 29
49 72 93 80 30 6 33 10 29 35 -6 44 16 99 61 147 44 48 68 54 91 21z m371
-108 c13 -22 72 -43 181 -65 63 -13 130 -32 150 -41 48 -23 69 -67 60 -129 -7
-43 -11 -48 -48 -63 l-39 -16 35 -21 c83 -50 98 -85 45 -104 -18 -6 -47 -11
-66 -11 l-35 0 33 -27 c37 -32 68 -95 69 -139 0 -74 -86 -85 -181 -23 -29 18
-66 40 -83 48 -71 36 -68 132 4 156 33 11 33 12 13 19 -13 4 -23 13 -23 21 0
11 -6 11 -29 2 -42 -15 -98 4 -154 53 -25 22 -49 40 -55 40 -18 0 -34 29 -27
50 4 11 16 27 28 35 20 13 29 12 82 -8 88 -32 132 -63 146 -102 l13 -34 29 21
c16 11 49 23 73 26 l44 5 -25 24 c-13 14 -27 42 -31 62 -12 64 -21 67 -34 10
-7 -30 -16 -60 -19 -67 -10 -18 -207 185 -217 222 -6 24 -3 33 16 48 25 20 36
22 45 8z m-123 -35 c35 -23 87 -109 74 -122 -3 -4 -53 6 -111 20 -140 36 -190
36 -235 -2 -19 -16 -48 -52 -65 -80 -24 -41 -35 -51 -57 -51 -50 0 -46 28 18
107 36 43 147 123 199 141 17 6 55 11 85 11 43 1 63 -4 92 -24z m-107 -129
c82 -38 100 -81 40 -98 -38 -11 -158 0 -167 16 -12 18 -9 81 4 94 19 19 68 14
123 -12z m-637 -103 c21 -8 10 -14 -83 -51 -117 -46 -141 -50 -191 -26 -62 29
-36 62 71 88 30 7 176 -1 203 -11z m1418 -102 c50 -23 120 -84 127 -111 14
-52 -51 -63 -153 -26 -51 19 -67 30 -77 52 -38 90 8 128 103 85z m-10 -177
c51 -29 106 -90 102 -112 -6 -30 -48 -43 -118 -37 -98 8 -108 13 -120 54 -33
121 23 161 136 95z m233 -40 c44 -39 81 -106 81 -147 0 -36 -37 -45 -95 -22
-25 9 -53 14 -64 10 -28 -8 -41 21 -41 92 0 106 47 132 119 67z m-467 -110
c43 -14 80 -29 83 -34 3 -5 18 -2 33 6 74 38 250 -16 229 -71 -7 -16 -86 -20
-185 -9 -43 6 -53 11 -58 29 -4 17 -11 21 -30 17 -13 -2 -53 -1 -88 3 -53 5
-71 12 -102 39 -24 21 -35 37 -30 45 9 15 41 9 148 -25z m670 -40 c50 -17 86
-48 69 -58 -6 -4 -32 -9 -58 -13 -44 -5 -52 -2 -81 25 -61 57 -28 80 70 46z
m-1685 -20 c48 -32 93 -97 93 -136 0 -45 -31 -58 -128 -51 l-82 6 -11 37 c-23
77 12 170 64 170 13 0 41 -12 64 -26z m1044 -39 c57 -19 101 -60 97 -88 -4
-30 -64 -67 -108 -67 -27 0 -43 7 -62 28 -28 30 -58 83 -58 105 0 38 55 48
131 22z m453 -1 c3 -9 6 -24 6 -33 0 -14 6 -17 24 -14 32 6 125 -22 156 -47
24 -20 25 -21 6 -35 -13 -10 -42 -15 -82 -15 -58 0 -64 2 -83 29 -12 16 -21
34 -21 40 0 6 -4 11 -10 11 -5 0 -10 -4 -10 -9 0 -17 -60 -34 -98 -28 l-37 7
31 -25 c62 -48 66 -113 8 -135 -65 -25 -178 2 -233 55 -26 26 15 80 84 109 6
3 4 9 -4 14 -8 6 -11 17 -8 26 5 12 21 16 73 16 56 0 71 4 96 25 34 29 92 34
102 9z m470 -49 c11 -8 30 -15 43 -15 13 0 32 -9 42 -19 23 -23 38 -88 24
-102 -18 -18 -81 2 -113 34 -64 65 -61 151 4 102z m-94 -5 c51 -27 45 -112
-11 -166 l-29 -28 -37 31 c-42 33 -83 88 -83 110 0 8 11 25 25 38 19 19 35 25
70 25 26 0 55 -5 65 -10z m-239 -112 c49 -14 111 -67 133 -112 45 -96 -8 -131
-132 -85 -31 12 -90 33 -131 48 -41 14 -76 31 -78 38 -6 17 66 94 102 109 38
17 58 17 106 2z m384 -57 c43 -19 95 -73 95 -97 0 -32 -51 -49 -163 -53 l-110
-3 5 62 c4 53 9 67 32 87 33 28 85 30 141 4z m-636 -80 c13 -8 37 -36 53 -60
15 -25 28 -37 28 -28 0 64 209 35 218 -31 2 -13 7 -22 10 -20 44 24 95 42 130
46 38 4 45 1 75 -30 88 -93 91 -321 6 -365 -13 -7 -49 -13 -80 -13 -64 0 -85
15 -75 55 7 29 70 95 91 95 8 0 15 5 15 10 0 6 -7 10 -16 10 -53 0 -184 97
-184 136 0 13 -6 12 -35 -6 l-35 -22 -27 20 c-16 11 -41 34 -58 52 -30 31 -30
31 -35 8 -9 -35 -62 -35 -130 1 l-55 29 2 53 c1 41 6 57 23 71 22 18 38 16 79
-11z m854 -50 c68 -26 66 -67 -5 -96 l-43 -17 -32 36 c-31 34 -41 64 -26 79 9
10 78 8 106 -2z m-147 -76 c43 -28 22 -104 -38 -136 -17 -9 -25 -6 -53 21 -38
37 -60 82 -51 105 13 36 94 42 142 10z m281 -20 c31 -21 29 -41 -6 -48 -16 -3
-40 -9 -54 -12 -21 -6 -26 -2 -36 26 -20 58 31 76 96 34z m-1087 -27 c79 -41
68 -95 -29 -136 -84 -37 -131 -5 -131 88 0 70 74 92 160 48z m145 -24 c9 -4
27 -23 40 -43 21 -30 25 -32 25 -14 0 61 115 24 218 -71 28 -25 42 -47 42 -63
0 -25 -1 -25 -68 -21 l-69 3 37 -26 c74 -54 99 -108 61 -129 -26 -14 -147 -13
-174 1 -28 15 -35 25 -48 74 -6 22 -18 48 -27 58 -16 18 -15 20 3 33 10 8 35
14 54 14 20 0 31 4 25 8 -6 4 -21 25 -32 47 -20 38 -21 38 -22 13 0 -31 -24
-48 -69 -48 -56 0 -61 6 -61 79 0 82 16 103 65 85z m1068 -19 c20 -14 37 -32
37 -39 0 -19 -110 -31 -122 -14 -9 16 -11 62 -1 71 13 14 50 6 86 -18z m-1597
-4 c38 -23 50 -61 30 -99 -22 -43 -41 -55 -64 -43 -25 13 -77 79 -86 107 -15
50 60 71 120 35z m1319 0 c52 -24 83 -57 67 -73 -18 -18 -95 -15 -135 7 -29
15 -37 26 -37 46 0 43 40 50 105 20z m185 -76 c16 -9 33 -27 36 -40 7 -29 10
-30 30 -10 37 37 106 -1 143 -78 26 -54 26 -72 1 -97 -26 -26 -81 -26 -104 -1
-10 11 -31 25 -48 32 -28 11 -30 15 -24 51 l7 40 -25 -29 -25 -28 -50 52 c-51
53 -63 87 -39 111 17 17 63 15 98 -3z m-233 -31 c8 -11 11 -29 8 -44 -7 -28
-83 -110 -102 -110 -21 0 -103 85 -103 107 0 22 23 47 60 62 38 16 121 7 137
-15z m-832 -44 c100 -43 145 -141 90 -195 -20 -21 -34 -25 -81 -25 l-56 0 48
-32 c58 -39 81 -79 66 -113 -10 -22 -7 -24 39 -39 34 -11 69 -15 112 -11 75 6
126 -10 146 -47 14 -24 14 -30 -1 -62 -29 -61 -118 -90 -228 -74 -104 14 -170
72 -156 138 5 27 4 28 -27 18 -30 -9 -35 -7 -93 49 -34 32 -87 81 -118 110
-31 28 -56 56 -56 62 0 17 48 26 126 25 l71 -1 -13 26 c-8 14 -14 37 -14 50
l0 25 -27 -26 c-56 -51 -80 -62 -113 -48 -39 16 -100 84 -100 112 0 12 7 30
17 40 32 36 176 16 211 -29 10 -14 12 -9 12 31 l0 48 53 -7 c28 -4 70 -15 92
-25z m980 -27 c33 -33 -1 -136 -62 -187 -31 -26 -35 -27 -51 -13 -16 15 -19
14 -36 -11 -10 -15 -32 -38 -48 -51 l-30 -24 -48 48 -49 48 -10 -26 c-6 -15
-22 -32 -36 -39 -29 -13 -33 -28 -7 -28 19 0 66 -44 74 -70 12 -35 -10 -50
-75 -50 -34 -1 -81 -5 -104 -9 -24 -5 -43 -6 -43 -4 0 2 20 33 45 69 l46 65
-51 -7 c-33 -4 -55 -3 -64 5 -12 10 -13 8 -9 -8 7 -27 -19 -66 -56 -86 -28
-14 -31 -13 -60 10 -22 19 -36 24 -55 19 -25 -6 -26 -4 -26 32 l-1 39 -19 -37
c-27 -51 -37 -54 -71 -22 -54 52 -58 114 -10 151 38 29 101 8 101 -34 l0 -26
25 27 c35 37 83 36 130 -5 32 -28 35 -29 35 -11 0 68 207 137 336 113 27 -5
56 -12 64 -16 13 -4 15 2 12 35 -4 36 0 44 36 80 44 44 88 53 117 23z m-1710
-32 c79 -45 11 -123 -136 -155 -22 -5 -31 0 -53 32 -48 70 -30 130 45 145 38
8 111 -3 144 -22z m278 16 c15 -10 16 -14 3 -32 -8 -11 -34 -31 -58 -44 l-44
-23 -59 23 c-72 29 -82 52 -33 74 41 18 168 20 191 2z m62 -121 c32 -21 33
-60 3 -80 -40 -26 -135 -38 -173 -22 -48 20 -54 51 -17 88 47 48 126 54 187
14z m1518 -6 c39 -34 60 -77 55 -112 -5 -36 -75 -36 -158 1 -59 26 -65 31 -63
56 1 16 14 41 29 57 39 39 91 39 137 -2z m331 19 c14 -7 27 -18 30 -25 8 -20
-22 -44 -55 -44 -33 0 -96 50 -85 68 9 15 78 15 110 1z m-2103 -47 c28 -23 21
-45 -21 -67 -30 -15 -32 -15 -50 7 -19 23 -26 59 -13 71 13 13 61 7 84 -11z
m2006 -37 c12 -8 24 -28 28 -44 6 -29 -11 -117 -25 -126 -4 -2 -30 7 -59 21
-89 45 -116 103 -65 143 32 25 90 28 121 6z m-1673 -46 c22 -6 56 -29 81 -54
77 -77 69 -155 -15 -155 -29 0 -39 -5 -43 -19 -5 -21 -105 -73 -178 -92 -81
-22 -140 23 -109 81 17 32 70 50 147 51 l68 0 -44 18 c-24 10 -49 25 -56 34
-11 16 -14 16 -26 1 -15 -19 -102 -64 -123 -64 -19 0 -73 75 -81 112 -5 21 -2
35 11 49 23 26 106 26 157 0 35 -18 37 -18 42 -1 6 20 67 49 105 49 14 1 42
-4 64 -10z m1274 -29 c29 -13 42 -25 42 -39 0 -19 2 -19 35 -5 69 29 205 9
205 -30 0 -8 -8 -23 -17 -33 -16 -18 -27 -19 -95 -14 -54 4 -84 12 -105 27
l-28 20 -34 -23 c-19 -13 -42 -23 -51 -23 -23 0 -110 82 -110 104 0 37 90 47
158 16z m615 6 c24 -18 21 -48 -7 -75 l-24 -22 -40 20 c-50 26 -76 59 -60 78
14 17 108 17 131 -1z m-724 -134 c60 -41 97 -98 86 -133 -4 -11 -22 -27 -41
-35 -41 -17 -145 -18 -166 -1 -8 6 -23 34 -32 61 -48 148 22 197 153 108z
m658 26 c30 -33 43 -63 43 -97 0 -25 -5 -32 -26 -37 -49 -12 -114 50 -114 109
0 47 62 63 97 25z m200 -19 c107 -52 111 -155 6 -175 -29 -5 -39 -2 -64 22
-32 31 -69 100 -69 130 0 48 55 58 127 23z m2401 -32 c5 -40 -13 -64 -65 -81
-86 -29 -110 -16 -69 38 25 33 102 79 121 73 6 -2 11 -15 13 -30z m-2944 -3
c22 -21 20 -70 -3 -103 l-20 -28 30 0 c36 0 79 -38 79 -70 0 -17 -10 -28 -34
-40 l-35 -16 30 -36 c16 -19 29 -44 29 -54 0 -18 -6 -19 -67 -12 -80 8 -101
22 -83 55 8 14 10 40 6 67 -3 26 -1 53 5 65 10 18 9 20 -7 14 -11 -5 -36 -10
-56 -12 -136 -14 -133 -16 -93 44 14 20 25 49 25 65 0 24 7 31 53 52 60 28
118 32 141 9z m235 -10 c14 -18 21 -41 21 -69 0 -41 -1 -43 -45 -59 -25 -10
-45 -22 -45 -26 0 -5 19 -14 43 -20 72 -19 75 -21 42 -36 -43 -20 -170 -1
-137 20 8 5 5 17 -8 39 -12 19 -20 50 -20 75 0 87 100 138 149 76z m-835 5
c82 -23 112 -97 63 -154 -39 -46 -104 -45 -222 1 -11 4 4 -14 33 -40 85 -78
66 -112 -69 -123 -73 -6 -108 7 -157 60 l-22 24 -48 -24 c-60 -30 -161 -46
-232 -38 -66 7 -145 44 -183 83 -25 26 -26 30 -11 43 10 8 57 16 128 20 61 4
130 10 152 14 53 9 147 -17 180 -50 13 -13 26 -20 29 -15 3 5 39 25 79 44 85
41 131 83 141 125 5 22 13 31 33 34 50 8 67 7 106 -4z m-624 -44 c70 -36 15
-83 -102 -88 -62 -2 -62 -2 -71 30 -11 36 1 58 38 74 27 12 98 3 135 -16z
m2015 -88 c31 -30 45 -52 45 -70 0 -26 -3 -27 -48 -27 -62 0 -82 16 -89 67
-11 86 22 96 92 30z m-352 17 c29 -6 38 -24 11 -24 -12 0 -6 -11 19 -39 42
-46 66 -114 50 -139 -17 -29 -61 -26 -113 6 -26 16 -64 35 -84 42 -20 6 -36
14 -36 16 0 13 30 61 49 78 l22 20 -32 10 c-37 13 -48 32 -22 39 18 5 84 0
136 -9z m2378 -14 c28 -16 23 -42 -15 -79 l-33 -32 -32 26 c-45 39 -39 75 14
88 34 8 46 7 66 -3z m96 -40 c7 -19 12 -63 12 -98 l1 -63 -25 18 c-47 35 -70
117 -44 164 15 29 42 19 56 -21z m-4453 16 c18 -7 49 -28 70 -46 67 -60 31
-99 -78 -86 -53 7 -58 10 -76 46 -20 39 -26 81 -13 93 11 12 62 8 97 -7z
m2174 -28 c15 -13 16 -52 2 -78 -10 -19 -12 -19 -57 -2 -54 20 -73 44 -57 69
19 31 79 37 112 11z m-950 4 c9 -7 7 -13 -9 -28 -12 -10 -30 -36 -40 -56 -11
-21 -37 -47 -61 -62 -39 -23 -43 -24 -72 -9 -125 63 -129 112 -11 149 45 14
173 18 193 6z m160 -54 c78 -47 56 -98 -43 -98 -50 0 -54 2 -64 31 -32 92 16
122 107 67z m1148 7 c7 -29 -21 -115 -38 -115 -20 0 -77 32 -82 46 -8 20 8 47
40 73 38 30 72 28 80 -4z m-2636 -10 c0 -14 -29 -55 -74 -102 -27 -30 -35 -33
-87 -33 -32 0 -61 5 -65 11 -11 19 16 54 69 89 79 52 157 69 157 35z m4633
-33 c22 -24 57 -102 57 -128 0 -12 -6 -27 -13 -33 -16 -12 -26 5 -58 98 -28
80 -23 104 14 63z m-2197 -26 c27 -23 27 -24 13 -61 -22 -58 -36 -62 -108 -30
-34 16 -67 37 -72 47 -31 58 109 94 167 44z m-424 -34 c29 -29 15 -58 -45 -92
-29 -16 -57 -30 -63 -30 -6 0 -21 24 -33 52 -17 41 -24 49 -31 38 -5 -8 -10
-23 -10 -32 0 -28 -71 -95 -114 -107 -22 -6 -42 -9 -44 -6 -2 2 -7 24 -9 49
-7 56 7 76 53 76 19 0 34 4 34 10 0 13 41 39 88 56 52 20 149 12 174 -14z
m2798 6 c-1 -23 -21 -58 -34 -58 -11 0 -6 56 6 68 18 18 28 14 28 -10z m-3660
-33 c43 -39 14 -95 -74 -145 l-51 -30 33 0 c19 0 31 -4 27 -10 -3 -5 -92 -72
-198 -149 -223 -162 -371 -283 -412 -338 -16 -21 -30 -40 -32 -42 -2 -3 -14 6
-28 19 -78 74 -11 194 178 321 98 66 234 134 339 170 l66 23 -23 27 c-34 41
-41 96 -17 128 10 14 30 32 43 39 33 18 123 10 149 -13z m1094 -37 c25 -29 56
-66 69 -83 23 -27 27 -28 61 -18 35 11 36 11 21 -10 -26 -37 -18 -88 30 -186
43 -89 48 -111 22 -111 -21 0 -186 83 -191 96 -3 8 17 20 62 36 l67 23 -45 5
c-40 4 -45 8 -45 30 0 16 8 29 23 36 28 14 25 15 -48 39 -103 33 -160 73 -160
112 0 13 68 83 81 83 4 0 28 -24 53 -52z m-2195 16 c-38 -41 -80 -62 -137 -70
-58 -7 -69 5 -27 32 38 25 137 63 164 64 l24 0 -24 -26z m1372 11 c24 -9 51
-23 61 -31 16 -15 18 -15 29 10 25 53 92 16 131 -73 20 -43 28 -105 15 -117
-13 -13 -53 -5 -111 20 l-58 27 6 49 7 49 -28 -14 c-41 -21 -59 -19 -111 16
-48 32 -72 56 -72 71 0 14 85 9 131 -7z m-96 -57 c52 -41 70 -132 41 -203 -24
-56 -55 -56 -151 -2 -34 19 -40 27 -43 61 -3 38 16 100 44 144 19 29 72 30
109 0z m1368 -26 c20 -18 22 -51 5 -74 -12 -15 -18 -15 -74 3 -70 22 -93 42
-77 67 20 33 110 36 146 4z m237 13 c10 -12 7 -19 -17 -41 -24 -22 -34 -25
-68 -19 -22 3 -49 15 -60 26 -20 20 -20 20 -1 35 27 19 129 19 146 -1z m2148
-8 c4 -18 -78 -107 -98 -107 -5 0 -21 10 -36 23 -35 31 -28 68 18 91 44 22
112 17 116 -7z m-2995 -47 c58 -22 127 -78 127 -103 0 -9 -9 -21 -19 -27 -24
-13 -151 -13 -184 -1 -43 16 -64 120 -29 140 25 15 45 13 105 -9z m-193 -22
c90 -45 58 -77 -86 -85 l-94 -6 0 32 c0 76 89 105 180 59z m662 -17 c104 -66
165 -142 101 -126 -76 19 -126 49 -154 94 -16 25 -29 49 -29 53 0 17 38 7 82
-21z m482 -3 c23 -33 21 -78 -4 -78 -10 0 -24 -9 -30 -20 -9 -16 -15 -18 -30
-10 -24 13 -25 41 -4 83 27 52 45 58 68 25z m240 -46 c40 -24 55 -50 36 -62
-8 -5 -18 -10 -22 -10 -15 0 -108 82 -102 91 8 13 48 4 88 -19z m-1698 -18
c53 -39 79 -118 54 -164 -15 -28 -66 -41 -137 -34 -57 6 -67 11 -98 45 -38 42
-42 54 -22 66 6 4 21 26 33 48 25 47 76 77 113 68 15 -3 40 -16 57 -29z m1288
-5 c22 -17 26 -28 26 -69 l0 -48 37 19 c21 10 47 19 59 19 37 0 81 -46 106
-110 17 -44 25 -56 35 -48 32 27 149 -28 154 -72 7 -63 -27 -82 -95 -52 l-46
21 6 -25 c8 -32 -3 -74 -20 -74 -8 0 -20 16 -26 35 -14 41 -26 44 -42 10 -31
-69 119 -113 219 -63 44 22 45 22 59 3 12 -16 12 -22 -1 -41 -19 -30 -19 -31
5 -37 27 -7 25 -30 -4 -63 l-23 -28 -34 20 c-19 11 -35 29 -37 40 -3 17 -10
19 -83 15 -49 -2 -91 2 -110 9 -41 17 -67 72 -79 167 -12 88 -26 129 -45 137
-19 7 -158 -14 -170 -26 -7 -7 0 -17 19 -32 16 -11 41 -31 55 -43 l26 -21 -40
-36 c-22 -19 -45 -35 -51 -36 -36 -1 -90 123 -68 158 8 12 6 24 -8 49 -46 76
-11 180 74 222 54 26 69 26 102 0z m2376 -15 c0 -31 3 -35 18 -28 30 13 99 16
121 5 12 -7 21 -21 21 -33 0 -26 -57 -88 -80 -88 -8 0 -33 14 -54 32 -22 18
-46 33 -53 34 -59 9 -56 114 2 114 22 0 25 -4 25 -36z m-4113 4 c41 -38 23
-96 -56 -182 -23 -26 -20 -25 34 11 71 47 149 93 158 93 4 0 7 -11 7 -25 0
-41 -45 -118 -106 -184 -31 -34 -53 -61 -49 -61 13 0 121 88 158 129 29 33 44
41 71 41 68 0 68 -38 -2 -126 -73 -92 -360 -314 -406 -314 -17 0 -56 34 -56
49 0 4 11 25 25 45 l24 36 -50 -25 c-63 -32 -122 -38 -127 -12 -7 36 9 67 66
128 l57 63 -49 -34 c-106 -72 -228 -139 -244 -133 -57 20 -67 75 -25 136 34
49 143 137 286 230 222 144 242 157 251 157 6 0 20 -10 33 -22z m3347 2 c53
-20 25 -70 -68 -125 -53 -31 -66 -26 -66 26 l0 27 -61 -25 c-66 -27 -79 -23
-79 23 0 43 68 67 119 41 26 -13 30 -13 35 0 6 14 60 42 83 43 6 0 23 -4 37
-10z m-2599 -21 c24 -6 52 -20 62 -31 17 -19 17 -20 0 -33 -36 -26 -187 -30
-227 -5 -19 12 -5 55 22 68 30 14 89 15 143 1z m1295 -17 c48 -26 60 -49 36
-68 -11 -8 -29 -14 -40 -14 -22 0 -96 67 -96 87 0 19 60 16 100 -5z m-566 -37
c20 -10 36 -23 36 -31 0 -16 -41 -28 -67 -20 -23 7 -73 54 -73 68 0 14 58 5
104 -17z m1069 11 c9 -7 17 -18 17 -25 0 -12 -58 -51 -77 -51 -21 0 -34 36
-23 64 11 29 52 35 83 12z m-314 -26 c36 -14 51 -16 54 -7 5 14 48 -53 44 -68
-2 -5 -25 -20 -51 -33 -47 -22 -49 -22 -68 -5 -26 23 -70 111 -63 123 9 15 29
12 84 -10z m1801 1 c0 -18 -60 -102 -91 -128 -19 -15 -79 -3 -93 19 -15 25 19
67 84 101 63 32 100 36 100 8z m-546 -16 c59 -39 16 -78 -78 -73 -48 3 -51 5
-54 31 -5 43 24 70 69 64 20 -3 48 -13 63 -22z m-827 -2 c4 -10 -4 -36 -20
-64 l-26 -47 22 -6 c39 -10 81 -51 74 -71 -6 -14 -15 -16 -45 -12 -20 4 -41
14 -47 23 -29 46 -29 46 -60 30 -36 -19 -65 -21 -65 -3 0 6 9 27 20 45 11 18
20 38 20 45 1 13 34 40 78 63 35 18 41 18 49 -3z m310 -6 c-11 -34 -110 -77
-179 -77 -77 0 -116 40 -69 72 25 18 254 23 248 5z m-530 -19 c43 -48 56 -101
27 -112 -20 -8 -104 29 -105 46 -2 23 3 73 8 81 9 15 50 6 70 -15z m677 -11
c22 -16 14 -37 -32 -80 l-30 -29 -46 21 c-66 29 -61 69 11 91 42 13 77 11 97
-3z m1024 -35 c-2 -8 -19 -28 -39 -44 -35 -29 -37 -29 -73 -14 -60 25 -39 61
44 76 46 8 72 1 68 -18z m148 13 c3 -8 -4 -31 -17 -51 -20 -33 -25 -36 -57
-30 -65 10 -64 36 3 78 36 22 64 23 71 3z m-2128 -20 c28 -13 52 -31 52 -39 0
-24 -57 -31 -88 -11 -36 23 -72 56 -72 67 0 16 56 7 108 -17z m1153 -4 c29
-24 22 -41 -38 -87 -40 -30 -40 -32 -22 -48 13 -11 19 -29 19 -60 0 -42 -2
-45 -40 -60 -22 -9 -52 -16 -66 -16 -22 0 -24 -3 -15 -14 10 -12 5 -15 -28
-21 -45 -7 -130 3 -148 17 -7 6 -13 19 -13 29 0 15 8 19 38 19 22 0 60 -6 86
-14 41 -13 47 -13 42 0 -9 23 12 65 49 100 l35 32 -36 22 c-19 12 -42 34 -52
47 -15 25 -15 26 12 49 36 32 141 35 177 5z m1089 -1 c19 -19 19 -22 5 -50 -9
-17 -18 -30 -21 -30 -16 0 -84 45 -89 59 -15 39 70 56 105 21z m-2875 -10 c15
-17 16 -24 7 -45 -14 -31 -21 -31 -58 -3 -58 44 -60 68 -6 68 26 0 45 -7 57
-20z m-985 -15 c0 -9 -8 -32 -19 -53 -10 -20 -38 -91 -61 -157 -57 -161 -87
-222 -136 -271 -49 -49 -108 -67 -191 -58 -121 14 -122 35 -5 158 49 51 99
113 111 139 27 55 161 185 235 228 59 33 66 35 66 14z m2895 -3 c0 -7 -12 -21
-27 -30 -22 -13 -31 -14 -53 -4 -14 7 -23 17 -20 23 18 27 100 37 100 11z
m-2023 -19 c58 -34 42 -83 -27 -83 -54 0 -160 81 -137 105 13 13 130 -2 164
-22z m1426 11 c33 -23 29 -69 -9 -105 -17 -16 -35 -29 -40 -29 -13 0 -57 63
-64 93 -5 17 -2 33 5 42 16 20 80 19 108 -1z m130 -12 c2 -12 -8 -43 -23 -68
-14 -25 -25 -49 -23 -55 2 -5 28 9 58 31 63 48 93 62 115 54 25 -10 18 -61
-14 -96 -24 -27 -36 -32 -88 -36 -34 -2 -77 1 -97 8 -41 13 -43 24 -25 112 17
82 15 80 56 76 31 -2 39 -7 41 -26z m-2652 -59 c-27 -51 -48 -78 -191 -246
-49 -58 -97 -115 -105 -127 -13 -18 -21 -20 -63 -14 -27 4 -55 13 -63 21 -31
32 8 70 288 286 48 37 102 85 120 107 41 49 47 37 14 -27z m3644 40 c0 -13 3
-13 15 -3 9 7 19 10 22 6 12 -11 -23 -91 -41 -94 -42 -9 -61 52 -30 96 16 24
34 21 34 -5z m-2729 -12 c80 -50 111 -109 70 -131 -25 -13 -126 -13 -151 0
-34 18 -54 122 -28 148 20 20 62 14 109 -17z m567 8 c1 -9 -5 -26 -15 -38 -16
-19 -22 -21 -46 -12 -16 6 -27 18 -27 29 0 36 81 55 88 21z m1710 -5 c6 -41
-15 -73 -54 -80 -46 -8 -60 10 -37 46 36 57 85 75 91 34z m-1104 0 c26 -10 13
-27 -37 -48 -45 -19 -47 -19 -86 -1 -48 21 -59 42 -28 55 22 10 120 6 151 -6z
m1773 -21 c7 -18 -47 -73 -72 -73 -23 0 -69 45 -61 59 20 32 122 43 133 14z
m151 -3 c54 -33 37 -79 -36 -100 -93 -25 -126 5 -87 80 23 45 69 53 123 20z
m-1836 -1 c20 -11 19 -11 -8 -40 -27 -28 -28 -31 -14 -57 9 -15 40 -40 70 -57
l55 -30 -59 -3 c-68 -4 -90 10 -106 67 -15 55 -12 89 10 111 23 23 25 24 52 9z
m874 -24 c42 -17 37 -32 -12 -41 -29 -5 -40 -2 -56 14 -39 38 2 55 68 27z
m1094 4 c0 -25 -42 -69 -66 -69 -36 0 -31 36 9 60 36 22 57 26 57 9z m-1835
-29 c49 -24 100 -74 91 -89 -10 -15 -43 -14 -103 4 -42 12 -53 21 -62 45 -21
61 4 74 74 40z m-1681 -24 c8 -31 -18 -114 -60 -198 -19 -38 -32 -68 -30 -68
9 0 125 188 131 212 6 25 41 48 70 48 28 0 31 -49 9 -136 l-7 -29 35 37 c57
61 147 87 182 53 66 -66 -26 -331 -142 -410 -46 -31 -94 -33 -123 -4 -19 19
-21 30 -17 101 l5 79 -33 -62 c-57 -105 -89 -126 -157 -100 -34 13 -41 42 -23
88 l16 38 -28 -34 c-64 -81 -67 -84 -95 -78 -66 17 -54 141 30 311 45 91 65
116 121 148 60 36 108 37 116 4z m606 -11 c53 -28 35 -65 -50 -104 -62 -28
-80 -26 -128 15 -53 45 -56 78 -9 100 39 18 142 12 187 -11z m799 -7 c72 -36
65 -48 -27 -48 -77 0 -81 1 -106 31 -14 17 -23 35 -20 41 10 16 101 2 153 -24z
m1147 8 c3 -8 1 -32 -5 -54 -9 -32 -17 -41 -43 -49 -29 -9 -31 -11 -13 -18 85
-31 110 -44 113 -57 2 -9 -6 -18 -20 -22 -38 -10 -118 -7 -141 6 -12 6 -53 12
-92 14 -120 3 -156 19 -123 52 7 7 19 12 28 12 9 0 27 12 41 26 13 15 39 33
58 41 30 13 35 12 53 -4 20 -18 21 -55 3 -95 -6 -16 -1 -18 46 -18 l54 1 -38
20 c-27 14 -37 25 -33 35 3 9 6 21 6 28 0 19 69 96 86 96 8 0 17 -6 20 -14z
m1029 0 c16 -12 17 -16 6 -30 -30 -35 -81 -27 -81 14 0 30 44 39 75 16z m-477
-39 c2 -20 5 -37 7 -37 2 0 21 11 41 25 77 52 87 15 18 -69 -26 -32 -53 -56
-64 -56 -25 0 -41 29 -29 53 9 15 7 17 -15 11 -36 -9 -46 1 -36 38 11 36 49
80 64 75 6 -2 12 -20 14 -40z m-433 19 c79 -33 82 -105 5 -126 -23 -6 -49 -8
-59 -5 -35 11 -42 94 -11 125 24 24 22 24 65 6z m-750 -21 c28 -27 33 -76 11
-94 -18 -15 -49 -1 -83 36 -12 12 -29 23 -38 23 -24 0 -18 39 8 50 40 16 77
11 102 -15z m-1065 -14 c14 -10 25 -24 25 -32 0 -7 -11 -19 -25 -26 -49 -25
-160 -11 -160 20 0 15 36 51 60 60 23 9 72 -1 100 -22z m2614 -3 c17 -24 20
-59 10 -120 -6 -37 -7 -37 -34 -23 -37 19 -70 62 -70 90 0 29 37 75 60 75 10
0 26 -10 34 -22z m-2004 -43 c10 -12 10 -24 1 -55 -15 -52 -62 -90 -109 -90
-42 0 -56 7 -65 32 -8 23 14 34 85 43 32 4 56 11 53 15 -2 4 -25 13 -50 20
-52 15 -56 24 -17 38 41 16 88 14 102 -3z m1879 -9 c10 -12 8 -17 -8 -25 -29
-16 -41 -14 -41 7 0 34 28 43 49 18z m-1551 -21 c84 -25 79 -55 -9 -55 -37 0
-50 5 -72 28 -43 45 -13 54 81 27z m-1132 -47 c-3 -29 -17 -91 -31 -137 -14
-47 -23 -86 -21 -88 1 -2 20 37 41 87 39 95 76 150 101 150 8 0 22 -17 31 -37
19 -47 13 -181 -12 -263 -23 -72 -79 -130 -127 -130 -42 0 -58 15 -58 54 0 35
-17 24 -22 -14 -2 -21 -8 -25 -33 -23 -38 3 -55 26 -55 76 l0 40 -20 -26 c-25
-31 -71 -47 -127 -43 -47 4 -73 20 -73 45 0 9 17 45 37 81 20 36 51 94 68 130
40 80 80 130 106 130 26 0 49 -50 49 -107 0 -35 3 -44 10 -33 5 8 10 28 10 44
0 36 76 116 110 116 22 0 22 -3 16 -52z m2141 29 c8 -14 -43 -57 -67 -57 -26
0 -45 36 -30 55 20 24 83 25 97 2z m464 -8 c8 -16 8 -24 0 -32 -14 -14 -64 13
-69 37 -5 26 55 21 69 -5z m-1638 -11 l22 -23 -41 -5 c-86 -12 -117 -54 -159
-217 -45 -170 -92 -241 -133 -200 -53 54 41 310 153 416 47 44 59 51 94 51 29
0 48 -7 64 -22z m486 8 c9 -11 4 -20 -24 -45 -44 -38 -74 -46 -119 -31 -69 22
-67 52 5 75 58 18 124 19 138 1z m-1127 -36 c38 -76 14 -252 -47 -340 -31 -45
-58 -65 -102 -74 -27 -6 -34 -3 -47 17 -15 21 -14 30 4 98 11 41 27 106 36
144 23 103 84 200 122 193 9 -2 25 -19 34 -38z m2405 8 c42 -21 41 -62 0 -77
-61 -23 -67 -23 -76 1 -21 56 -21 66 -5 82 16 17 38 15 81 -6z m-482 -24 c21
-21 12 -51 -26 -86 -23 -22 -39 -28 -74 -28 -49 0 -52 5 -39 68 10 49 104 80
139 46z m-1762 -41 c16 -36 21 -68 22 -129 0 -45 3 -80 6 -78 8 4 25 50 33 86
3 15 22 43 41 64 29 30 37 35 50 24 32 -27 13 -185 -33 -276 -26 -51 -58 -66
-107 -53 -32 9 -36 14 -32 35 5 27 -5 31 -23 10 -19 -23 -116 -42 -135 -26
-21 18 -19 29 19 122 19 46 39 109 45 141 15 85 38 127 68 127 19 0 29 -10 46
-47z m1104 32 c34 -15 52 -30 53 -46 0 -4 -13 -12 -30 -19 -27 -11 -33 -10
-70 20 -22 17 -40 38 -40 46 0 19 41 18 87 -1z m-449 -48 c11 3 28 14 38 24 9
10 25 19 35 19 31 0 33 -38 5 -99 -14 -32 -39 -116 -56 -187 -33 -141 -48
-184 -61 -184 -5 0 -9 -13 -9 -30 0 -34 -34 -60 -53 -41 -27 27 -33 83 -14
139 24 72 36 174 37 306 l0 108 29 -30 c20 -22 34 -29 49 -25z m706 24 c29
-19 30 -19 54 0 16 12 40 19 71 19 59 0 90 -20 84 -54 -3 -15 3 -39 17 -61
l22 -35 -24 0 c-50 0 -132 32 -164 64 l-33 33 -53 -35 c-68 -43 -187 -102
-209 -102 -9 0 -22 6 -28 14 -16 19 6 62 54 107 73 69 151 88 209 50z m775 0
c7 -5 11 -14 7 -20 -8 -13 -100 -41 -134 -41 -23 0 -24 1 -10 23 24 35 105 58
137 38z m262 -84 c23 -73 18 -96 -11 -59 -21 26 -45 126 -34 143 10 16 20 -4
45 -84z m-2005 -46 c-3 -42 -9 -87 -11 -101 l-6 -25 12 25 c7 14 29 62 51 107
44 95 72 118 99 84 49 -60 28 -262 -38 -348 -20 -27 -31 -33 -63 -33 -48 0
-70 26 -71 85 l-1 40 -11 -31 c-20 -53 -42 -78 -60 -71 -22 8 -22 46 2 116 10
31 23 82 29 113 6 32 20 79 32 105 19 43 22 46 32 29 7 -12 8 -47 4 -95z
m2168 95 c54 -23 101 -72 132 -138 26 -57 29 -73 29 -168 -1 -58 -7 -132 -14
-165 l-13 -59 -29 32 c-40 45 -38 78 11 143 39 52 40 54 18 57 -13 1 -56 -6
-96 -17 -93 -24 -97 -16 -43 82 66 121 51 167 -56 167 -47 0 -55 3 -65 25 -8
19 -8 28 2 40 16 19 79 20 124 1z m-1515 -21 c21 -20 4 -53 -30 -60 -44 -10
-119 3 -119 20 0 13 40 46 70 58 20 8 62 -1 79 -18z m1283 4 c23 -12 22 -23
-1 -99 -39 -126 -93 -136 -127 -24 -16 54 -5 116 24 134 18 11 74 5 104 -11z
m-1463 -242 c16 -16 14 -163 -3 -195 -25 -48 -51 -63 -115 -69 l-61 -6 0 76
c0 139 38 268 111 374 l33 48 12 -109 c7 -60 17 -113 23 -119z m1265 180 c15
-15 30 -50 40 -95 38 -169 6 -177 -93 -23 -43 67 -45 87 -13 124 20 23 38 22
66 -6z m-733 -20 c46 -30 51 -80 15 -141 -37 -63 -50 -71 -86 -56 -17 7 -44
28 -60 47 -85 96 24 222 131 150z m1159 -7 c8 -15 8 -30 1 -53 -13 -38 -77
-118 -126 -157 -22 -18 -31 -30 -24 -37 13 -13 -5 -60 -34 -91 l-21 -23 44 7
c34 5 52 15 73 40 31 38 48 42 68 18 22 -26 -16 -80 -96 -136 -62 -44 -69 -52
-67 -79 3 -23 0 -29 -16 -29 -26 0 -81 54 -98 97 -25 60 -19 76 55 145 64 60
69 66 54 81 -29 29 -2 88 76 168 72 73 93 82 111 49z m-1500 -19 c0 -22 -45
-63 -103 -92 -42 -22 -42 -22 -68 24 -24 42 36 86 119 87 45 0 52 -3 52 -19z
m509 -47 c12 -15 26 -44 33 -65 10 -34 9 -42 -7 -59 -17 -19 -17 -21 0 -40 15
-16 15 -22 5 -35 -17 -21 -24 -19 -64 16 -43 37 -56 81 -49 154 6 52 7 55 34
55 18 0 35 -9 48 -26z m171 -39 c16 -20 0 -40 -46 -57 -35 -12 -46 -28 -19
-28 8 0 24 -13 36 -30 21 -28 23 -29 36 -11 7 11 17 37 21 58 5 26 16 42 35
53 24 13 28 13 44 -3 23 -23 25 -110 3 -131 -25 -25 -146 -29 -197 -6 -37 16
-43 23 -43 49 0 21 5 31 15 31 12 0 13 4 5 19 -14 27 -13 37 6 55 20 20 88 21
104 1z m640 2 c0 -21 -136 -147 -158 -147 -11 0 -25 7 -32 15 -11 13 -6 22 28
54 35 34 132 91 154 91 4 0 8 -6 8 -13z m-1280 -12 c0 -3 -14 -32 -30 -65 -24
-47 -38 -63 -68 -75 -36 -16 -37 -16 -59 10 -27 30 -30 67 -8 85 25 20 165 58
165 45z m145 -45 c7 -12 -10 -41 -48 -82 -22 -24 -34 -28 -82 -28 -48 0 -56 3
-53 18 4 20 87 78 132 91 42 12 44 12 51 1z m121 -104 c19 -14 18 -15 -6 -41
-14 -15 -44 -41 -68 -57 -42 -29 -44 -29 -63 -12 -50 45 8 113 107 123 5 1 19
-5 30 -13z m1457 0 c20 -21 32 -117 15 -127 -21 -14 -54 -10 -68 6 -12 15 -9
103 5 125 9 14 31 12 48 -4z m-1303 -23 c0 -31 -48 -123 -64 -123 -19 0 -36
30 -36 63 0 16 12 32 37 50 44 31 63 34 63 10z m319 -31 c14 -10 26 -23 28
-28 5 -15 -38 -74 -68 -91 -24 -15 -28 -14 -80 19 l-54 35 -1 -44 c-1 -41 0
-42 17 -27 54 49 109 -31 109 -161 0 -44 -5 -87 -10 -95 -21 -34 -130 116
-130 179 0 22 -5 18 -32 -27 -18 -28 -35 -52 -38 -52 -12 0 -69 106 -80 147
-12 49 5 104 38 122 26 14 79 14 87 1 9 -15 25 -12 25 4 0 44 136 57 189 18z
m-899 -22 c13 -49 9 -265 -5 -265 -5 0 -16 19 -24 43 -11 37 -16 42 -40 40
-24 -3 -26 0 -25 37 1 40 60 185 75 185 5 0 13 -18 19 -40z m1068 28 c24 -24
14 -66 -23 -94 -48 -36 -45 -50 15 -57 79 -9 104 -26 108 -68 4 -43 -12 -59
-66 -66 -28 -4 -47 0 -66 12 -24 16 -28 16 -44 2 -9 -9 -25 -29 -34 -45 l-18
-29 40 19 c39 19 40 19 77 1 29 -14 42 -29 55 -63 12 -32 17 -38 17 -22 1 33
29 89 48 96 38 15 81 -62 108 -188 19 -93 19 -86 -7 -86 l-22 0 21 -20 c55
-51 37 -97 -54 -140 -37 -18 -81 -41 -96 -52 -16 -11 -30 -19 -31 -17 -16 19
-26 56 -26 94 0 40 5 52 34 81 19 19 48 37 65 40 17 4 31 8 31 11 0 2 -13 15
-30 29 -19 16 -32 40 -38 67 l-9 42 -7 -52 c-4 -29 -12 -55 -17 -59 -10 -6
-84 43 -116 78 -29 31 -54 92 -47 115 5 14 4 15 -4 4 -13 -18 -37 -9 -58 23
-12 20 -15 37 -10 71 11 68 79 196 131 244 48 44 55 47 73 29z m-863 -8 c9
-14 -27 -46 -84 -75 -60 -30 -78 -31 -86 -5 -9 27 9 54 47 73 36 18 113 23
123 7z m1485 -30 c0 -21 -53 -115 -74 -132 -11 -10 -29 -18 -40 -18 -10 0 -32
-12 -49 -26 -28 -23 -31 -24 -46 -9 -15 15 -14 18 12 40 15 13 42 27 60 31 24
5 42 20 74 65 40 55 63 73 63 49z m-1401 -55 c23 -22 5 -43 -50 -59 -64 -19
-106 -20 -112 -3 -8 24 15 66 41 76 33 13 102 5 121 -14z m186 -17 c35 -41 34
-104 -2 -169 -14 -27 -30 -49 -34 -49 -25 0 -88 129 -89 181 0 79 72 100 125
37z m1415 -21 c34 -17 36 -39 6 -68 l-24 -23 28 -13 c47 -19 121 -137 76 -120
-8 3 -28 1 -45 -6 -28 -10 -33 -9 -66 23 -34 33 -37 42 -20 83 6 13 4 16 -9
11 -24 -9 -129 15 -165 37 -54 33 -35 61 52 79 64 12 139 11 167 -3z m-1801
-31 c34 -41 88 -281 76 -337 -8 -37 -16 -36 -60 2 -49 44 -68 114 -63 233 5
111 17 138 47 102z m166 -45 c0 -15 -13 -34 -37 -54 -37 -30 -38 -30 -58 -12
-45 40 -3 99 65 93 24 -3 30 -8 30 -27z m86 -21 c11 -19 42 -93 69 -164 37
-95 47 -132 38 -137 -22 -14 -46 10 -77 74 -73 148 -100 357 -30 227z m1307
-37 c3 -26 -6 -41 -59 -97 -34 -36 -65 -66 -70 -66 -4 0 -20 10 -35 23 -26 23
-26 24 -10 49 15 23 15 26 1 32 -9 3 -26 6 -38 6 -20 1 -20 3 8 25 41 34 123
65 165 62 31 -2 35 -5 38 -34z m157 -57 c87 -88 84 -186 -13 -304 -31 -39 -36
-42 -50 -28 -20 20 -9 46 52 121 43 52 51 85 21 85 -6 0 -20 9 -30 20 -21 24
-35 26 -35 5 0 -24 -56 -79 -109 -109 -93 -50 -90 -28 7 66 50 48 87 90 83 92
-5 3 -31 -4 -59 -16 -43 -18 -53 -19 -67 -8 -24 20 2 41 58 47 45 5 45 6 40
39 -5 33 -4 34 26 34 24 0 42 -11 76 -44z m-1140 -38 c13 -16 22 -35 18 -44
-11 -30 -101 -59 -130 -41 -17 11 -36 75 -29 102 3 13 14 25 24 27 33 7 92
-15 117 -44z m1348 -4 c3 -4 -5 -28 -18 -54 -19 -38 -31 -50 -56 -55 -17 -4
-35 -3 -41 3 -14 14 17 58 61 88 38 26 44 28 54 18z m-1735 -56 c32 -64 39
-149 18 -221 -9 -31 -20 -58 -24 -61 -5 -3 -28 29 -51 70 -42 73 -43 77 -40
153 3 48 9 85 18 95 24 29 54 15 79 -36z m504 5 c24 -21 23 -35 -5 -61 -24
-22 -114 -58 -123 -49 -3 3 -2 22 2 43 13 71 81 108 126 67z m759 -43 c44 -24
3 -93 -68 -115 -19 -5 -23 -2 -23 15 0 32 26 87 47 99 23 13 21 13 44 1z
m-618 -9 c31 -12 64 -66 73 -118 6 -39 5 -40 -26 -47 -131 -26 -217 23 -177
100 32 61 78 84 130 65z m1107 -24 c0 -16 -48 -85 -73 -106 -14 -11 -21 -11
-42 3 -31 20 -32 46 -2 74 40 37 117 56 117 29z m-1361 -55 c62 -24 74 -47 38
-77 -15 -13 -43 -27 -63 -31 -30 -5 -41 -2 -72 23 -44 36 -64 79 -42 93 23 15
90 11 139 -8z m-176 -28 c29 -29 41 -71 32 -112 -6 -29 -60 -102 -75 -102 -11
0 -37 82 -46 143 -12 85 36 124 89 71z m1224 -10 c11 -28 -16 -64 -77 -103
l-61 -40 -49 21 c-28 11 -50 24 -50 28 0 14 73 72 114 91 51 23 114 25 123 3z
m-1347 -57 c16 -44 25 -180 13 -201 -8 -14 -15 -6 -38 46 -45 99 -45 209 0
192 7 -3 19 -20 25 -37z m1651 33 c18 -10 19 -13 3 -38 -16 -28 -86 -86 -117
-98 -12 -4 -17 -1 -18 12 0 14 -5 10 -16 -12 -8 -17 -26 -38 -40 -46 -24 -15
-28 -13 -85 24 -33 22 -57 45 -55 51 2 7 22 13 45 15 31 2 46 -2 62 -18 l22
-22 22 21 c12 12 28 21 34 21 7 0 12 6 12 13 0 17 48 63 80 76 32 13 28 13 51
1z m-1223 -79 c4 -57 -5 -65 -62 -50 -56 14 -72 5 -81 -51 -5 -30 -13 -42 -36
-52 -21 -9 -29 -20 -29 -39 0 -14 -10 -35 -22 -46 -24 -22 -89 -63 -100 -63
-8 0 -38 88 -38 112 0 33 38 60 78 56 21 -3 44 -8 53 -12 12 -5 18 0 23 21 19
73 131 176 186 171 22 -3 25 -8 28 -47z m1251 -44 c6 -12 13 -42 14 -67 2 -41
0 -45 -20 -42 -16 2 -23 -2 -23 -14 0 -9 -16 -32 -36 -50 -39 -37 -47 -36 -96
10 -16 14 -28 34 -28 44 0 24 49 46 89 40 28 -4 29 -3 24 27 -10 65 48 105 76
52z m-1043 -22 c9 -14 19 -45 22 -70 l5 -45 -64 0 c-107 0 -142 49 -80 111 39
39 93 41 117 4z m299 -15 c62 -23 34 -68 -59 -95 -37 -11 -60 -12 -84 -5 -28
7 -33 6 -28 -5 14 -36 27 -98 22 -103 -11 -10 -126 28 -169 56 l-42 27 74 6
c69 5 76 8 102 40 64 77 75 84 136 88 12 0 33 -3 48 -9z m383 -32 c6 -6 12
-19 12 -30 0 -10 4 -17 10 -13 23 14 147 -63 171 -107 18 -33 -7 -51 -63 -46
-56 6 -78 23 -104 81 -24 55 -22 54 -40 29 -22 -32 -34 -27 -34 16 0 60 -15
71 -39 31 -12 -19 -22 -38 -24 -43 -5 -14 -71 27 -75 46 -8 43 142 72 186 36z
m-890 -31 c5 -27 -47 -97 -72 -97 -37 0 -88 38 -84 63 7 48 148 79 156 34z
m592 -90 c0 -8 -16 -35 -35 -62 l-34 -49 27 -12 c34 -14 82 -69 82 -94 0 -22
-17 -36 -53 -45 -25 -7 -29 -3 -52 46 -14 30 -25 64 -25 77 0 16 -9 27 -32 37
-29 12 -35 12 -49 -3 -9 -9 -23 -37 -32 -62 -10 -25 -30 -61 -45 -79 -27 -33
-29 -33 -58 -20 -53 27 -23 88 84 171 112 88 222 135 222 95z m-507 -11 c48
-20 71 -50 58 -74 -15 -27 -94 -56 -156 -57 -47 0 -50 2 -53 27 -5 39 66 114
111 117 4 1 22 -5 40 -13z m1171 -38 c-16 -54 -35 -78 -59 -78 -22 0 -25 -4
-25 -39 0 -64 -11 -100 -32 -107 -11 -3 -25 -1 -30 4 -14 14 15 111 42 139 11
12 20 26 20 32 0 16 57 71 75 71 12 0 15 -5 9 -22z m-1397 -10 c27 -22 15 -66
-30 -113 -24 -25 -49 -45 -55 -45 -17 0 -44 58 -45 96 -2 67 78 106 130 62z
m460 -35 c5 -12 -10 -32 -52 -71 -56 -52 -60 -54 -99 -48 -110 18 -85 80 49
122 57 18 94 17 102 -3z m789 -25 c8 -12 -45 -68 -63 -68 -21 0 -53 38 -47 55
11 28 95 38 110 13z m-222 -68 c-1 -42 -10 -90 -27 -136 l-25 -72 26 14 c15 8
37 14 49 14 18 0 24 10 37 54 9 29 25 64 35 77 l19 24 12 -30 c21 -56 -9 -144
-60 -170 -88 -46 -180 25 -180 140 0 80 48 160 93 153 20 -3 22 -8 21 -68z
m410 -6 c24 -23 24 -96 0 -153 l-14 -33 -32 20 c-40 25 -78 77 -78 107 0 12 9
34 21 49 24 30 78 36 103 10z m-830 -25 c7 -21 4 -33 -14 -58 l-22 -32 48 6
c97 12 97 -29 0 -93 -84 -55 -93 -58 -116 -37 -23 21 -26 58 -6 78 13 12 6 14
-50 13 -54 -1 -64 -4 -64 -18 0 -10 6 -17 13 -15 7 1 13 -11 15 -30 2 -23 -3
-35 -20 -47 -12 -9 -17 -16 -10 -16 22 0 52 -39 52 -68 0 -33 -59 -154 -77
-160 -14 -4 -71 71 -79 105 -9 33 3 69 28 93 21 19 33 50 20 50 -3 0 -16 -9
-28 -21 l-22 -21 -16 24 c-9 13 -19 38 -22 56 -5 26 -1 36 25 63 27 26 37 30
71 27 22 -2 41 1 43 6 1 4 39 16 82 25 76 17 80 19 83 47 7 58 48 72 66 23z
m-544 6 c8 -9 10 -27 6 -47 l-6 -32 27 26 c46 43 79 59 122 61 49 2 64 -11 63
-53 -1 -47 -46 -115 -139 -210 -92 -95 -94 -95 -113 -5 -9 47 -5 89 16 140 4
12 -4 7 -20 -13 -31 -36 -45 -33 -72 19 -21 41 -17 77 11 104 28 29 85 34 105
10z m1185 -75 c4 -7 -16 -62 -30 -78 -6 -7 -55 19 -55 28 0 16 47 60 64 60 8
0 18 -4 21 -10z m155 -135 c15 -18 -11 -75 -68 -150 -65 -86 -132 -70 -118 29
11 69 36 101 97 119 69 20 74 20 89 2z m-241 -14 c11 -7 12 -26 7 -92 -4 -46
-9 -92 -12 -102 -5 -16 -3 -17 16 -5 19 11 24 10 41 -11 38 -46 11 -120 -52
-145 -64 -26 -169 -5 -169 33 0 41 109 98 110 59 1 -7 9 -3 19 9 18 22 18 23
0 60 -23 48 -34 140 -20 176 11 27 34 34 60 18z m331 -31 c0 -33 -19 -90 -30
-90 -14 0 -49 34 -51 50 -4 36 3 50 28 64 35 18 53 10 53 -24z m-727 16 c15
-4 27 -13 27 -20 0 -23 -70 -78 -89 -71 -9 4 -21 9 -27 11 -6 3 -16 -12 -22
-33 -11 -37 -69 -123 -83 -123 -12 0 -59 118 -59 149 0 21 9 41 26 57 21 22
31 25 60 19 20 -3 41 -2 47 3 14 12 55 20 77 16 8 -1 27 -5 43 -8z m297 -21
c15 -18 24 -123 13 -153 l-9 -23 -48 37 c-53 40 -55 56 -14 122 21 35 39 40
58 17z m-857 -56 c53 -28 51 -75 -5 -123 -23 -20 -47 -36 -54 -36 -12 0 -64
93 -64 115 0 6 7 21 16 33 17 25 70 30 107 11z m644 -16 c8 -19 -35 -105 -77
-154 -25 -28 -31 -32 -40 -19 -29 44 5 135 64 171 38 23 45 24 53 2z m633 -53
c0 -22 -139 -130 -166 -130 -6 0 -14 -20 -16 -44 -3 -25 -18 -66 -33 -92 -25
-42 -29 -46 -36 -29 -20 52 1 165 32 165 6 0 7 13 4 34 l-7 33 74 30 c40 17
80 33 88 36 26 9 60 7 60 -3z m-600 -68 c0 -22 -30 -161 -41 -187 -4 -11 -11
-30 -14 -42 -6 -21 -58 -73 -74 -73 -13 0 -43 61 -37 76 3 8 21 21 40 29 32
14 34 16 24 42 -15 41 6 109 48 151 34 34 54 35 54 4z m590 -30 c0 -9 -66
-111 -93 -145 -8 -10 -21 -15 -30 -11 -42 16 -23 71 45 128 39 33 78 47 78 28z
m-1186 -16 c18 -7 43 -27 55 -44 39 -56 21 -112 -48 -147 -39 -20 -40 -19 -71
63 -24 63 -25 105 -4 126 19 20 26 20 68 2z m261 -25 c17 -54 -54 -175 -156
-264 -29 -26 -57 -47 -60 -47 -10 0 17 129 40 189 29 77 67 130 104 146 36 15
62 6 72 -24z m145 -26 c17 -20 7 -76 -20 -121 -18 -29 -25 -33 -37 -23 -41 35
-55 109 -26 141 20 22 66 24 83 3z m804 -85 c33 -39 43 -93 25 -131 l-14 -29
-37 31 c-35 28 -38 34 -38 83 0 47 12 76 31 76 4 0 19 -14 33 -30z m-340 14
c24 -9 19 -32 -12 -52 -18 -12 -26 -24 -24 -39 2 -16 -5 -26 -29 -39 -32 -16
-33 -16 -56 11 -32 36 -27 70 9 70 21 -1 24 2 16 12 -25 30 45 57 96 37z
m-252 -176 c-4 -4 -20 -9 -35 -10 -20 -2 -29 -10 -37 -34 -6 -18 -34 -54 -63
-81 -45 -41 -52 -45 -55 -28 -7 35 19 123 44 150 18 19 32 26 49 23 20 -4 26
1 39 36 l16 41 26 -44 c13 -24 21 -48 16 -53z m-276 69 c2 -7 -2 -32 -11 -56
-18 -51 -20 -101 -4 -101 24 0 79 42 79 61 0 10 4 19 9 19 19 0 21 -18 6 -46
-8 -16 -15 -34 -15 -40 0 -6 -7 -28 -15 -48 l-16 -37 -25 31 c-47 56 -118 76
-159 46 -10 -7 -21 -32 -25 -57 l-7 -44 -16 37 c-20 44 -22 105 -5 159 17 58
40 74 108 74 32 0 62 4 66 8 11 11 24 8 30 -6z m732 -20 c5 -43 -22 -77 -62
-77 -57 0 -61 21 -14 69 47 47 71 49 76 8z m-153 3 c-19 -21 -72 -29 -60 -9 8
12 43 27 64 28 11 1 10 -4 -4 -19z m227 -106 c10 -20 8 -27 -8 -39 -54 -40
-103 -20 -83 34 21 56 67 59 91 5z m-494 9 c5 -33 -85 -123 -123 -123 -3 0 6
23 21 51 44 88 94 123 102 72z m278 -8 c8 -19 -1 -54 -18 -78 -11 -14 -22 -17
-54 -11 -56 9 -66 16 -59 46 11 44 118 79 131 43z m302 -51 c28 -19 28 -45 0
-71 -47 -42 -78 -34 -78 20 0 61 33 83 78 51z m-200 -34 c4 -36 -30 -194 -52
-245 l-13 -30 -11 40 c-7 22 -12 65 -12 95 1 117 79 240 88 140z m-518 -36
c11 -27 14 -174 4 -174 -39 0 -69 62 -60 127 9 71 38 95 56 47z m141 -1 c15
-18 20 -195 6 -209 -9 -10 -74 52 -94 90 -39 75 38 180 88 119z m471 -10 c14
-12 18 -31 18 -78 0 -34 -3 -64 -6 -68 -4 -3 -24 3 -45 13 -63 33 -77 83 -34
125 28 29 42 31 67 8z m-687 -13 c8 -12 -83 -70 -111 -70 -12 0 -27 6 -33 14
-10 12 -7 18 14 32 42 27 119 42 130 24z m-180 -27 c23 -22 35 -58 35 -101 0
-59 -12 -113 -23 -109 -19 6 -76 97 -87 137 -14 51 1 90 34 90 14 0 32 -7 41
-17z m649 -56 c5 -14 6 -32 3 -40 -6 -17 -55 -53 -61 -46 -3 2 -8 37 -12 78
l-7 75 34 -21 c19 -12 38 -33 43 -46z m318 -23 c-3 -26 -9 -34 -21 -32 -20 4
-20 60 0 84 12 14 14 14 19 -1 3 -9 4 -32 2 -51z m-813 -20 c12 -15 21 -38 21
-51 0 -22 -3 -24 -32 -18 -46 10 -84 31 -92 51 -18 47 68 62 103 18z m691 -79
c8 -38 1 -125 -10 -125 -25 0 -49 105 -34 145 10 25 38 13 44 -20z m-683 -45
c-5 -42 -51 -130 -67 -130 -13 0 -29 63 -23 94 7 34 47 76 74 76 19 0 21 -4
16 -40z m787 -2 c35 -49 7 -77 -42 -42 -21 15 -29 44 -15 57 13 14 42 6 57
-15z m-482 -24 c4 -16 3 -67 -2 -114 -5 -47 -10 -91 -10 -97 0 -22 -28 -14
-50 15 -19 23 -21 36 -17 83 6 65 41 153 59 147 6 -2 15 -18 20 -34z m-114 10
c27 -19 27 -25 1 -58 -20 -25 -21 -25 -57 -10 -20 8 -46 24 -57 35 -20 20 -20
20 -1 35 26 19 86 18 114 -2z m397 -24 c4 -6 -5 -35 -19 -66 l-25 -55 -43 3
c-60 4 -61 27 -5 83 42 43 79 57 92 35z m140 -156 c8 -98 0 -129 -25 -99 -22
27 -14 195 10 195 4 0 11 -43 15 -96z m-575 65 c96 -54 67 -140 -56 -165 -29
-5 -33 -3 -52 38 l-22 43 0 -35 c0 -19 -6 -57 -14 -85 l-14 -50 -17 40 c-38
85 -29 174 17 162 14 -4 18 1 18 18 0 55 71 72 140 34z m670 -11 c0 -18 -5
-40 -10 -48 -9 -13 -12 -12 -25 4 -16 21 -20 58 -8 69 3 4 15 7 25 7 14 0 18
-8 18 -32z m-180 -88 c31 -31 25 -64 -19 -102 l-39 -33 29 -12 c31 -13 49 -57
31 -75 -13 -13 -82 35 -89 62 -3 11 -11 16 -22 13 -10 -2 -25 3 -34 12 -15 15
-15 19 -1 46 8 17 21 32 29 35 8 3 23 21 34 40 23 39 51 44 81 14z m203 -36
c6 -6 -16 -57 -35 -81 -14 -17 -48 2 -48 27 0 31 64 73 83 54z m-564 -40 c9
-8 -22 -115 -40 -138 -29 -37 -52 -32 -98 21 -86 97 -61 137 79 125 30 -3 57
-6 59 -8z m469 -67 c6 -30 -7 -67 -23 -67 -17 0 -55 35 -55 49 0 37 72 53 78
18z m-390 -110 c3 -72 -4 -81 -38 -47 -33 33 -19 125 18 118 14 -3 18 -16 20
-71z m174 11 c1 -40 -2 -81 -8 -87 -2 -2 -10 2 -19 9 -17 14 -20 62 -5 91 16
29 30 23 32 -13z m338 -4 c13 -33 4 -47 -21 -34 -27 15 -25 60 3 60 5 0 13
-12 18 -26z m-205 -26 c33 -15 38 -59 9 -88 -14 -13 -18 -12 -40 13 -13 15
-24 39 -24 52 0 20 5 25 27 34 1 1 14 -4 28 -11z m-369 -23 c3 -14 3 -33 0
-42 -6 -15 -10 -12 -27 14 -11 18 -18 37 -14 43 11 19 35 10 41 -15z m513 11
c6 -7 14 -34 18 -61 6 -46 6 -47 -16 -36 -12 7 -29 27 -38 46 -13 28 -14 37
-3 50 15 19 24 19 39 1z m-623 -20 c19 -14 18 -15 -4 -61 -19 -40 -25 -45 -45
-39 -43 13 -77 35 -77 49 0 26 51 60 96 64 5 1 19 -5 30 -13z m568 -22 c8 -21
8 -64 -1 -64 -3 0 -15 7 -25 17 -29 26 -22 58 13 62 4 1 10 -6 13 -15z m-470
-50 c39 -15 -12 -92 -52 -80 -27 9 -55 42 -47 56 14 23 68 36 99 24z m96 -41
c0 -21 -3 -63 -7 -93 l-7 -55 -11 50 -11 50 -17 -32 c-29 -56 -80 -38 -58 19
15 39 70 98 92 98 15 0 19 -7 19 -37z m235 -62 c-18 -78 -39 -96 -86 -71 -25
14 -24 41 2 74 42 53 97 51 84 -3z m175 39 c0 -6 -10 -26 -22 -45 -19 -28 -29
-35 -55 -35 -44 0 -43 21 4 59 37 31 73 41 73 21z m-620 -16 c50 -20 47 -38
-7 -42 -33 -2 -44 1 -57 19 -28 41 -3 50 64 23z m691 -41 c7 -20 7 -28 -3 -35
-21 -13 -33 -3 -36 30 -4 41 24 44 39 5z m-741 -48 c39 -20 54 -75 20 -75 -18
0 -70 53 -70 71 0 23 12 24 50 4z m129 6 c19 -12 6 -28 -30 -36 -23 -5 -36 -2
-48 9 -14 15 -14 18 -1 26 19 12 61 12 79 1z m576 -20 c3 -5 0 -15 -7 -23 -7
-7 -30 -39 -51 -70 -58 -90 -77 -75 -61 45 4 30 12 48 23 50 31 9 90 7 96 -2z
m-201 -76 c9 -24 -5 -75 -21 -75 -22 0 -53 19 -53 33 0 41 61 75 74 42z m-424
-16 c0 -23 -96 -127 -106 -116 -9 9 87 137 103 137 2 0 3 -10 3 -21z m57 -25
c-7 -43 -14 -51 -29 -36 -8 8 -8 19 2 41 17 43 34 39 27 -5z m168 -68 c8 -13
22 -54 30 -92 15 -73 11 -84 -31 -84 -51 0 -80 92 -51 163 18 43 31 46 52 13z
m245 -34 c0 -45 -2 -49 -42 -75 -26 -16 -46 -23 -51 -18 -21 21 47 141 79 141
10 0 14 -13 14 -48z m166 40 c18 -12 36 -54 27 -62 -4 -5 -28 -11 -53 -15 -78
-11 -105 35 -41 70 29 16 51 18 67 7z m-631 -42 c7 -11 -11 -50 -23 -50 -18 1
-44 30 -39 45 7 17 52 21 62 5z m95 -10 c15 -28 9 -74 -10 -77 -8 -2 -24 4
-34 12 -19 14 -19 17 -3 50 19 40 32 44 47 15z m560 -59 c11 -21 14 -61 5 -61
-13 0 -62 30 -74 44 -18 21 -5 36 29 36 19 0 33 -7 40 -19z m-670 -37 c42 -17
50 -33 26 -53 -24 -20 -96 28 -96 63 0 11 29 6 70 -10z m627 -36 c11 -13 26
-34 33 -46 10 -21 9 -27 -12 -49 -12 -14 -39 -32 -58 -40 -32 -14 -35 -14 -52
7 -21 25 -22 47 -7 87 24 64 61 79 96 41z m-447 -56 c35 -26 37 -49 5 -64 -22
-10 -30 -8 -52 9 -15 11 -33 34 -41 53 l-13 33 38 -6 c20 -4 49 -15 63 -25z
m121 -22 c9 -32 11 -128 3 -158 -9 -31 -50 -26 -77 10 -16 21 -18 35 -13 70
13 89 70 139 87 78z m-267 9 c14 -7 27 -18 30 -26 6 -15 -27 -53 -47 -53 -22
0 -70 57 -64 74 7 19 46 21 81 5z m459 -3 c7 -17 -10 -83 -23 -91 -11 -7 -30
27 -30 54 0 20 24 51 40 51 4 0 10 -6 13 -14z m192 -122 c32 -35 32 -54 -1
-54 -53 0 -86 37 -58 65 21 21 31 19 59 -11z m-625 -20 c0 -16 -68 -94 -81
-94 -18 0 -8 37 21 84 26 40 33 46 45 36 8 -7 15 -19 15 -26z m526 3 c30 -26
37 -74 14 -101 -15 -19 -40 -21 -40 -4 0 6 -11 26 -25 44 -52 69 -13 116 51
61z m-316 -109 c79 -41 81 -90 3 -96 -36 -3 -44 1 -72 35 -43 53 -40 80 9 82
9 1 36 -9 60 -21z m264 -39 c27 -21 32 -44 16 -69 -8 -13 -16 -12 -55 9 -52
28 -75 58 -54 72 24 15 65 10 93 -12z m-526 -7 c26 -20 22 -46 -11 -64 -16 -8
-23 -7 -34 8 -7 10 -13 27 -13 39 0 39 21 45 58 17z m621 -13 c21 -20 21 -23
7 -37 -8 -9 -17 -14 -18 -11 -2 2 -16 19 -32 37 l-30 32 25 0 c14 0 35 -10 48
-21z m-429 -58 c56 -55 49 -131 -10 -131 -31 0 -90 25 -90 37 0 4 16 24 36 44
l36 37 -23 21 -23 21 23 0 c12 0 35 -13 51 -29z m479 -19 c7 -13 6 -23 -1 -30
-17 -17 -48 -15 -48 2 0 44 31 61 49 28z m-249 -27 c13 -13 6 -15 -59 -15 -53
0 -72 3 -69 12 10 29 99 31 128 3z m137 4 c34 -13 73 -48 73 -66 0 -29 -32
-24 -80 13 -69 53 -66 81 7 53z m-519 -54 c1 -16 -2 -37 -7 -45 -8 -12 -14
-11 -35 10 -29 26 -32 40 -14 58 23 23 53 10 56 -23z m672 16 c15 -29 12 -41
-9 -41 -13 0 -21 -8 -23 -22 -3 -25 -34 -36 -52 -18 -8 8 -5 15 12 28 16 13
19 21 12 28 -8 8 -7 16 5 28 22 21 42 20 55 -3z m68 -83 c3 -13 -3 -18 -22
-18 -27 0 -41 14 -31 31 10 16 49 6 53 -13z m-683 -44 c19 -19 14 -40 -8 -36
-32 5 -87 32 -87 42 0 17 77 11 95 -6z m496 -21 c18 -48 -6 -68 -46 -39 -17
12 -18 18 -7 40 15 34 40 33 53 -1z m162 7 c5 -4 4 -11 -1 -14 -12 -7 -62 13
-62 26 0 9 50 0 63 -12z m-38 -42 c14 -6 25 -16 25 -23 0 -16 -21 -35 -41 -35
-22 0 -69 38 -69 56 0 17 48 19 85 2z m138 -67 c4 -18 6 -36 2 -39 -9 -9 -34
31 -35 56 0 34 22 22 33 -17z m-75 7 c16 -16 15 -48 -1 -48 -19 0 -37 21 -37
42 0 21 20 24 38 6z m-908 -108 c0 -12 -27 -26 -67 -33 -40 -8 -43 7 -5 27 31
17 72 21 72 6z m935 -9 c23 -10 26 -14 15 -21 -39 -25 -130 -1 -130 33 0 12
73 4 115 -12z m120 -46 c37 -15 51 -35 41 -60 -5 -14 -11 -13 -48 6 -52 26
-79 49 -72 60 8 13 40 11 79 -6z m-57 -41 c24 -16 30 -44 8 -44 -17 0 -87 28
-104 43 -11 8 -11 12 0 19 16 10 66 1 96 -18z m-1098 -12 c0 -11 -71 -44 -79
-37 -9 10 38 45 60 45 10 0 19 -4 19 -8z m-31 -86 c14 -16 4 -43 -24 -66 -13
-11 -19 -10 -35 5 -23 20 -26 45 -8 63 16 16 53 15 67 -2z m1266 -60 c39 -17
46 -36 14 -36 -20 0 -89 36 -89 46 0 9 43 3 75 -10z m-1387 -108 c-3 -44 -15
-53 -32 -25 -7 10 -6 24 2 41 18 40 34 32 30 -16z m1493 1 c56 -19 107 -79 66
-79 -20 0 -118 70 -112 80 8 12 5 12 46 -1z m-1544 -95 c3 -8 1 -26 -5 -38
-13 -29 -71 -96 -83 -96 -14 0 -10 68 6 100 24 46 70 65 82 34z m-182 -234 c7
-22 -11 -53 -26 -44 -5 3 -9 15 -9 28 0 39 24 50 35 16z m-101 -130 c27 -10
27 -34 1 -44 -19 -7 -60 28 -51 42 9 15 17 15 50 2z m-124 -168 c0 -20 -34
-52 -56 -52 -30 0 -30 7 -2 37 20 22 58 32 58 15z"/>
<path d="M4224 12443 c91 -108 183 -277 209 -383 6 -24 4 -25 -48 -27 -60 -2
-66 3 -85 62 -26 84 -92 195 -142 240 -63 57 -83 58 -31 3 90 -99 137 -193
131 -265 -3 -36 -5 -38 -35 -35 -18 1 -69 -4 -112 -12 -44 -7 -91 -11 -104 -9
-14 3 -55 35 -93 72 -218 213 -551 328 -810 280 -99 -18 -88 -24 39 -21 95 3
145 -1 226 -18 242 -49 452 -165 512 -282 27 -54 25 -65 -12 -60 -17 3 -34 0
-38 -6 -4 -8 -23 0 -53 22 -140 99 -405 166 -656 166 -134 0 -219 -13 -275
-42 -21 -10 -37 -21 -35 -23 1 -1 37 6 78 17 110 28 274 34 392 14 149 -25
343 -100 426 -164 l24 -18 -58 -22 c-58 -21 -59 -21 -79 -2 -65 61 -232 99
-468 107 -198 6 -311 -5 -445 -43 -77 -23 -212 -78 -212 -87 0 -2 36 9 80 24
280 99 804 95 979 -8 l44 -26 -35 -18 c-19 -10 -40 -25 -47 -33 -12 -14 -16
-14 -39 4 -58 46 -121 55 -372 54 -194 0 -257 -4 -360 -22 -140 -24 -209 -43
-245 -66 -37 -24 -30 -38 8 -17 43 26 163 48 327 62 253 21 516 -8 607 -68
l24 -16 -30 -18 c-22 -14 -93 -105 -106 -136 -1 -1 -35 11 -77 27 -192 75
-433 58 -688 -47 -156 -64 -364 -197 -405 -259 -28 -42 -12 -37 55 21 223 188
567 298 856 273 73 -6 198 -39 216 -57 4 -3 2 -23 -4 -44 l-12 -38 -45 8
c-127 22 -358 -1 -538 -53 -230 -66 -406 -158 -524 -274 -61 -60 -119 -139
-119 -163 0 -2 39 35 88 82 183 180 439 310 701 355 174 30 396 13 396 -29 0
-14 -10 -22 -40 -28 -494 -109 -802 -245 -998 -444 -76 -77 -95 -103 -138
-187 -36 -69 -33 -83 5 -25 15 23 65 78 110 123 205 200 491 363 763 432 85
21 253 45 253 36 0 -11 -56 -46 -70 -44 -58 10 -408 -153 -595 -275 -280 -184
-471 -387 -552 -585 -20 -51 -54 -190 -53 -216 1 -4 15 36 33 88 98 288 328
526 724 749 146 82 414 193 430 178 2 -3 -7 -32 -21 -64 -27 -58 -27 -58 -122
-102 -277 -129 -558 -339 -694 -519 -114 -152 -170 -296 -175 -452 -4 -94 -3
-99 5 -45 41 258 142 457 317 626 49 47 124 109 167 138 87 59 282 156 393
195 l72 25 5 -27 c3 -15 8 -46 11 -68 l6 -41 -80 -5 c-70 -4 -93 -10 -168 -48
-277 -137 -606 -662 -621 -990 -2 -52 -2 -93 2 -90 3 4 19 59 35 123 142 548
430 899 777 945 l64 9 33 -62 33 -61 -78 -18 c-127 -28 -229 -86 -329 -185
-169 -168 -292 -409 -374 -732 -35 -139 -30 -142 14 -9 136 407 346 712 563
820 100 49 178 62 208 35 21 -19 27 -45 11 -45 -22 0 -163 -105 -226 -167
-170 -168 -291 -389 -341 -623 -22 -103 -23 -326 -2 -410 l14 -55 7 102 c15
219 69 419 166 618 98 201 227 352 372 437 70 42 68 42 94 -31 l14 -40 -49
-64 c-148 -195 -237 -378 -296 -602 -32 -123 -44 -368 -24 -493 23 -147 99
-341 151 -388 15 -14 13 -4 -11 50 -59 130 -75 219 -75 431 0 210 15 305 77
495 56 174 155 357 247 463 l33 37 52 -42 c28 -23 54 -44 58 -48 4 -3 -1 -55
-12 -115 -40 -232 -52 -356 -57 -580 -4 -183 -2 -253 11 -343 19 -130 63 -271
108 -351 32 -57 166 -201 187 -201 6 0 -12 28 -39 62 -90 112 -157 262 -201
453 -26 117 -37 431 -20 596 17 161 73 424 95 446 7 8 154 -92 213 -145 l41
-37 -15 -65 c-19 -82 -21 -321 -4 -410 44 -230 145 -461 281 -641 53 -69 152
-180 126 -139 -9 14 -42 62 -72 108 -63 94 -170 311 -207 422 -65 190 -91 356
-77 483 9 80 45 186 65 193 7 3 68 -8 136 -25 154 -37 247 -51 339 -51 l72 0
-6 -27 c-15 -67 60 -251 163 -401 110 -159 249 -292 386 -367 l50 -27 -55 47
c-269 233 -456 510 -476 704 l-7 59 69 6 c86 8 352 44 380 52 16 4 26 -2 41
-28 75 -127 255 -249 474 -322 121 -41 177 -48 80 -10 -247 94 -423 221 -489
350 l-21 41 32 31 c36 34 176 132 189 132 5 0 35 -17 66 -38 81 -55 163 -100
212 -117 70 -25 57 -9 -25 31 -74 36 -195 136 -195 161 0 6 24 31 54 57 l54
46 38 -32 c22 -17 64 -42 94 -57 51 -24 65 -26 190 -26 115 0 152 4 248 29 62
15 111 30 109 32 -2 3 -46 -2 -98 -11 -205 -33 -374 -13 -463 55 -66 50 -68
57 -41 136 31 89 53 216 61 353 l7 109 30 6 c72 15 234 162 283 257 32 64 30
71 -4 23 -69 -95 -235 -224 -289 -224 -23 0 -28 10 -38 81 -6 43 -4 51 44 123
60 92 91 171 90 229 0 38 -1 40 -11 17 -52 -128 -144 -289 -157 -274 -4 5 -29
40 -55 77 -143 204 -345 354 -573 424 -82 26 -100 27 -273 27 -290 0 -439 -41
-564 -155 l-66 -61 -26 21 c-46 36 -121 53 -254 56 l-125 4 119 -9 c122 -9
196 -27 228 -57 23 -21 23 -35 -3 -85 -20 -39 -22 -40 -57 -34 -156 26 -215
29 -304 17 -50 -6 -97 -15 -104 -19 -7 -4 69 -7 169 -8 131 0 193 -4 221 -15
64 -23 53 -34 -37 -35 -136 -2 -372 -71 -442 -128 l-30 -25 61 24 c93 37 236
73 346 87 89 11 100 10 115 -5 13 -13 14 -20 6 -28 -8 -8 -9 -18 0 -35 14 -31
7 -36 -78 -58 -148 -37 -258 -112 -334 -225 -61 -90 -58 -90 27 0 118 125 204
173 342 192 l45 7 -40 -22 c-127 -67 -315 -342 -314 -458 0 -31 3 -26 28 40
85 228 215 380 325 380 19 0 37 -4 40 -9 3 -5 -10 -33 -30 -63 -53 -77 -112
-206 -134 -294 -18 -68 -46 -341 -37 -350 7 -8 27 74 52 217 36 211 71 303
147 385 l40 43 56 -61 c32 -33 61 -67 65 -75 5 -8 -1 -77 -13 -161 -34 -236
-27 -431 18 -500 6 -8 12 68 15 185 6 187 23 317 46 362 10 19 12 19 48 2 21
-10 67 -26 103 -36 78 -21 90 -29 90 -64 0 -51 42 -177 89 -266 42 -80 145
-235 157 -235 2 0 -10 24 -27 53 -48 82 -125 247 -143 306 -18 60 -21 147 -7
156 5 3 78 8 163 11 l153 7 13 -31 c7 -17 47 -63 89 -102 93 -87 215 -151 295
-156 l53 -3 -50 10 c-144 30 -330 181 -351 285 -5 28 -1 34 61 82 37 29 73 52
80 52 6 0 20 -10 31 -21 27 -30 91 -56 185 -74 92 -17 225 -20 234 -5 4 6 -7
10 -25 10 -50 0 -179 30 -246 56 -34 14 -80 41 -102 60 l-41 35 29 45 c82 130
57 281 -70 404 -38 38 -86 72 -133 95 -89 42 -123 46 -49 6 28 -16 65 -40 81
-53 16 -12 46 -34 66 -48 43 -30 98 -102 114 -149 19 -59 13 -121 -19 -189
-87 -184 -351 -309 -548 -258 -70 18 -195 77 -281 133 -204 135 -285 354 -186
509 87 136 227 235 412 290 119 36 325 38 448 5 146 -39 307 -134 438 -260
228 -218 283 -591 129 -884 -40 -78 -212 -272 -280 -317 -207 -137 -673 -201
-994 -136 -206 42 -326 86 -421 155 -254 183 -408 367 -474 566 -24 73 -27 94
-27 235 -1 181 17 264 88 416 57 121 113 201 208 300 107 111 192 166 322 209
410 134 843 123 1223 -30 96 -39 423 -222 576 -323 120 -79 234 -184 297 -274
54 -77 140 -262 195 -418 62 -178 86 -291 92 -436 6 -137 3 -155 -63 -408 -40
-151 -134 -323 -262 -476 -125 -151 -291 -293 -532 -454 -63 -42 -153 -104
-200 -137 -210 -149 -486 -251 -854 -314 -83 -14 -207 -35 -276 -47 -148 -26
-301 -28 -375 -5 -41 13 -46 13 -31 2 20 -15 83 -40 126 -49 19 -4 33 -22 57
-73 50 -108 144 -226 317 -398 481 -479 1163 -904 1701 -1060 49 -14 89 -24
91 -22 2 1 -50 25 -114 51 -471 195 -940 481 -1357 827 -180 149 -661 646
-643 664 2 2 29 7 59 10 l54 6 119 -128 c662 -712 1436 -1191 2001 -1237 l70
-6 -91 20 c-395 86 -914 388 -1474 858 -168 141 -390 346 -465 430 -40 45 -44
52 -26 52 13 0 45 -26 84 -66 116 -124 423 -369 697 -556 436 -299 796 -484
1065 -549 130 -31 154 -23 45 15 -538 187 -1141 576 -1696 1094 l-99 92 38 0
c50 0 54 -2 220 -133 559 -441 1105 -775 1450 -888 143 -47 198 -51 72 -5
-254 92 -736 375 -1170 686 -227 163 -415 317 -415 341 0 3 24 9 53 12 29 4
81 18 117 32 l65 26 25 -33 c167 -221 535 -482 1030 -732 253 -128 574 -265
588 -252 2 3 -141 77 -319 165 -616 303 -937 501 -1136 700 -65 65 -133 153
-133 172 0 9 87 39 116 39 14 0 47 -26 95 -76 137 -142 443 -372 721 -544 302
-186 570 -302 723 -315 l70 -5 -85 24 c-344 99 -778 364 -1307 798 -104 86
-112 96 -113 128 0 50 24 80 64 80 41 0 65 -18 209 -150 455 -421 840 -656
1243 -760 64 -17 118 -29 120 -27 2 2 -60 25 -139 51 -327 108 -649 288 -949
528 -249 200 -398 343 -398 384 0 8 9 14 20 14 37 0 84 -27 165 -95 507 -427
1015 -680 1405 -700 l95 -5 -101 15 c-415 60 -802 252 -1195 593 -200 174
-209 183 -209 231 0 79 85 136 151 100 11 -6 68 -44 126 -86 334 -238 674
-403 943 -457 91 -18 289 -40 316 -34 10 2 -23 10 -74 16 -354 47 -766 240
-1127 529 -55 44 -106 78 -113 75 -20 -6 -14 43 10 73 19 24 26 27 64 22 34
-3 66 -21 147 -80 352 -255 683 -386 1012 -401 109 -5 109 -5 30 5 -178 22
-275 41 -387 79 -203 68 -441 201 -621 348 -102 83 -104 87 -73 107 25 17 27
16 94 -29 285 -189 641 -300 1002 -311 152 -5 149 -1 -22 29 -215 39 -556 154
-773 260 -144 71 -215 124 -215 161 0 37 14 37 75 0 102 -61 283 -130 507
-194 266 -76 595 -135 633 -114 13 8 2 12 -46 17 -229 26 -668 144 -826 222
-91 45 -163 110 -163 147 0 46 24 47 128 5 309 -125 690 -193 933 -168 117 12
214 34 274 62 23 10 29 16 15 13 -14 -3 -50 -11 -80 -17 -84 -19 -395 -15
-515 6 -211 36 -422 99 -557 167 -76 38 -78 40 -78 77 0 48 41 133 130 271 39
61 73 116 75 123 4 10 42 13 148 13 202 1 371 41 547 130 102 51 153 87 233
164 85 82 109 121 36 59 -160 -136 -418 -248 -651 -282 -114 -17 -162 -19
-220 -10 l-38 7 0 64 c0 35 12 144 26 241 19 133 24 196 19 255 l-6 77 31 18
c239 131 328 211 403 363 26 53 47 100 47 105 0 5 -19 -20 -42 -56 -82 -127
-245 -269 -374 -326 -45 -20 -102 -32 -105 -21 0 1 -4 40 -8 86 l-8 85 75 88
c149 173 264 356 291 463 5 23 6 34 0 25 -5 -8 -35 -57 -67 -107 -86 -139
-138 -207 -235 -307 -62 -63 -83 -80 -69 -56 141 252 230 441 252 541 20 89 7
90 -24 3 -32 -92 -121 -273 -164 -336 -35 -51 -126 -138 -144 -138 -7 0 -24
26 -38 57 -46 106 -146 247 -312 440 l-88 102 19 33 c60 102 75 234 45 371
-22 96 -30 101 -26 15 7 -137 -35 -331 -82 -381 -31 -34 -38 -34 -79 2 l-33
30 9 83 c14 137 0 325 -34 451 -19 72 -19 32 1 -63 24 -115 25 -215 5 -295
-17 -65 -53 -135 -69 -135 -6 0 -91 46 -189 103 l-179 102 -4 64 c-9 153 -105
348 -207 422 -56 41 -66 36 -22 -12 53 -59 111 -153 131 -211 20 -61 23 -163
5 -205 -12 -29 -13 -30 -55 -20 -43 10 -44 11 -60 71 -38 134 -111 262 -216
376 -49 53 -45 44 31 -73 32 -48 67 -113 79 -145 25 -66 55 -191 47 -198 -3
-3 -19 -1 -37 3 -30 8 -37 19 -99 158 -75 170 -99 212 -155 273 -52 56 -65 54
-20 -5 49 -64 106 -180 148 -301 l35 -102 -27 0 c-38 0 -46 8 -71 65 -55 125
-286 425 -327 425 -9 0 13 -33 50 -77z"/>
<path d="M3722 12467 c166 -86 339 -222 395 -312 24 -38 2 36 -26 89 -60 114
-248 231 -416 260 -34 6 -28 1 47 -37z"/>
<path d="M2727 11744 c-102 -18 -208 -54 -305 -103 -122 -61 -308 -208 -289
-228 4 -4 31 16 60 44 79 77 235 177 331 211 197 72 404 86 691 47 76 -10 3
12 -95 29 -113 19 -286 19 -393 0z"/>
<path d="M4415 11410 c-47 -11 -106 -39 -140 -64 -28 -21 -33 -22 -50 -9 -28
21 -91 10 -167 -28 -57 -29 -119 -69 -105 -69 3 0 40 16 82 37 94 44 160 53
194 26 22 -18 23 -23 16 -95 l-7 -76 -39 -18 c-50 -22 -103 -74 -129 -124 -28
-56 -25 -58 13 -8 88 116 195 126 297 27 31 -30 39 -44 35 -62 -8 -31 28 -124
66 -169 42 -52 51 -48 23 10 -15 30 -25 69 -26 107 l-3 60 71 1 c60 0 80 5
125 31 92 51 112 126 61 224 -22 43 -38 59 -82 82 -47 25 -63 28 -111 24 -91
-8 -149 -50 -134 -97 7 -22 74 -65 118 -75 25 -7 27 -5 27 21 0 28 -1 29 -45
26 -40 -4 -45 -2 -45 17 0 29 43 71 72 71 47 0 97 -21 142 -61 97 -86 72 -175
-61 -215 -81 -24 -223 17 -286 84 -64 67 -52 177 28 251 52 48 79 61 155 71
l55 7 -60 1 c-33 0 -73 -3 -90 -8z"/>
<path d="M7081 9793 c-141 -59 -249 -77 -451 -77 -113 1 -212 7 -280 17 -58
10 -121 19 -140 22 -85 11 57 -25 175 -45 218 -37 439 -26 604 30 65 22 181
76 181 85 0 3 -1 4 -2 4 -2 -1 -41 -17 -87 -36z"/>
<path d="M2301 9634 c0 -11 3 -14 6 -6 3 7 2 16 -1 19 -3 4 -6 -2 -5 -13z"/>
<path d="M5147 8903 c-13 -13 -6 -21 61 -75 198 -160 450 -317 707 -443 155
-76 362 -161 371 -153 2 2 -38 21 -89 42 -122 51 -419 200 -532 266 -159 94
-321 208 -409 290 -85 79 -96 87 -109 73z"/>
<path d="M6457 7173 c-4 -3 -7 -11 -7 -17 0 -6 5 -5 12 2 6 6 9 14 7 17 -3 3
-9 2 -12 -2z"/>
<path d="M6920 6175 c0 -8 4 -15 10 -15 5 0 7 7 4 15 -4 8 -8 15 -10 15 -2 0
-4 -7 -4 -15z"/>
<path d="M2058 9043 c6 -2 18 -2 25 0 6 3 1 5 -13 5 -14 0 -19 -2 -12 -5z"/>
<path d="M2418 8593 c7 -3 16 -2 19 1 4 3 -2 6 -13 5 -11 0 -14 -3 -6 -6z"/>
<path d="M3028 8033 c7 -3 16 -2 19 1 4 3 -2 6 -13 5 -11 0 -14 -3 -6 -6z"/>
<path d="M2485 7600 c-3 -6 1 -7 9 -4 18 7 21 14 7 14 -6 0 -13 -4 -16 -10z"/>
<path d="M4745 6810 c-23 -5 -26 -9 -14 -14 26 -11 112 -3 117 12 4 13 -51 15
-103 2z"/>
<path d="M4571 6164 c0 -11 3 -14 6 -6 3 7 2 16 -1 19 -3 4 -6 -2 -5 -13z"/>
<path d="M7450 4451 c0 -5 5 -13 10 -16 6 -3 10 -2 10 4 0 5 -4 13 -10 16 -5
3 -10 2 -10 -4z"/>
<path d="M1445 8603 c15 -38 17 -83 5 -98 -10 -12 -9 -16 3 -21 9 -3 20 -31
28 -71 14 -68 21 -66 34 9 3 21 17 50 30 66 l24 28 -35 13 c-22 8 -44 27 -59
52 -26 40 -42 52 -30 22z"/>
<path d="M1598 8513 c6 -2 18 -2 25 0 6 3 1 5 -13 5 -14 0 -19 -2 -12 -5z"/>
<path d="M1030 8340 c-9 -6 -10 -10 -3 -10 6 0 15 5 18 10 8 12 4 12 -15 0z"/>
<path d="M1370 8331 c0 -5 5 -13 10 -16 6 -3 10 -2 10 4 0 5 -4 13 -10 16 -5
3 -10 2 -10 -4z"/>
<path d="M895 8290 c6 -10 125 -80 195 -115 66 -33 59 -24 -39 45 -64 45 -170
93 -156 70z"/>
<path d="M1560 7509 c0 -26 37 -115 45 -108 5 6 -28 115 -38 125 -4 4 -7 -4
-7 -17z"/>
</g>
</svg>
