<?xml version="1.0" encoding="UTF-8" standalone="no"?>
<svg
   width="526.28998"
   height="28.389999"
   viewBox="-120.83847 40.380996 526.28998 28.39"
   preserveAspectRatio="xMidYMid"
   version="1.1"
   id="svg4"
   xmlns="http://www.w3.org/2000/svg"
   xmlns:svg="http://www.w3.org/2000/svg">
  <defs
     id="defs3">
    <filter
       id="editing-hover"
       x="-0.00038030767"
       y="-0.0035473572"
       width="1.0007606"
       height="1.0070947">
      <feFlood
         flood-color="#bfd8af"
         result="flood"
         id="feFlood1" />
      <feComposite
         operator="in"
         in2="SourceAlpha"
         in="flood"
         result="shadow"
         id="feComposite1" />
      <feOffset
         dx="0.2"
         dy="0.1"
         in="SourceGraphic"
         result="offset-1"
         id="feOffset1" />
      <feOffset
         dx="-0.2"
         dy="-0.1"
         in="shadow"
         result="offset-2"
         id="feOffset2" />
      <feMerge
         id="feMerge3">
        <feMergeNode
           in="offset-2"
           id="feMergeNode2" />
        <feMergeNode
           in="offset-1"
           id="feMergeNode3" />
      </feMerge>
    </filter>
  </defs>
  <g
     filter="url(#editing-hover)"
     id="g4"
     transform="translate(-107.69344,-27.340747)">
    <g
       transform="translate(-14.315027,89.091744)"
       id="g3">
      <path
         d="m 1.37,-11.81 v -2.35 h 4.51 v 1.65 h 0.03 v 0 q 0.46,-0.4 0.97,-0.74 v 0 0 q 0.52,-0.35 1.08,-0.61 v 0 0 q 0.56,-0.26 1.17,-0.41 v 0 0 q 0.6,-0.15 1.26,-0.15 v 0 0 q 1.53,0 2.64,0.56 v 0 0 q 1.11,0.57 1.71,1.77 v 0 0 q 0.52,-0.46 1.09,-0.89 v 0 0 q 0.58,-0.43 1.2,-0.75 v 0 0 q 0.62,-0.31 1.3,-0.5 v 0 0 q 0.69,-0.19 1.43,-0.19 v 0 0 q 1.14,0 2.06,0.31 v 0 0 q 0.92,0.32 1.56,0.96 v 0 0 q 0.64,0.64 0.98,1.65 v 0 0 q 0.33,1 0.33,2.37 v 0 6.78 h 1.97 V 0 h -6.62 v -2.35 h 2 v -6.47 0 q 0,-1.63 -0.82,-2.47 v 0 0 q -0.82,-0.84 -2.37,-0.84 v 0 0 q -0.91,0 -1.87,0.44 v 0 0 q -0.96,0.44 -1.64,1.11 v 0 8.23 h 1.95 V 0 h -6.6 v -2.35 h 2 v -6.47 0 q 0,-1.63 -0.83,-2.47 v 0 0 q -0.83,-0.84 -2.37,-0.84 v 0 0 q -0.89,0 -1.79,0.43 v 0 0 q -0.91,0.42 -1.71,1.05 v 0 8.3 H 7.98 V 0 H 1.37 v -2.35 h 1.97 v -9.46 z M 37.72,0 v -1.31 0 q -0.81,0.75 -1.78,1.23 v 0 0 Q 34.96,0.4 33.71,0.4 v 0 0 q -1.03,0 -1.9,-0.33 v 0 0 q -0.87,-0.33 -1.5,-0.9 v 0 0 q -0.63,-0.56 -0.98,-1.32 v 0 0 q -0.35,-0.75 -0.35,-1.6 v 0 0 q 0,-0.9 0.27,-1.6 v 0 0 q 0.27,-0.69 0.71,-1.21 v 0 0 Q 30.41,-7.07 31,-7.42 v 0 0 q 0.6,-0.35 1.25,-0.56 v 0 0 q 0.64,-0.21 1.32,-0.3 v 0 0 q 0.68,-0.09 1.29,-0.09 v 0 0 q 0.99,0 1.66,0.06 v 0 0 q 0.67,0.07 1.21,0.18 v 0 l 0.02,-1.17 v 0 q 0,-0.75 -0.22,-1.3 v 0 0 q -0.22,-0.56 -0.62,-0.92 v 0 0 q -0.39,-0.36 -0.95,-0.54 v 0 0 q -0.55,-0.18 -1.23,-0.18 v 0 0 q -0.65,0 -1.23,0.09 v 0 0 q -0.59,0.09 -1.1,0.23 v 0 0 q -0.52,0.15 -0.95,0.33 v 0 0 q -0.43,0.19 -0.73,0.39 v 0 l -0.83,-1.76 v 0 q 0.5,-0.33 1.1,-0.61 v 0 0 q 0.61,-0.28 1.27,-0.48 v 0 0 q 0.66,-0.2 1.35,-0.31 v 0 0 q 0.69,-0.12 1.36,-0.12 v 0 0 q 1.23,0 2.22,0.3 v 0 0 q 0.98,0.29 1.67,0.9 v 0 0 q 0.68,0.62 1.05,1.57 v 0 0 q 0.37,0.95 0.37,2.28 v 0 l -0.02,7.08 h 1.58 V 0 Z m -3.44,-1.74 v 0 0 q 0.5,0 1.01,-0.12 v 0 0 q 0.5,-0.12 0.95,-0.33 v 0 0 q 0.46,-0.22 0.84,-0.5 v 0 0 q 0.38,-0.28 0.64,-0.58 v 0 l 0.01,-3.2 h -2.95 v 0 q -0.74,0 -1.35,0.17 v 0 0 q -0.6,0.16 -1.05,0.48 v 0 0 q -0.44,0.31 -0.69,0.78 v 0 0 q -0.24,0.46 -0.24,1.06 v 0 0 q 0,0.56 0.2,0.98 v 0 0 q 0.21,0.42 0.58,0.7 v 0 0 q 0.38,0.28 0.9,0.42 v 0 0 q 0.52,0.14 1.15,0.14 z m 18.96,-10.07 v -2.35 h 4.56 v 11.81 h 1.58 V 0 h -4.13 v -1.31 0 q -0.96,0.74 -2.09,1.15 v 0 0 q -1.12,0.41 -2.41,0.41 v 0 0 q -1.07,0 -1.93,-0.31 v 0 0 q -0.87,-0.31 -1.48,-0.96 v 0 0 Q 46.73,-1.67 46.4,-2.67 v 0 0 q -0.33,-0.99 -0.33,-2.37 v 0 -6.77 h -1.91 v -2.35 h 4.57 v 8.81 0 q 0,1.63 0.75,2.47 v 0 0 q 0.75,0.83 2.16,0.83 v 0 0 q 0.83,0 1.76,-0.3 v 0 0 q 0.92,-0.3 1.74,-0.84 v 0 -8.62 z m 20.11,-2.44 v 3.08 h -2.6 v -0.87 0 q -0.45,0 -0.92,0.17 v 0 0 q -0.47,0.17 -0.88,0.52 v 0 0 q -0.41,0.34 -0.72,0.88 v 0 0 q -0.31,0.54 -0.44,1.28 v 0 6.84 h 2.4 V 0 h -7.03 v -2.35 h 1.96 l 0.01,-9.46 h -1.97 v -2.35 h 4.53 v 1.95 0 q 0.25,-0.44 0.55,-0.81 v 0 0 q 0.31,-0.38 0.69,-0.66 v 0 0 q 0.37,-0.28 0.83,-0.44 v 0 0 q 0.46,-0.15 0.99,-0.15 v 0 0 q 0.71,0 1.34,0 v 0 0 q 0.63,0 1.26,0.02 z m 2.83,2.44 v -2.35 h 4.62 v 11.81 h 2.13 V 0 h -6.72 v -2.35 h 2.02 v -9.46 z m 1.57,-7.37 v 0 0 q 0,-0.36 0.15,-0.68 v 0 0 q 0.14,-0.32 0.38,-0.56 v 0 0 q 0.24,-0.24 0.57,-0.38 v 0 0 q 0.32,-0.15 0.69,-0.15 v 0 0 q 0.36,0 0.68,0.15 v 0 0 q 0.32,0.14 0.56,0.38 v 0 0 q 0.24,0.24 0.38,0.56 v 0 0 q 0.15,0.32 0.15,0.68 v 0 0 q 0,0.37 -0.15,0.7 v 0 0 q -0.14,0.32 -0.38,0.58 v 0 0 q -0.24,0.25 -0.56,0.39 v 0 0 q -0.32,0.15 -0.68,0.15 v 0 0 q -0.37,0 -0.69,-0.15 v 0 0 q -0.33,-0.14 -0.57,-0.39 v 0 0 q -0.24,-0.26 -0.38,-0.58 v 0 0 q -0.15,-0.33 -0.15,-0.7 z m 20.32,8.79 H 95.5 v 0 q -0.58,-1.03 -1.46,-1.5 v 0 0 Q 93.16,-12.37 92,-12.37 v 0 0 q -0.89,0 -1.67,0.37 v 0 0 q -0.78,0.37 -1.36,1.05 v 0 0 q -0.58,0.68 -0.92,1.66 v 0 0 q -0.33,0.98 -0.33,2.18 v 0 0 q 0,1.19 0.33,2.15 v 0 0 q 0.34,0.95 0.93,1.63 v 0 0 q 0.58,0.68 1.36,1.04 v 0 0 q 0.77,0.36 1.66,0.36 v 0 0 q 1.31,0 2.28,-0.63 v 0 0 q 0.97,-0.64 1.55,-1.87 v 0 l 2.1,1.04 v 0 q -0.41,0.87 -1.01,1.57 v 0 0 q -0.6,0.7 -1.36,1.19 v 0 0 q -0.76,0.49 -1.67,0.76 v 0 0 Q 92.98,0.4 91.97,0.4 v 0 0 q -1.48,0 -2.73,-0.56 v 0 0 q -1.25,-0.55 -2.16,-1.55 v 0 0 q -0.91,-1 -1.41,-2.38 v 0 0 q -0.51,-1.38 -0.51,-3.02 v 0 0 q 0,-1.64 0.54,-3.02 v 0 0 q 0.53,-1.38 1.46,-2.37 v 0 0 q 0.93,-0.99 2.17,-1.55 v 0 0 q 1.25,-0.57 2.67,-0.57 v 0 0 q 1.34,0 2.53,0.47 v 0 0 q 1.2,0.46 2.1,1.41 v 0 h 1.44 z m 15.09,3.64 h -10.2 v 0 q 0,0.6 0.09,1.1 v 0 0 q 0.09,0.5 0.25,0.95 v 0 0 q 0.51,1.36 1.62,2.05 v 0 0 q 1.12,0.69 2.53,0.69 v 0 0 q 1.1,0 2.15,-0.3 v 0 0 q 1.05,-0.31 2.19,-0.97 v 0 l 1.03,1.74 v 0 q -1.39,0.96 -2.8,1.42 v 0 0 q -1.41,0.47 -2.93,0.47 v 0 0 q -1.43,0 -2.66,-0.48 v 0 0 q -1.22,-0.48 -2.1,-1.42 v 0 0 q -0.88,-0.95 -1.38,-2.36 v 0 0 q -0.5,-1.4 -0.5,-3.28 v 0 0 q 0,-1.51 0.42,-2.86 v 0 0 q 0.42,-1.35 1.27,-2.35 v 0 0 q 0.84,-1.01 2.08,-1.6 v 0 0 q 1.24,-0.58 2.9,-0.58 v 0 0 q 1.6,0 2.67,0.48 v 0 0 q 1.08,0.49 1.75,1.29 v 0 0 q 0.68,0.8 1.03,1.82 v 0 0 q 0.35,1.03 0.48,2.09 v 0 0 q 0.07,0.52 0.09,1.06 v 0 0 q 0.02,0.53 0.02,1.04 z m -6.22,-5.65 v 0 0 q -0.89,0 -1.55,0.25 v 0 0 q -0.66,0.26 -1.13,0.73 v 0 0 q -0.46,0.47 -0.74,1.15 v 0 0 q -0.28,0.69 -0.42,1.53 v 0 h 7.34 v 0 q -0.05,-0.79 -0.25,-1.46 v 0 0 q -0.2,-0.67 -0.61,-1.16 v 0 0 q -0.41,-0.49 -1.05,-0.77 v 0 0 q -0.65,-0.27 -1.59,-0.27 z m 9.63,10.75 v 0 0 q 0,-0.36 0.14,-0.68 v 0 0 q 0.14,-0.32 0.39,-0.56 v 0 0 q 0.25,-0.24 0.57,-0.38 v 0 0 q 0.32,-0.15 0.69,-0.15 v 0 0 q 0.35,0 0.67,0.15 v 0 0 q 0.33,0.14 0.56,0.38 v 0 0 q 0.24,0.24 0.39,0.56 v 0 0 q 0.14,0.32 0.14,0.68 v 0 0 q 0,0.36 -0.14,0.69 v 0 0 q -0.15,0.33 -0.39,0.58 v 0 0 q -0.23,0.26 -0.56,0.4 v 0 0 q -0.32,0.14 -0.67,0.14 v 0 0 q -0.37,0 -0.69,-0.14 v 0 0 q -0.32,-0.14 -0.57,-0.4 v 0 0 q -0.25,-0.25 -0.39,-0.58 v 0 0 q -0.14,-0.33 -0.14,-0.69 z m 16.47,-12.6 v 3.08 h -2.6 v -0.87 0 q -0.45,0 -0.92,0.17 v 0 0 q -0.47,0.17 -0.88,0.52 v 0 0 q -0.41,0.34 -0.72,0.88 v 0 0 q -0.31,0.54 -0.44,1.28 v 0 6.84 h 2.4 V 0 h -7.02 v -2.35 h 1.95 l 0.01,-9.46 h -1.96 v -2.35 h 4.52 v 1.95 0 q 0.25,-0.44 0.55,-0.81 v 0 0 q 0.31,-0.38 0.69,-0.66 v 0 0 q 0.37,-0.28 0.83,-0.44 v 0 0 q 0.46,-0.15 0.99,-0.15 v 0 0 q 0.71,0 1.34,0 v 0 0 q 0.63,0 1.26,0.02 z m 2.75,7.17 v 0 0 q 0.01,-1.68 0.54,-3.06 v 0 0 q 0.53,-1.39 1.47,-2.38 v 0 0 q 0.94,-0.99 2.24,-1.52 v 0 0 q 1.3,-0.53 2.86,-0.53 v 0 0 q 1.57,0 2.88,0.53 v 0 0 q 1.3,0.53 2.23,1.51 v 0 0 q 0.93,0.98 1.45,2.36 v 0 0 q 0.52,1.38 0.52,3.06 v 0 0 q 0,1.65 -0.52,3.04 v 0 0 q -0.52,1.39 -1.45,2.39 v 0 0 q -0.93,1 -2.23,1.55 v 0 0 q -1.31,0.55 -2.88,0.55 v 0 0 q -1.6,0 -2.9,-0.54 v 0 0 q -1.3,-0.55 -2.23,-1.54 v 0 0 q -0.93,-0.99 -1.45,-2.37 v 0 0 q -0.52,-1.38 -0.53,-3.05 z m 2.69,0 v 0 0 q 0,1.21 0.35,2.2 v 0 0 q 0.35,0.98 0.96,1.67 v 0 0 q 0.61,0.69 1.41,1.07 v 0 0 q 0.8,0.38 1.7,0.38 v 0 0 q 0.94,0 1.76,-0.37 v 0 0 q 0.81,-0.37 1.41,-1.06 v 0 0 q 0.6,-0.69 0.94,-1.68 v 0 0 q 0.35,-0.98 0.35,-2.21 v 0 0 q 0,-1.29 -0.35,-2.29 v 0 0 q -0.34,-0.99 -0.93,-1.66 v 0 0 q -0.6,-0.67 -1.42,-1.01 v 0 0 q -0.82,-0.35 -1.76,-0.35 v 0 0 q -0.9,0 -1.7,0.35 v 0 0 q -0.8,0.34 -1.41,1.01 v 0 0 q -0.61,0.67 -0.96,1.66 v 0 0 q -0.35,1 -0.35,2.29 z m 22.42,-3.28 v 0 q 0,-0.58 -0.26,-0.98 v 0 0 q -0.27,-0.4 -0.69,-0.66 v 0 0 q -0.43,-0.25 -0.95,-0.37 v 0 0 q -0.52,-0.11 -1.01,-0.11 v 0 0 q -0.54,0 -1,0.12 v 0 0 q -0.46,0.12 -0.79,0.36 v 0 0 q -0.33,0.23 -0.51,0.56 v 0 0 q -0.19,0.34 -0.19,0.75 v 0 0 q 0,0.71 0.43,1.13 v 0 0 q 0.44,0.41 1.45,0.77 v 0 l 2.72,0.96 v 0 q 1.75,0.58 2.55,1.6 v 0 0 q 0.81,1.01 0.81,2.42 v 0 0 q 0,0.94 -0.38,1.73 v 0 0 q -0.37,0.78 -1.06,1.33 v 0 0 q -0.69,0.56 -1.66,0.87 v 0 0 q -0.97,0.3 -2.16,0.3 v 0 0 q -1.66,0 -2.7,-0.53 v 0 0 q -1.04,-0.53 -1.6,-1.41 v 0 h -1.42 v -2.35 h 2.83 v 0 q 0,0.59 0.26,1.01 v 0 0 q 0.25,0.41 0.67,0.67 v 0 0 q 0.41,0.26 0.94,0.39 v 0 0 q 0.53,0.12 1.07,0.12 v 0 0 q 0.54,0 1.03,-0.13 v 0 0 q 0.49,-0.13 0.87,-0.38 v 0 0 q 0.37,-0.26 0.59,-0.61 v 0 0 q 0.22,-0.36 0.22,-0.81 v 0 0 q 0,-0.68 -0.45,-1.16 v 0 0 Q 160.07,-5.25 159,-5.63 v 0 l -2.7,-1.01 v 0 q -1.66,-0.59 -2.46,-1.5 v 0 0 q -0.8,-0.91 -0.8,-2.28 v 0 0 q 0,-0.9 0.34,-1.67 v 0 0 q 0.33,-0.76 0.97,-1.32 v 0 0 q 0.63,-0.55 1.55,-0.86 v 0 0 q 0.92,-0.32 2.09,-0.32 v 0 0 q 1.52,0 2.55,0.43 v 0 0 q 1.02,0.42 1.84,1.45 v 0 h 1.33 v 2.35 z m 13.58,0 v 0 q 0,-0.58 -0.27,-0.98 v 0 0 q -0.26,-0.4 -0.69,-0.66 v 0 0 q -0.42,-0.25 -0.94,-0.37 v 0 0 q -0.52,-0.11 -1.01,-0.11 v 0 0 q -0.55,0 -1.01,0.12 v 0 0 q -0.45,0.12 -0.78,0.36 v 0 0 q -0.33,0.23 -0.52,0.56 v 0 0 q -0.18,0.34 -0.18,0.75 v 0 0 q 0,0.71 0.43,1.13 v 0 0 q 0.43,0.41 1.44,0.77 v 0 l 2.72,0.96 v 0 q 1.75,0.58 2.56,1.6 v 0 0 q 0.81,1.01 0.81,2.42 v 0 0 q 0,0.94 -0.38,1.73 v 0 0 q -0.37,0.78 -1.07,1.33 v 0 0 q -0.69,0.56 -1.66,0.87 v 0 0 q -0.97,0.3 -2.16,0.3 v 0 0 q -1.65,0 -2.69,-0.53 v 0 0 q -1.04,-0.53 -1.6,-1.41 v 0 h -1.42 v -2.35 h 2.83 v 0 q 0,0.59 0.25,1.01 v 0 0 q 0.25,0.41 0.67,0.67 v 0 0 q 0.42,0.26 0.94,0.39 v 0 0 q 0.53,0.12 1.08,0.12 v 0 0 q 0.53,0 1.02,-0.13 v 0 0 q 0.5,-0.13 0.87,-0.38 v 0 0 q 0.38,-0.26 0.6,-0.61 v 0 0 q 0.22,-0.36 0.22,-0.81 v 0 0 q 0,-0.68 -0.45,-1.16 v 0 0 q -0.44,-0.48 -1.51,-0.86 v 0 l -2.71,-1.01 v 0 q -1.65,-0.59 -2.45,-1.5 v 0 0 q -0.8,-0.91 -0.8,-2.28 v 0 0 q 0,-0.9 0.33,-1.67 v 0 0 q 0.34,-0.76 0.97,-1.32 v 0 0 q 0.64,-0.55 1.56,-0.86 v 0 0 q 0.91,-0.32 2.09,-0.32 v 0 0 q 1.52,0 2.54,0.43 v 0 0 q 1.03,0.42 1.85,1.45 v 0 h 1.32 v 2.35 z m 5.29,-1.45 v -2.35 h 4.62 v 11.81 h 2.14 V 0 h -6.73 v -2.35 h 2.02 v -9.46 z m 1.57,-7.37 v 0 0 q 0,-0.36 0.15,-0.68 v 0 0 q 0.14,-0.32 0.38,-0.56 v 0 0 q 0.24,-0.24 0.57,-0.38 v 0 0 q 0.33,-0.15 0.69,-0.15 v 0 0 q 0.36,0 0.68,0.15 v 0 0 q 0.32,0.14 0.56,0.38 v 0 0 q 0.24,0.24 0.38,0.56 v 0 0 q 0.15,0.32 0.15,0.68 v 0 0 q 0,0.37 -0.15,0.7 v 0 0 q -0.14,0.32 -0.38,0.58 v 0 0 q -0.24,0.25 -0.56,0.39 v 0 0 q -0.32,0.15 -0.68,0.15 v 0 0 q -0.36,0 -0.69,-0.15 v 0 0 q -0.33,-0.14 -0.57,-0.39 v 0 0 q -0.24,-0.26 -0.38,-0.58 v 0 0 q -0.15,-0.33 -0.15,-0.7 z m 25.37,6.11 h 2.51 v 9.06 0 q 0,0.84 0.24,1.26 v 0 0 q 0.24,0.43 0.57,0.62 v 0 0 q 0.33,0.2 0.83,0.2 v 0 0 q 1.01,0 1.68,-0.55 v 0 0 q 0.67,-0.56 1.07,-1.33 v 0 0 q 0.4,-0.78 0.55,-1.61 v 0 0 q 0.16,-0.83 0.16,-2.06 v 0 0 q 0,-1.39 -0.4,-2.7 v 0 0 q -0.39,-1.3 -1.11,-2.46 v 0 0 q -0.72,-1.15 -1.73,-2.12 v 0 0 q -1.01,-0.96 -2.26,-1.65 v 0 0 q -1.24,-0.69 -2.68,-1.08 v 0 0 q -1.43,-0.38 -2.99,-0.38 v 0 0 q -1.54,0 -2.97,0.4 v 0 0 q -1.43,0.39 -2.67,1.12 v 0 0 q -1.24,0.72 -2.26,1.73 v 0 0 q -1.01,1.02 -1.73,2.25 v 0 0 q -0.72,1.24 -1.12,2.66 v 0 0 q -0.39,1.42 -0.39,2.96 v 0 0 q 0,1.54 0.39,2.97 v 0 0 q 0.4,1.43 1.12,2.67 v 0 0 q 0.72,1.25 1.73,2.26 v 0 0 q 1.02,1.01 2.26,1.73 v 0 0 q 1.24,0.73 2.67,1.13 v 0 0 q 1.43,0.39 2.97,0.39 v 0 0 q 1.57,0 3.04,-0.41 v 0 0 q 1.46,-0.42 2.73,-1.19 v 0 l 1.29,2.15 v 0 q -1.55,0.94 -3.33,1.46 v 0 0 q -1.79,0.51 -3.73,0.51 v 0 0 q -1.89,0 -3.64,-0.49 v 0 0 q -1.75,-0.48 -3.26,-1.37 v 0 0 q -1.52,-0.89 -2.77,-2.14 v 0 0 q -1.25,-1.25 -2.14,-2.77 v 0 0 q -0.89,-1.52 -1.38,-3.27 v 0 0 q -0.48,-1.75 -0.48,-3.63 v 0 0 q 0,-1.88 0.48,-3.62 v 0 0 q 0.49,-1.74 1.38,-3.26 v 0 0 q 0.89,-1.52 2.14,-2.76 v 0 0 q 1.25,-1.25 2.77,-2.14 v 0 0 q 1.51,-0.88 3.26,-1.37 v 0 0 q 1.75,-0.48 3.64,-0.48 v 0 0 q 1.91,0 3.67,0.47 v 0 0 q 1.76,0.47 3.28,1.32 v 0 0 q 1.51,0.84 2.76,2.03 v 0 0 q 1.24,1.19 2.12,2.63 v 0 0 q 0.89,1.43 1.37,3.07 v 0 0 q 0.49,1.63 0.49,3.38 v 0 0 q 0,0.93 -0.18,1.87 v 0 0 q -0.18,0.95 -0.53,1.81 v 0 0 q -0.36,0.86 -0.87,1.61 v 0 0 q -0.52,0.75 -1.19,1.31 v 0 0 q -0.68,0.55 -1.5,0.87 v 0 0 q -0.82,0.32 -1.78,0.32 v 0 0 q -1.25,0 -2.1,-0.54 v 0 0 q -0.85,-0.55 -1.33,-1.41 v 0 0 q -0.86,0.71 -1.94,1.11 v 0 0 q -1.08,0.39 -2.32,0.39 v 0 0 q -1.44,0 -2.64,-0.5 v 0 0 q -1.19,-0.49 -2.07,-1.37 v 0 0 q -0.87,-0.87 -1.36,-2.04 v 0 0 q -0.48,-1.16 -0.48,-2.5 v 0 0 q 0,-1.33 0.5,-2.49 v 0 0 q 0.51,-1.17 1.39,-2.05 v 0 0 q 0.88,-0.87 2.08,-1.39 v 0 0 q 1.19,-0.51 2.58,-0.51 v 0 0 q 0.99,0 1.91,0.28 v 0 0 q 0.92,0.27 1.7,0.77 v 0 z m -3.61,10.4 v 0 0 q 1.28,0 2.21,-0.59 v 0 0 q 0.93,-0.6 1.4,-1.54 v 0 -3.46 0 q -0.24,-0.48 -0.6,-0.89 v 0 0 q -0.36,-0.41 -0.83,-0.7 v 0 0 q -0.46,-0.29 -1.02,-0.46 v 0 0 q -0.55,-0.16 -1.16,-0.16 v 0 0 q -0.88,0 -1.62,0.31 v 0 0 q -0.74,0.32 -1.28,0.85 v 0 0 q -0.54,0.53 -0.84,1.25 v 0 0 q -0.3,0.72 -0.3,1.51 v 0 0 q 0,0.81 0.29,1.51 v 0 0 q 0.29,0.71 0.81,1.23 v 0 0 q 0.53,0.53 1.27,0.84 v 0 0 q 0.75,0.3 1.67,0.3 z m 25.52,-7.69 v 0 q 0,-0.58 -0.27,-0.98 v 0 0 q -0.26,-0.4 -0.69,-0.66 v 0 0 q -0.42,-0.25 -0.94,-0.37 v 0 0 q -0.52,-0.11 -1.01,-0.11 v 0 0 q -0.55,0 -1.01,0.12 v 0 0 q -0.45,0.12 -0.78,0.36 v 0 0 q -0.33,0.23 -0.51,0.56 v 0 0 q -0.19,0.34 -0.19,0.75 v 0 0 q 0,0.71 0.43,1.13 v 0 0 q 0.43,0.41 1.44,0.77 v 0 l 2.72,0.96 v 0 q 1.75,0.58 2.56,1.6 v 0 0 q 0.81,1.01 0.81,2.42 v 0 0 q 0,0.94 -0.38,1.73 v 0 0 q -0.37,0.78 -1.06,1.33 v 0 0 q -0.7,0.56 -1.67,0.87 v 0 0 q -0.97,0.3 -2.16,0.3 v 0 0 q -1.65,0 -2.69,-0.53 v 0 0 q -1.04,-0.53 -1.6,-1.41 v 0 h -1.42 v -2.35 h 2.83 v 0 q 0,0.59 0.25,1.01 v 0 0 q 0.26,0.41 0.67,0.67 v 0 0 q 0.42,0.26 0.95,0.39 v 0 0 q 0.52,0.12 1.07,0.12 v 0 0 q 0.53,0 1.02,-0.13 v 0 0 q 0.5,-0.13 0.87,-0.38 v 0 0 q 0.38,-0.26 0.6,-0.61 v 0 0 q 0.22,-0.36 0.22,-0.81 v 0 0 q 0,-0.68 -0.45,-1.16 v 0 0 q -0.44,-0.48 -1.51,-0.86 v 0 l -2.71,-1.01 v 0 q -1.65,-0.59 -2.45,-1.5 v 0 0 q -0.8,-0.91 -0.8,-2.28 v 0 0 q 0,-0.9 0.33,-1.67 v 0 0 q 0.34,-0.76 0.98,-1.32 v 0 0 q 0.63,-0.55 1.55,-0.86 v 0 0 q 0.91,-0.32 2.09,-0.32 v 0 0 q 1.52,0 2.54,0.43 v 0 0 q 1.03,0.42 1.85,1.45 v 0 h 1.32 v 2.35 z m 5.21,3.28 v 0 0 q 0.01,-1.68 0.54,-3.06 v 0 0 q 0.53,-1.39 1.47,-2.38 v 0 0 q 0.94,-0.99 2.24,-1.52 v 0 0 q 1.3,-0.53 2.86,-0.53 v 0 0 q 1.57,0 2.88,0.53 v 0 0 q 1.3,0.53 2.23,1.51 v 0 0 q 0.93,0.98 1.45,2.36 v 0 0 q 0.52,1.38 0.52,3.06 v 0 0 q 0,1.65 -0.52,3.04 v 0 0 q -0.52,1.39 -1.45,2.39 v 0 0 q -0.93,1 -2.23,1.55 v 0 0 q -1.31,0.55 -2.88,0.55 v 0 0 q -1.6,0 -2.9,-0.54 v 0 0 q -1.3,-0.55 -2.23,-1.54 v 0 0 q -0.93,-0.99 -1.45,-2.37 v 0 0 q -0.52,-1.38 -0.53,-3.05 z m 2.69,0 v 0 0 q 0,1.21 0.35,2.2 v 0 0 q 0.35,0.98 0.96,1.67 v 0 0 q 0.61,0.69 1.41,1.07 v 0 0 q 0.8,0.38 1.7,0.38 v 0 0 q 0.94,0 1.76,-0.37 v 0 0 q 0.81,-0.37 1.41,-1.06 v 0 0 q 0.6,-0.69 0.94,-1.68 v 0 0 q 0.35,-0.98 0.35,-2.21 v 0 0 q 0,-1.29 -0.35,-2.29 v 0 0 q -0.34,-0.99 -0.93,-1.66 v 0 0 q -0.6,-0.67 -1.42,-1.01 v 0 0 q -0.82,-0.35 -1.76,-0.35 v 0 0 q -0.9,0 -1.7,0.35 v 0 0 q -0.8,0.34 -1.41,1.01 v 0 0 q -0.61,0.67 -0.96,1.66 v 0 0 q -0.35,1 -0.35,2.29 z m 24.44,-7.17 v 3.08 h -2.6 v -0.87 0 q -0.45,0 -0.93,0.17 v 0 0 q -0.47,0.17 -0.88,0.52 v 0 0 q -0.41,0.34 -0.72,0.88 v 0 0 q -0.3,0.54 -0.44,1.28 v 0 6.84 h 2.41 V 0 h -7.03 v -2.35 h 1.95 l 0.02,-9.46 h -1.97 v -2.35 h 4.52 v 1.95 0 q 0.25,-0.44 0.56,-0.81 v 0 0 q 0.31,-0.38 0.68,-0.66 v 0 0 q 0.38,-0.28 0.84,-0.44 v 0 0 q 0.45,-0.15 0.99,-0.15 v 0 0 q 0.71,0 1.34,0 v 0 0 q 0.63,0 1.26,0.02 z m 2.35,-4.67 v -2.35 h 4.59 v 8.28 0 q 0.9,-0.7 1.97,-1.11 v 0 0 q 1.07,-0.41 2.2,-0.41 v 0 0 q 1.39,0 2.56,0.52 v 0 0 q 1.16,0.52 2,1.47 v 0 0 q 0.84,0.94 1.31,2.26 v 0 0 q 0.46,1.32 0.46,2.92 v 0 0 q 0,1.71 -0.52,3.09 v 0 0 q -0.52,1.39 -1.44,2.39 v 0 0 q -0.92,1 -2.2,1.54 v 0 0 q -1.27,0.54 -2.78,0.54 v 0 0 q -1.06,0 -1.98,-0.31 v 0 0 q -0.92,-0.31 -1.58,-0.8 v 0 V 0 h -2.54 v -18.92 z m 8.09,6.66 v 0 0 q -1,0 -1.91,0.41 v 0 0 q -0.92,0.41 -1.59,1.1 v 0 7.62 0 q 0.44,0.45 1.29,0.8 v 0 0 q 0.84,0.35 2.13,0.35 v 0 0 q 0.87,0 1.68,-0.33 v 0 0 q 0.81,-0.33 1.42,-0.99 v 0 0 q 0.62,-0.66 0.99,-1.65 v 0 0 q 0.37,-0.98 0.37,-2.3 v 0 0 q 0,-1.2 -0.35,-2.13 v 0 0 q -0.35,-0.93 -0.95,-1.57 v 0 0 q -0.59,-0.64 -1.38,-0.98 v 0 0 q -0.8,-0.33 -1.7,-0.33 z m 9.43,5.18 v 0 0 q 0.02,-1.68 0.54,-3.06 v 0 0 q 0.53,-1.39 1.47,-2.38 v 0 0 q 0.95,-0.99 2.25,-1.52 v 0 0 q 1.29,-0.53 2.85,-0.53 v 0 0 q 1.58,0 2.88,0.53 v 0 0 q 1.31,0.53 2.24,1.51 v 0 0 q 0.93,0.98 1.45,2.36 v 0 0 q 0.52,1.38 0.52,3.06 v 0 0 q 0,1.65 -0.52,3.04 v 0 0 q -0.52,1.39 -1.45,2.39 v 0 0 q -0.93,1 -2.24,1.55 v 0 0 q -1.3,0.55 -2.88,0.55 v 0 0 q -1.6,0 -2.9,-0.54 v 0 0 q -1.29,-0.55 -2.22,-1.54 v 0 0 q -0.93,-0.99 -1.45,-2.37 v 0 0 q -0.52,-1.38 -0.54,-3.05 z m 2.7,0 v 0 0 q 0,1.21 0.35,2.2 v 0 0 q 0.34,0.98 0.95,1.67 v 0 0 q 0.61,0.69 1.41,1.07 v 0 0 q 0.8,0.38 1.7,0.38 v 0 0 q 0.95,0 1.76,-0.37 v 0 0 q 0.81,-0.37 1.42,-1.06 v 0 0 q 0.6,-0.69 0.94,-1.68 v 0 0 q 0.34,-0.98 0.34,-2.21 v 0 0 q 0,-1.29 -0.34,-2.29 v 0 0 q -0.34,-0.99 -0.94,-1.66 v 0 0 q -0.59,-0.67 -1.41,-1.01 v 0 0 q -0.82,-0.35 -1.77,-0.35 v 0 0 q -0.9,0 -1.7,0.35 v 0 0 q -0.8,0.34 -1.41,1.01 v 0 0 q -0.61,0.67 -0.95,1.66 v 0 0 q -0.35,1 -0.35,2.29 z M 307.1,0 v -2.35 h 1.99 v -6.47 0 q 0,-1.63 -0.82,-2.47 v 0 0 q -0.83,-0.84 -2.38,-0.84 v 0 0 q -0.88,0 -1.79,0.43 v 0 0 q -0.9,0.42 -1.71,1.05 v 0 8.3 h 2 V 0 h -6.62 v -2.35 h 1.97 v -9.46 h -1.97 v -2.35 h 4.52 v 1.66 h 0.02 v 0 q 0.45,-0.39 0.97,-0.75 v 0 0 q 0.51,-0.35 1.07,-0.61 v 0 0 q 0.56,-0.26 1.17,-0.41 v 0 0 q 0.61,-0.15 1.28,-0.15 v 0 0 q 1.13,0 2.05,0.31 v 0 0 q 0.91,0.32 1.56,0.96 v 0 0 q 0.64,0.64 0.99,1.65 v 0 0 q 0.35,1 0.35,2.37 v 0 6.78 h 1.96 V 0 Z m 18.67,0 v -2.35 h 2 v -6.47 0 q 0,-1.63 -0.83,-2.47 v 0 0 q -0.82,-0.84 -2.37,-0.84 v 0 0 q -0.89,0 -1.79,0.43 v 0 0 q -0.9,0.42 -1.71,1.05 v 0 8.3 h 2 V 0 h -6.62 v -2.35 h 1.97 v -9.46 h -1.97 v -2.35 h 4.51 v 1.66 h 0.03 v 0 q 0.45,-0.39 0.96,-0.75 v 0 0 q 0.51,-0.35 1.08,-0.61 v 0 0 q 0.56,-0.26 1.16,-0.41 v 0 0 q 0.61,-0.15 1.28,-0.15 v 0 0 q 1.14,0 2.05,0.31 v 0 0 q 0.92,0.32 1.56,0.96 v 0 0 q 0.64,0.64 0.99,1.65 v 0 0 q 0.35,1 0.35,2.37 v 0 6.78 h 1.97 V 0 Z m 21.96,-6.75 h -10.2 v 0 q 0,0.6 0.09,1.1 v 0 0 q 0.09,0.5 0.25,0.95 v 0 0 q 0.51,1.36 1.62,2.05 v 0 0 q 1.12,0.69 2.53,0.69 v 0 0 q 1.1,0 2.15,-0.3 v 0 0 q 1.04,-0.31 2.19,-0.97 v 0 l 1.03,1.74 v 0 q -1.4,0.96 -2.8,1.42 v 0 0 q -1.41,0.47 -2.93,0.47 v 0 0 q -1.44,0 -2.66,-0.48 v 0 0 q -1.22,-0.48 -2.1,-1.42 v 0 0 q -0.89,-0.95 -1.39,-2.36 v 0 0 q -0.49,-1.4 -0.49,-3.28 v 0 0 q 0,-1.51 0.42,-2.86 v 0 0 q 0.42,-1.35 1.26,-2.35 v 0 0 q 0.84,-1.01 2.09,-1.6 v 0 0 q 1.24,-0.58 2.9,-0.58 v 0 0 q 1.6,0 2.67,0.48 v 0 0 q 1.07,0.49 1.75,1.29 v 0 0 q 0.68,0.8 1.03,1.82 v 0 0 q 0.34,1.03 0.48,2.09 v 0 0 q 0.07,0.52 0.09,1.06 v 0 0 q 0.02,0.53 0.02,1.04 z m -6.22,-5.65 v 0 0 q -0.89,0 -1.55,0.25 v 0 0 q -0.67,0.26 -1.13,0.73 v 0 0 q -0.46,0.47 -0.75,1.15 v 0 0 q -0.28,0.69 -0.41,1.53 v 0 h 7.34 v 0 q -0.05,-0.79 -0.25,-1.46 v 0 0 q -0.2,-0.67 -0.61,-1.16 v 0 0 q -0.41,-0.49 -1.05,-0.77 v 0 0 q -0.65,-0.27 -1.59,-0.27 z m 17.13,5.62 h -7.53 v -2.35 h 7.53 z m 11.16,-5.03 v -2.35 h 4.56 v 11.81 h 1.58 V 0 h -4.13 v -1.31 0 q -0.96,0.74 -2.09,1.15 v 0 0 q -1.13,0.41 -2.41,0.41 v 0 0 q -1.07,0 -1.94,-0.31 v 0 0 q -0.86,-0.31 -1.47,-0.96 v 0 0 q -0.61,-0.65 -0.94,-1.65 v 0 0 q -0.33,-0.99 -0.33,-2.37 v 0 -6.77 h -1.91 v -2.35 h 4.57 v 8.81 0 q 0,1.63 0.75,2.47 v 0 0 q 0.75,0.83 2.16,0.83 v 0 0 q 0.83,0 1.75,-0.3 v 0 0 q 0.93,-0.3 1.75,-0.84 v 0 -8.62 z M 389.05,0 v -2.35 h 1.99 v -6.47 0 q 0,-1.63 -0.82,-2.47 v 0 0 q -0.83,-0.84 -2.38,-0.84 v 0 0 q -0.88,0 -1.79,0.43 v 0 0 q -0.9,0.42 -1.71,1.05 v 0 8.3 h 2 V 0 h -6.62 v -2.35 h 1.97 v -9.46 h -1.97 v -2.35 h 4.51 v 1.66 h 0.03 v 0 q 0.45,-0.39 0.97,-0.75 v 0 0 q 0.51,-0.35 1.07,-0.61 v 0 0 q 0.56,-0.26 1.17,-0.41 v 0 0 q 0.61,-0.15 1.28,-0.15 v 0 0 q 1.13,0 2.05,0.31 v 0 0 q 0.91,0.32 1.56,0.96 v 0 0 q 0.64,0.64 0.99,1.65 v 0 0 q 0.35,1 0.35,2.37 v 0 6.78 h 1.96 V 0 Z m 9.24,-11.81 v -2.35 h 4.62 v 11.81 h 2.13 V 0 h -6.72 v -2.35 h 2.02 v -9.46 z m 1.57,-7.37 v 0 0 q 0,-0.36 0.14,-0.68 v 0 0 q 0.15,-0.32 0.39,-0.56 v 0 0 q 0.24,-0.24 0.57,-0.38 v 0 0 q 0.32,-0.15 0.69,-0.15 v 0 0 q 0.36,0 0.68,0.15 v 0 0 q 0.32,0.14 0.56,0.38 v 0 0 q 0.24,0.24 0.38,0.56 v 0 0 q 0.15,0.32 0.15,0.68 v 0 0 q 0,0.37 -0.15,0.7 v 0 0 q -0.14,0.32 -0.38,0.58 v 0 0 q -0.24,0.25 -0.56,0.39 v 0 0 q -0.32,0.15 -0.68,0.15 v 0 0 q -0.37,0 -0.69,-0.15 v 0 0 q -0.33,-0.14 -0.57,-0.39 v 0 0 q -0.24,-0.26 -0.39,-0.58 v 0 0 q -0.14,-0.33 -0.14,-0.7 z m 6.43,7.37 v -2.35 h 4.89 v 2.35 h -1.32 l 3.5,9.76 3.41,-9.76 h -0.86 v -2.35 h 4.49 v 2.35 h -1.22 l -4.64,12.03 h -2.51 l -4.62,-12.03 z m 28.74,5.06 h -10.2 v 0 q 0,0.6 0.09,1.1 v 0 0 q 0.08,0.5 0.25,0.95 v 0 0 q 0.5,1.36 1.62,2.05 v 0 0 q 1.11,0.69 2.52,0.69 v 0 0 q 1.11,0 2.15,-0.3 v 0 0 q 1.05,-0.31 2.2,-0.97 v 0 l 1.02,1.74 v 0 q -1.39,0.96 -2.8,1.42 v 0 0 q -1.41,0.47 -2.92,0.47 v 0 0 q -1.44,0 -2.66,-0.48 v 0 0 q -1.23,-0.48 -2.11,-1.42 v 0 0 q -0.88,-0.95 -1.38,-2.36 v 0 0 q -0.5,-1.4 -0.5,-3.28 v 0 0 q 0,-1.51 0.42,-2.86 v 0 0 q 0.43,-1.35 1.27,-2.35 v 0 0 q 0.84,-1.01 2.08,-1.6 v 0 0 q 1.25,-0.58 2.9,-0.58 v 0 0 q 1.6,0 2.68,0.48 v 0 0 q 1.07,0.49 1.75,1.29 v 0 0 q 0.67,0.8 1.02,1.82 v 0 0 q 0.35,1.03 0.49,2.09 v 0 0 q 0.06,0.52 0.08,1.06 v 0 0 q 0.03,0.53 0.03,1.04 z m -6.23,-5.65 v 0 0 q -0.88,0 -1.55,0.25 v 0 0 q -0.66,0.26 -1.12,0.73 v 0 0 q -0.47,0.47 -0.75,1.15 v 0 0 q -0.28,0.69 -0.42,1.53 v 0 h 7.34 v 0 q -0.05,-0.79 -0.25,-1.46 v 0 0 q -0.2,-0.67 -0.61,-1.16 v 0 0 q -0.41,-0.49 -1.05,-0.77 v 0 0 q -0.64,-0.27 -1.59,-0.27 z m 19.87,-1.85 v 3.08 h -2.6 v -0.87 0 q -0.45,0 -0.92,0.17 v 0 0 q -0.47,0.17 -0.88,0.52 v 0 0 q -0.41,0.34 -0.72,0.88 v 0 0 q -0.31,0.54 -0.44,1.28 v 0 6.84 h 2.4 V 0 h -7.03 v -2.35 h 1.96 l 0.01,-9.46 h -1.97 v -2.35 h 4.53 v 1.95 0 q 0.25,-0.44 0.55,-0.81 v 0 0 q 0.31,-0.38 0.69,-0.66 v 0 0 q 0.37,-0.28 0.83,-0.44 v 0 0 q 0.46,-0.15 0.99,-0.15 v 0 0 q 0.71,0 1.34,0 v 0 0 q 0.63,0 1.26,0.02 z m 11.12,3.89 v 0 q 0,-0.58 -0.27,-0.98 v 0 0 q -0.27,-0.4 -0.69,-0.66 v 0 0 q -0.43,-0.25 -0.95,-0.37 v 0 0 q -0.51,-0.11 -1.01,-0.11 v 0 0 q -0.54,0 -1,0.12 v 0 0 q -0.46,0.12 -0.79,0.36 v 0 0 q -0.33,0.23 -0.51,0.56 v 0 0 q -0.19,0.34 -0.19,0.75 v 0 0 q 0,0.71 0.44,1.13 v 0 0 q 0.43,0.41 1.44,0.77 v 0 l 2.72,0.96 v 0 q 1.75,0.58 2.56,1.6 v 0 0 q 0.8,1.01 0.8,2.42 v 0 0 q 0,0.94 -0.37,1.73 v 0 0 q -0.38,0.78 -1.07,1.33 v 0 0 q -0.69,0.56 -1.66,0.87 v 0 0 q -0.97,0.3 -2.16,0.3 v 0 0 q -1.66,0 -2.7,-0.53 v 0 0 q -1.03,-0.53 -1.59,-1.41 v 0 h -1.43 v -2.35 h 2.83 v 0 q 0,0.59 0.26,1.01 v 0 0 q 0.25,0.41 0.67,0.67 v 0 0 q 0.41,0.26 0.94,0.39 v 0 0 q 0.53,0.12 1.07,0.12 v 0 0 q 0.54,0 1.03,-0.13 v 0 0 q 0.49,-0.13 0.87,-0.38 v 0 0 q 0.37,-0.26 0.59,-0.61 v 0 0 q 0.22,-0.36 0.22,-0.81 v 0 0 q 0,-0.68 -0.44,-1.16 v 0 0 q -0.45,-0.48 -1.52,-0.86 v 0 l -2.7,-1.01 v 0 q -1.66,-0.59 -2.46,-1.5 v 0 0 q -0.8,-0.91 -0.8,-2.28 v 0 0 q 0,-0.9 0.34,-1.67 v 0 0 q 0.33,-0.76 0.97,-1.32 v 0 0 q 0.64,-0.55 1.55,-0.86 v 0 0 q 0.92,-0.32 2.09,-0.32 v 0 0 q 1.52,0 2.55,0.43 v 0 0 q 1.02,0.42 1.84,1.45 v 0 h 1.33 v 2.35 z m 5.29,-1.45 v -2.35 h 4.62 v 11.81 h 2.13 V 0 h -6.73 v -2.35 h 2.03 v -9.46 z m 1.57,-7.37 v 0 0 q 0,-0.36 0.14,-0.68 v 0 0 q 0.15,-0.32 0.38,-0.56 v 0 0 q 0.24,-0.24 0.57,-0.38 v 0 0 q 0.33,-0.15 0.7,-0.15 v 0 0 q 0.35,0 0.68,0.15 v 0 0 q 0.32,0.14 0.56,0.38 v 0 0 q 0.24,0.24 0.38,0.56 v 0 0 q 0.14,0.32 0.14,0.68 v 0 0 q 0,0.37 -0.14,0.7 v 0 0 q -0.14,0.32 -0.38,0.58 v 0 0 q -0.24,0.25 -0.56,0.39 v 0 0 q -0.33,0.15 -0.68,0.15 v 0 0 q -0.37,0 -0.7,-0.15 v 0 0 q -0.33,-0.14 -0.57,-0.39 v 0 0 q -0.23,-0.26 -0.38,-0.58 v 0 0 q -0.14,-0.33 -0.14,-0.7 z m 11.62,0.45 v 4.57 h 3.32 v 2.06 h -3.35 l -0.04,8.18 v 0 q 0,0.83 0.19,1.35 v 0 0 q 0.19,0.52 0.62,0.72 v 0 0 q 0.42,0.2 0.95,0.2 v 0 0 q 0.58,0 1.02,-0.11 v 0 0 q 0.43,-0.1 0.95,-0.35 v 0 l 0.59,1.71 v 0 q -0.65,0.35 -1.38,0.54 v 0 0 q -0.72,0.2 -1.71,0.2 v 0 0 q -0.93,0 -1.62,-0.22 v 0 0 q -0.69,-0.23 -1.16,-0.76 v 0 0 q -0.47,-0.54 -0.7,-1.43 v 0 0 q -0.24,-0.9 -0.24,-2.24 v 0 l 0.04,-7.79 h -2.25 v -2.06 h 2.28 v -3.39 z m 18.92,11.98 h -10.2 v 0 q 0,0.6 0.09,1.1 v 0 0 q 0.09,0.5 0.25,0.95 v 0 0 q 0.51,1.36 1.62,2.05 v 0 0 q 1.12,0.69 2.53,0.69 v 0 0 q 1.1,0 2.15,-0.3 v 0 0 q 1.05,-0.31 2.19,-0.97 v 0 l 1.03,1.74 v 0 q -1.39,0.96 -2.8,1.42 v 0 0 q -1.41,0.47 -2.93,0.47 v 0 0 q -1.43,0 -2.66,-0.48 v 0 0 q -1.22,-0.48 -2.1,-1.42 v 0 0 q -0.89,-0.95 -1.38,-2.36 v 0 0 q -0.5,-1.4 -0.5,-3.28 v 0 0 q 0,-1.51 0.42,-2.86 v 0 0 q 0.42,-1.35 1.27,-2.35 v 0 0 q 0.84,-1.01 2.08,-1.6 v 0 0 q 1.24,-0.58 2.9,-0.58 v 0 0 q 1.6,0 2.67,0.48 v 0 0 q 1.07,0.49 1.75,1.29 v 0 0 q 0.68,0.8 1.03,1.82 v 0 0 q 0.35,1.03 0.48,2.09 v 0 0 q 0.07,0.52 0.09,1.06 v 0 0 q 0.02,0.53 0.02,1.04 z m -6.22,-5.65 v 0 0 q -0.89,0 -1.55,0.25 v 0 0 q -0.66,0.26 -1.13,0.73 v 0 0 q -0.46,0.47 -0.74,1.15 v 0 0 q -0.28,0.69 -0.42,1.53 v 0 h 7.34 v 0 q -0.05,-0.79 -0.25,-1.46 v 0 0 q -0.2,-0.67 -0.61,-1.16 v 0 0 q -0.41,-0.49 -1.05,-0.77 v 0 0 q -0.65,-0.27 -1.59,-0.27 z m 9.63,10.75 v 0 0 q 0,-0.36 0.14,-0.68 v 0 0 q 0.14,-0.32 0.39,-0.56 v 0 0 q 0.25,-0.24 0.57,-0.38 v 0 0 q 0.32,-0.15 0.69,-0.15 v 0 0 q 0.35,0 0.67,0.15 v 0 0 q 0.32,0.14 0.56,0.38 v 0 0 q 0.24,0.24 0.39,0.56 v 0 0 q 0.14,0.32 0.14,0.68 v 0 0 q 0,0.36 -0.14,0.69 v 0 0 q -0.15,0.33 -0.39,0.58 v 0 0 q -0.24,0.26 -0.56,0.4 v 0 0 q -0.32,0.14 -0.67,0.14 v 0 0 q -0.37,0 -0.69,-0.14 v 0 0 q -0.32,-0.14 -0.57,-0.4 v 0 0 q -0.25,-0.25 -0.39,-0.58 v 0 0 q -0.14,-0.33 -0.14,-0.69 z m 10.96,-14.81 v 2.3 h 3.28 v 2.06 h -3.28 v 9.75 h 2.22 V 0 h -6.9 v -2.35 h 2.14 v -9.75 h -2.34 v -2.06 h 2.34 v -2.22 0 q 0.02,-1.23 0.35,-2.15 v 0 0 q 0.33,-0.91 0.93,-1.53 v 0 0 q 0.6,-0.61 1.45,-0.91 v 0 0 q 0.85,-0.3 1.89,-0.3 v 0 0 q 0.72,0 1.3,0.06 v 0 0 q 0.57,0.07 1.02,0.19 v 0 0 q 0.45,0.12 0.8,0.25 v 0 0 q 0.35,0.14 0.62,0.28 v 0 l -0.77,1.81 v 0 q -0.44,-0.23 -1.15,-0.39 v 0 0 q -0.7,-0.17 -1.47,-0.17 v 0 0 q -1.13,0 -1.78,0.71 v 0 0 q -0.65,0.7 -0.65,2.07 z m 15.7,2.21 v 3.08 h -2.6 v -0.87 0 q -0.45,0 -0.92,0.17 v 0 0 q -0.48,0.17 -0.89,0.52 v 0 0 q -0.41,0.34 -0.71,0.88 v 0 0 q -0.31,0.54 -0.45,1.28 v 0 6.84 h 2.41 V 0 h -7.03 v -2.35 h 1.96 l 0.01,-9.46 h -1.97 v -2.35 h 4.53 v 1.95 0 q 0.24,-0.44 0.55,-0.81 v 0 0 q 0.31,-0.38 0.68,-0.66 v 0 0 q 0.38,-0.28 0.84,-0.44 v 0 0 q 0.46,-0.15 0.99,-0.15 v 0 0 q 0.71,0 1.34,0 v 0 0 q 0.63,0 1.26,0.02 z"
         fill="#052b4a"
         id="path3" />
    </g>
  </g>
  <style
     id="style4">text {
  font-size: 64px;
  font-family: Arial Black;
  dominant-baseline: central;
  text-anchor: middle;
}</style>
</svg>
