<svg width="741.676939597084px" height="69.23800793081335px" xmlns="http://www.w3.org/2000/svg" viewBox="-120.83846979854201 40.38099603459332 741.676939597084 69.23800793081335" style="background: rgb(191, 216, 175);" preserveAspectRatio="xMidYMid"><defs><filter id="editing-hover" x="-100%" y="-100%" width="300%" height="300%"><feFlood flood-color="#bfd8af" result="flood"></feFlood><feComposite operator="in" in2="SourceAlpha" in="flood" result="shadow"></feComposite><feOffset dx="0.2" dy="0.1" in="SourceGraphic" result="offset-1"></feOffset><feOffset dx="-0.2" dy="-0.1" in="shadow" result="offset-2"></feOffset><feMerge><feMergeNode in="offset-2"></feMergeNode><feMergeNode in="offset-1"></feMergeNode></feMerge></filter></defs><g filter="url(#editing-hover)"><g transform="translate(-14.315027356147779, 89.09174360458897)"><path d="M1.37-11.81L1.37-14.16L5.88-14.16L5.88-12.51L5.91-12.51L5.91-12.51Q6.37-12.91 6.88-13.25L6.88-13.25L6.88-13.25Q7.40-13.60 7.96-13.86L7.96-13.86L7.96-13.86Q8.52-14.12 9.13-14.27L9.13-14.27L9.13-14.27Q9.73-14.42 10.39-14.42L10.39-14.42L10.39-14.42Q11.92-14.42 13.03-13.86L13.03-13.86L13.03-13.86Q14.14-13.29 14.74-12.09L14.74-12.09L14.74-12.09Q15.26-12.55 15.83-12.98L15.83-12.98L15.83-12.98Q16.41-13.41 17.03-13.73L17.03-13.73L17.03-13.73Q17.65-14.04 18.33-14.23L18.33-14.23L18.33-14.23Q19.02-14.42 19.76-14.42L19.76-14.42L19.76-14.42Q20.90-14.42 21.82-14.11L21.82-14.11L21.82-14.11Q22.74-13.79 23.38-13.15L23.38-13.15L23.38-13.15Q24.02-12.51 24.36-11.50L24.36-11.50L24.36-11.50Q24.69-10.50 24.69-9.13L24.69-9.13L24.69-2.35L26.66-2.35L26.66 0L20.04 0L20.04-2.35L22.04-2.35L22.04-8.82L22.04-8.82Q22.04-10.45 21.22-11.29L21.22-11.29L21.22-11.29Q20.40-12.13 18.85-12.13L18.85-12.13L18.85-12.13Q17.94-12.13 16.98-11.69L16.98-11.69L16.98-11.69Q16.02-11.25 15.34-10.58L15.34-10.58L15.34-2.35L17.29-2.35L17.29 0L10.69 0L10.69-2.35L12.69-2.35L12.69-8.82L12.69-8.82Q12.69-10.45 11.86-11.29L11.86-11.29L11.86-11.29Q11.03-12.13 9.49-12.13L9.49-12.13L9.49-12.13Q8.60-12.13 7.70-11.70L7.70-11.70L7.70-11.70Q6.79-11.28 5.99-10.65L5.99-10.65L5.99-2.35L7.98-2.35L7.98 0L1.37 0L1.37-2.35L3.34-2.35L3.34-11.81L1.37-11.81ZM37.72 0L37.72-1.31L37.72-1.31Q36.91-0.56 35.94-0.08L35.94-0.08L35.94-0.08Q34.96 0.40 33.71 0.40L33.71 0.40L33.71 0.40Q32.68 0.40 31.81 0.07L31.81 0.07L31.81 0.07Q30.94-0.26 30.31-0.83L30.31-0.83L30.31-0.83Q29.68-1.39 29.33-2.15L29.33-2.15L29.33-2.15Q28.98-2.90 28.98-3.75L28.98-3.75L28.98-3.75Q28.98-4.65 29.25-5.35L29.25-5.35L29.25-5.35Q29.52-6.04 29.96-6.56L29.96-6.56L29.96-6.56Q30.41-7.07 31.00-7.42L31.00-7.42L31.00-7.42Q31.60-7.77 32.25-7.98L32.25-7.98L32.25-7.98Q32.89-8.19 33.57-8.28L33.57-8.28L33.57-8.28Q34.25-8.37 34.86-8.37L34.86-8.37L34.86-8.37Q35.85-8.37 36.52-8.31L36.52-8.31L36.52-8.31Q37.19-8.24 37.73-8.13L37.73-8.13L37.75-9.30L37.75-9.30Q37.75-10.05 37.53-10.60L37.53-10.60L37.53-10.60Q37.31-11.16 36.91-11.52L36.91-11.52L36.91-11.52Q36.52-11.88 35.96-12.06L35.96-12.06L35.96-12.06Q35.41-12.24 34.73-12.24L34.73-12.24L34.73-12.24Q34.08-12.24 33.50-12.15L33.50-12.15L33.50-12.15Q32.91-12.06 32.40-11.92L32.40-11.92L32.40-11.92Q31.88-11.77 31.45-11.59L31.45-11.59L31.45-11.59Q31.02-11.40 30.72-11.20L30.72-11.20L29.89-12.96L29.89-12.96Q30.39-13.29 30.99-13.57L30.99-13.57L30.99-13.57Q31.60-13.85 32.26-14.05L32.26-14.05L32.26-14.05Q32.92-14.25 33.61-14.36L33.61-14.36L33.61-14.36Q34.30-14.48 34.97-14.48L34.97-14.48L34.97-14.48Q36.20-14.48 37.19-14.18L37.19-14.18L37.19-14.18Q38.17-13.89 38.86-13.28L38.86-13.28L38.86-13.28Q39.54-12.66 39.91-11.71L39.91-11.71L39.91-11.71Q40.28-10.76 40.28-9.43L40.28-9.43L40.26-2.35L41.84-2.35L41.84 0L37.72 0ZM34.28-1.74L34.28-1.74L34.28-1.74Q34.78-1.74 35.29-1.86L35.29-1.86L35.29-1.86Q35.79-1.98 36.24-2.19L36.24-2.19L36.24-2.19Q36.70-2.41 37.08-2.69L37.08-2.69L37.08-2.69Q37.46-2.97 37.72-3.27L37.72-3.27L37.73-6.47L34.78-6.47L34.78-6.47Q34.04-6.47 33.43-6.30L33.43-6.30L33.43-6.30Q32.83-6.14 32.38-5.82L32.38-5.82L32.38-5.82Q31.94-5.51 31.69-5.04L31.69-5.04L31.69-5.04Q31.45-4.58 31.45-3.98L31.45-3.98L31.45-3.98Q31.45-3.42 31.65-3.00L31.65-3.00L31.65-3.00Q31.86-2.58 32.23-2.30L32.23-2.30L32.23-2.30Q32.61-2.02 33.13-1.88L33.13-1.88L33.13-1.88Q33.65-1.74 34.28-1.74ZM53.24-11.81L53.24-14.16L57.80-14.16L57.80-2.35L59.38-2.35L59.38 0L55.25 0L55.25-1.31L55.25-1.31Q54.29-0.57 53.16-0.16L53.16-0.16L53.16-0.16Q52.04 0.25 50.75 0.25L50.75 0.25L50.75 0.25Q49.68 0.25 48.82-0.06L48.82-0.06L48.82-0.06Q47.95-0.37 47.34-1.02L47.34-1.02L47.34-1.02Q46.73-1.67 46.40-2.67L46.40-2.67L46.40-2.67Q46.07-3.66 46.07-5.04L46.07-5.04L46.07-11.81L44.16-11.81L44.16-14.16L48.73-14.16L48.73-5.35L48.73-5.35Q48.73-3.72 49.48-2.88L49.48-2.88L49.48-2.88Q50.23-2.05 51.64-2.05L51.64-2.05L51.64-2.05Q52.47-2.05 53.40-2.35L53.40-2.35L53.40-2.35Q54.32-2.65 55.14-3.19L55.14-3.19L55.14-11.81L53.24-11.81ZM73.35-14.25L73.35-11.17L70.75-11.17L70.75-12.04L70.75-12.04Q70.30-12.04 69.83-11.87L69.83-11.87L69.83-11.87Q69.36-11.70 68.95-11.35L68.95-11.35L68.95-11.35Q68.54-11.01 68.23-10.47L68.23-10.47L68.23-10.47Q67.92-9.93 67.79-9.19L67.79-9.19L67.79-2.35L70.19-2.35L70.19 0L63.16 0L63.16-2.35L65.12-2.35L65.13-11.81L63.16-11.81L63.16-14.16L67.69-14.16L67.69-12.21L67.69-12.21Q67.94-12.65 68.24-13.02L68.24-13.02L68.24-13.02Q68.55-13.40 68.93-13.68L68.93-13.68L68.93-13.68Q69.30-13.96 69.76-14.12L69.76-14.12L69.76-14.12Q70.22-14.27 70.75-14.27L70.75-14.27L70.75-14.27Q71.46-14.27 72.09-14.27L72.09-14.27L72.09-14.27Q72.72-14.27 73.35-14.25L73.35-14.25ZM76.18-11.81L76.18-14.16L80.80-14.16L80.80-2.35L82.93-2.35L82.93 0L76.21 0L76.21-2.35L78.23-2.35L78.23-11.81L76.18-11.81ZM77.75-19.18L77.75-19.18L77.75-19.18Q77.75-19.54 77.90-19.86L77.90-19.86L77.90-19.86Q78.04-20.18 78.28-20.42L78.28-20.42L78.28-20.42Q78.52-20.66 78.85-20.80L78.85-20.80L78.85-20.80Q79.17-20.95 79.54-20.95L79.54-20.95L79.54-20.95Q79.90-20.95 80.22-20.80L80.22-20.80L80.22-20.80Q80.54-20.66 80.78-20.42L80.78-20.42L80.78-20.42Q81.02-20.18 81.16-19.86L81.16-19.86L81.16-19.86Q81.31-19.54 81.31-19.18L81.31-19.18L81.31-19.18Q81.31-18.81 81.16-18.48L81.16-18.48L81.16-18.48Q81.02-18.16 80.78-17.90L80.78-17.90L80.78-17.90Q80.54-17.65 80.22-17.51L80.22-17.51L80.22-17.51Q79.90-17.36 79.54-17.36L79.54-17.36L79.54-17.36Q79.17-17.36 78.85-17.51L78.85-17.51L78.85-17.51Q78.52-17.65 78.28-17.90L78.28-17.90L78.28-17.90Q78.04-18.16 77.90-18.48L77.90-18.48L77.90-18.48Q77.75-18.81 77.75-19.18ZM98.07-10.39L95.50-10.39L95.50-10.39Q94.92-11.42 94.04-11.89L94.04-11.89L94.04-11.89Q93.16-12.37 92.00-12.37L92.00-12.37L92.00-12.37Q91.11-12.37 90.33-12.00L90.33-12.00L90.33-12.00Q89.55-11.63 88.97-10.95L88.97-10.95L88.97-10.95Q88.39-10.27 88.05-9.29L88.05-9.29L88.05-9.29Q87.72-8.31 87.72-7.11L87.72-7.11L87.72-7.11Q87.72-5.92 88.05-4.96L88.05-4.96L88.05-4.96Q88.39-4.01 88.98-3.33L88.98-3.33L88.98-3.33Q89.56-2.65 90.34-2.29L90.34-2.29L90.34-2.29Q91.11-1.93 92.00-1.93L92.00-1.93L92.00-1.93Q93.31-1.93 94.28-2.56L94.28-2.56L94.28-2.56Q95.25-3.20 95.83-4.43L95.83-4.43L97.93-3.39L97.93-3.39Q97.52-2.52 96.92-1.82L96.92-1.82L96.92-1.82Q96.32-1.12 95.56-0.63L95.56-0.63L95.56-0.63Q94.80-0.14 93.89 0.13L93.89 0.13L93.89 0.13Q92.98 0.40 91.97 0.40L91.97 0.40L91.97 0.40Q90.49 0.40 89.24-0.16L89.24-0.16L89.24-0.16Q87.99-0.71 87.08-1.71L87.08-1.71L87.08-1.71Q86.17-2.71 85.67-4.09L85.67-4.09L85.67-4.09Q85.16-5.47 85.16-7.11L85.16-7.11L85.16-7.11Q85.16-8.75 85.70-10.13L85.70-10.13L85.70-10.13Q86.23-11.51 87.16-12.50L87.16-12.50L87.16-12.50Q88.09-13.49 89.33-14.05L89.33-14.05L89.33-14.05Q90.58-14.62 92.00-14.62L92.00-14.62L92.00-14.62Q93.34-14.62 94.53-14.15L94.53-14.15L94.53-14.15Q95.73-13.69 96.63-12.74L96.63-12.74L98.07-12.74L98.07-10.39ZM113.16-6.75L102.96-6.75L102.96-6.75Q102.96-6.15 103.05-5.65L103.05-5.65L103.05-5.65Q103.14-5.15 103.30-4.70L103.30-4.70L103.30-4.70Q103.81-3.34 104.92-2.65L104.92-2.65L104.92-2.65Q106.04-1.96 107.45-1.96L107.45-1.96L107.45-1.96Q108.55-1.96 109.60-2.26L109.60-2.26L109.60-2.26Q110.65-2.57 111.79-3.23L111.79-3.23L112.82-1.49L112.82-1.49Q111.43-0.53 110.02-0.07L110.02-0.07L110.02-0.07Q108.61 0.40 107.09 0.40L107.09 0.40L107.09 0.40Q105.66 0.40 104.43-0.08L104.43-0.08L104.43-0.08Q103.21-0.56 102.33-1.50L102.33-1.50L102.33-1.50Q101.45-2.45 100.95-3.86L100.95-3.86L100.95-3.86Q100.45-5.26 100.45-7.14L100.45-7.14L100.45-7.14Q100.45-8.65 100.87-10.00L100.87-10.00L100.87-10.00Q101.29-11.35 102.14-12.35L102.14-12.35L102.14-12.35Q102.98-13.36 104.22-13.95L104.22-13.95L104.22-13.95Q105.46-14.53 107.12-14.53L107.12-14.53L107.12-14.53Q108.72-14.53 109.79-14.05L109.79-14.05L109.79-14.05Q110.87-13.56 111.54-12.76L111.54-12.76L111.54-12.76Q112.22-11.96 112.57-10.94L112.57-10.94L112.57-10.94Q112.92-9.91 113.05-8.85L113.05-8.85L113.05-8.85Q113.12-8.33 113.14-7.79L113.14-7.79L113.14-7.79Q113.16-7.26 113.16-6.75L113.16-6.75ZM106.94-12.40L106.94-12.40L106.94-12.40Q106.05-12.40 105.39-12.15L105.39-12.15L105.39-12.15Q104.73-11.89 104.26-11.42L104.26-11.42L104.26-11.42Q103.80-10.95 103.52-10.27L103.52-10.27L103.52-10.27Q103.24-9.58 103.10-8.74L103.10-8.74L110.44-8.74L110.44-8.74Q110.39-9.53 110.19-10.20L110.19-10.20L110.19-10.20Q109.99-10.87 109.58-11.36L109.58-11.36L109.58-11.36Q109.17-11.85 108.53-12.13L108.53-12.13L108.53-12.13Q107.88-12.40 106.94-12.40ZM116.57-1.65L116.57-1.65L116.57-1.65Q116.57-2.01 116.71-2.33L116.71-2.33L116.71-2.33Q116.85-2.65 117.10-2.89L117.10-2.89L117.10-2.89Q117.35-3.13 117.67-3.27L117.67-3.27L117.67-3.27Q117.99-3.42 118.36-3.42L118.36-3.42L118.36-3.42Q118.71-3.42 119.03-3.27L119.03-3.27L119.03-3.27Q119.36-3.13 119.59-2.89L119.59-2.89L119.59-2.89Q119.83-2.65 119.98-2.33L119.98-2.33L119.98-2.33Q120.12-2.01 120.12-1.65L120.12-1.65L120.12-1.65Q120.12-1.29 119.98-0.96L119.98-0.96L119.98-0.96Q119.83-0.63 119.59-0.38L119.59-0.38L119.59-0.38Q119.36-0.12 119.03 0.02L119.03 0.02L119.03 0.02Q118.71 0.16 118.36 0.16L118.36 0.16L118.36 0.16Q117.99 0.16 117.67 0.02L117.67 0.02L117.67 0.02Q117.35-0.12 117.10-0.38L117.10-0.38L117.10-0.38Q116.85-0.63 116.71-0.96L116.71-0.96L116.71-0.96Q116.57-1.29 116.57-1.65ZM133.04-14.25L133.04-11.17L130.44-11.17L130.44-12.04L130.44-12.04Q129.99-12.04 129.52-11.87L129.52-11.87L129.52-11.87Q129.05-11.70 128.64-11.35L128.64-11.35L128.64-11.35Q128.23-11.01 127.92-10.47L127.92-10.47L127.92-10.47Q127.61-9.93 127.48-9.19L127.48-9.19L127.48-2.35L129.88-2.35L129.88 0L122.86 0L122.86-2.35L124.81-2.35L124.82-11.81L122.86-11.81L122.86-14.16L127.38-14.16L127.38-12.21L127.38-12.21Q127.63-12.65 127.93-13.02L127.93-13.02L127.93-13.02Q128.24-13.40 128.62-13.68L128.62-13.68L128.62-13.68Q128.99-13.96 129.45-14.12L129.45-14.12L129.45-14.12Q129.91-14.27 130.44-14.27L130.44-14.27L130.44-14.27Q131.15-14.27 131.78-14.27L131.78-14.27L131.78-14.27Q132.41-14.27 133.04-14.25L133.04-14.25ZM135.79-7.08L135.79-7.08L135.79-7.08Q135.80-8.76 136.33-10.14L136.33-10.14L136.33-10.14Q136.86-11.53 137.80-12.52L137.80-12.52L137.80-12.52Q138.74-13.51 140.04-14.04L140.04-14.04L140.04-14.04Q141.34-14.57 142.90-14.57L142.90-14.57L142.90-14.57Q144.47-14.57 145.78-14.04L145.78-14.04L145.78-14.04Q147.08-13.51 148.01-12.53L148.01-12.53L148.01-12.53Q148.94-11.55 149.46-10.17L149.46-10.17L149.46-10.17Q149.98-8.79 149.98-7.11L149.98-7.11L149.98-7.11Q149.98-5.46 149.46-4.07L149.46-4.07L149.46-4.07Q148.94-2.68 148.01-1.68L148.01-1.68L148.01-1.68Q147.08-0.68 145.78-0.13L145.78-0.13L145.78-0.13Q144.47 0.42 142.90 0.42L142.90 0.42L142.90 0.42Q141.30 0.42 140-0.12L140-0.12L140-0.12Q138.70-0.67 137.77-1.66L137.77-1.66L137.77-1.66Q136.84-2.65 136.32-4.03L136.32-4.03L136.32-4.03Q135.80-5.41 135.79-7.08ZM138.48-7.08L138.48-7.08L138.48-7.08Q138.48-5.87 138.83-4.88L138.83-4.88L138.83-4.88Q139.18-3.90 139.79-3.21L139.79-3.21L139.79-3.21Q140.40-2.52 141.20-2.14L141.20-2.14L141.20-2.14Q142.00-1.76 142.90-1.76L142.90-1.76L142.90-1.76Q143.84-1.76 144.66-2.13L144.66-2.13L144.66-2.13Q145.47-2.50 146.07-3.19L146.07-3.19L146.07-3.19Q146.67-3.88 147.01-4.87L147.01-4.87L147.01-4.87Q147.36-5.85 147.36-7.08L147.36-7.08L147.36-7.08Q147.36-8.37 147.01-9.37L147.01-9.37L147.01-9.37Q146.67-10.36 146.08-11.03L146.08-11.03L146.08-11.03Q145.48-11.70 144.66-12.04L144.66-12.04L144.66-12.04Q143.84-12.39 142.90-12.39L142.90-12.39L142.90-12.39Q142.00-12.39 141.20-12.04L141.20-12.04L141.20-12.04Q140.40-11.70 139.79-11.03L139.79-11.03L139.79-11.03Q139.18-10.36 138.83-9.37L138.83-9.37L138.83-9.37Q138.48-8.37 138.48-7.08ZM160.90-10.36L160.90-10.36Q160.90-10.94 160.64-11.34L160.64-11.34L160.64-11.34Q160.37-11.74 159.95-12.00L159.95-12.00L159.95-12.00Q159.52-12.25 159.00-12.37L159.00-12.37L159.00-12.37Q158.48-12.48 157.99-12.48L157.99-12.48L157.99-12.48Q157.45-12.48 156.99-12.36L156.99-12.36L156.99-12.36Q156.53-12.24 156.20-12.00L156.20-12.00L156.20-12.00Q155.87-11.77 155.69-11.44L155.69-11.44L155.69-11.44Q155.50-11.10 155.50-10.69L155.50-10.69L155.50-10.69Q155.50-9.98 155.93-9.56L155.93-9.56L155.93-9.56Q156.37-9.15 157.38-8.79L157.38-8.79L160.10-7.83L160.10-7.83Q161.85-7.25 162.65-6.23L162.65-6.23L162.65-6.23Q163.46-5.22 163.46-3.81L163.46-3.81L163.46-3.81Q163.46-2.87 163.08-2.08L163.08-2.08L163.08-2.08Q162.71-1.30 162.02-0.75L162.02-0.75L162.02-0.75Q161.33-0.19 160.36 0.12L160.36 0.12L160.36 0.12Q159.39 0.42 158.20 0.42L158.20 0.42L158.20 0.42Q156.54 0.42 155.50-0.11L155.50-0.11L155.50-0.11Q154.46-0.64 153.90-1.52L153.90-1.52L152.48-1.52L152.48-3.87L155.31-3.87L155.31-3.87Q155.31-3.28 155.57-2.86L155.57-2.86L155.57-2.86Q155.82-2.45 156.24-2.19L156.24-2.19L156.24-2.19Q156.65-1.93 157.18-1.80L157.18-1.80L157.18-1.80Q157.71-1.68 158.25-1.68L158.25-1.68L158.25-1.68Q158.79-1.68 159.28-1.81L159.28-1.81L159.28-1.81Q159.77-1.94 160.15-2.19L160.15-2.19L160.15-2.19Q160.52-2.45 160.74-2.80L160.74-2.80L160.74-2.80Q160.96-3.16 160.96-3.61L160.96-3.61L160.96-3.61Q160.96-4.29 160.51-4.77L160.51-4.77L160.51-4.77Q160.07-5.25 159.00-5.63L159.00-5.63L156.30-6.64L156.30-6.64Q154.64-7.23 153.84-8.14L153.84-8.14L153.84-8.14Q153.04-9.05 153.04-10.42L153.04-10.42L153.04-10.42Q153.04-11.32 153.38-12.09L153.38-12.09L153.38-12.09Q153.71-12.85 154.35-13.41L154.35-13.41L154.35-13.41Q154.98-13.96 155.90-14.27L155.90-14.27L155.90-14.27Q156.82-14.59 157.99-14.59L157.99-14.59L157.99-14.59Q159.51-14.59 160.54-14.16L160.54-14.16L160.54-14.16Q161.56-13.74 162.38-12.71L162.38-12.71L163.71-12.71L163.71-10.36L160.90-10.36ZM174.48-10.36L174.48-10.36Q174.48-10.94 174.21-11.34L174.21-11.34L174.21-11.34Q173.95-11.74 173.52-12.00L173.52-12.00L173.52-12.00Q173.10-12.25 172.58-12.37L172.58-12.37L172.58-12.37Q172.06-12.48 171.57-12.48L171.57-12.48L171.57-12.48Q171.02-12.48 170.56-12.36L170.56-12.36L170.56-12.36Q170.11-12.24 169.78-12.00L169.78-12.00L169.78-12.00Q169.45-11.77 169.26-11.44L169.26-11.44L169.26-11.44Q169.08-11.10 169.08-10.69L169.08-10.69L169.08-10.69Q169.08-9.98 169.51-9.56L169.51-9.56L169.51-9.56Q169.94-9.15 170.95-8.79L170.95-8.79L173.67-7.83L173.67-7.83Q175.42-7.25 176.23-6.23L176.23-6.23L176.23-6.23Q177.04-5.22 177.04-3.81L177.04-3.81L177.04-3.81Q177.04-2.87 176.66-2.08L176.66-2.08L176.66-2.08Q176.29-1.30 175.59-0.75L175.59-0.75L175.59-0.75Q174.90-0.19 173.93 0.12L173.93 0.12L173.93 0.12Q172.96 0.42 171.77 0.42L171.77 0.42L171.77 0.42Q170.12 0.42 169.08-0.11L169.08-0.11L169.08-0.11Q168.04-0.64 167.48-1.52L167.48-1.52L166.06-1.52L166.06-3.87L168.89-3.87L168.89-3.87Q168.89-3.28 169.14-2.86L169.14-2.86L169.14-2.86Q169.39-2.45 169.81-2.19L169.81-2.19L169.81-2.19Q170.23-1.93 170.75-1.80L170.75-1.80L170.75-1.80Q171.28-1.68 171.83-1.68L171.83-1.68L171.83-1.68Q172.36-1.68 172.85-1.81L172.85-1.81L172.85-1.81Q173.35-1.94 173.72-2.19L173.72-2.19L173.72-2.19Q174.10-2.45 174.32-2.80L174.32-2.80L174.32-2.80Q174.54-3.16 174.54-3.61L174.54-3.61L174.54-3.61Q174.54-4.29 174.09-4.77L174.09-4.77L174.09-4.77Q173.65-5.25 172.58-5.63L172.58-5.63L169.87-6.64L169.87-6.64Q168.22-7.23 167.42-8.14L167.42-8.14L167.42-8.14Q166.62-9.05 166.62-10.42L166.62-10.42L166.62-10.42Q166.62-11.32 166.95-12.09L166.95-12.09L166.95-12.09Q167.29-12.85 167.92-13.41L167.92-13.41L167.92-13.41Q168.56-13.96 169.48-14.27L169.48-14.27L169.48-14.27Q170.39-14.59 171.57-14.59L171.57-14.59L171.57-14.59Q173.09-14.59 174.11-14.16L174.11-14.16L174.11-14.16Q175.14-13.74 175.96-12.71L175.96-12.71L177.28-12.71L177.28-10.36L174.48-10.36ZM179.77-11.81L179.77-14.16L184.39-14.16L184.39-2.35L186.53-2.35L186.53 0L179.80 0L179.80-2.35L181.82-2.35L181.82-11.81L179.77-11.81ZM181.34-19.18L181.34-19.18L181.34-19.18Q181.34-19.54 181.49-19.86L181.49-19.86L181.49-19.86Q181.63-20.18 181.87-20.42L181.87-20.42L181.87-20.42Q182.11-20.66 182.44-20.80L182.44-20.80L182.44-20.80Q182.77-20.95 183.13-20.95L183.13-20.95L183.13-20.95Q183.49-20.95 183.81-20.80L183.81-20.80L183.81-20.80Q184.13-20.66 184.37-20.42L184.37-20.42L184.37-20.42Q184.61-20.18 184.75-19.86L184.75-19.86L184.75-19.86Q184.90-19.54 184.90-19.18L184.90-19.18L184.90-19.18Q184.90-18.81 184.75-18.48L184.75-18.48L184.75-18.48Q184.61-18.16 184.37-17.90L184.37-17.90L184.37-17.90Q184.13-17.65 183.81-17.51L183.81-17.51L183.81-17.51Q183.49-17.36 183.13-17.36L183.13-17.36L183.13-17.36Q182.77-17.36 182.44-17.51L182.44-17.51L182.44-17.51Q182.11-17.65 181.87-17.90L181.87-17.90L181.87-17.90Q181.63-18.16 181.49-18.48L181.49-18.48L181.49-18.48Q181.34-18.81 181.34-19.18ZM206.71-13.07L209.22-13.07L209.22-4.01L209.22-4.01Q209.22-3.17 209.46-2.75L209.46-2.75L209.46-2.75Q209.70-2.32 210.03-2.13L210.03-2.13L210.03-2.13Q210.36-1.93 210.86-1.93L210.86-1.93L210.86-1.93Q211.87-1.93 212.54-2.48L212.54-2.48L212.54-2.48Q213.21-3.04 213.61-3.81L213.61-3.81L213.61-3.81Q214.01-4.59 214.16-5.42L214.16-5.42L214.16-5.42Q214.32-6.25 214.32-7.48L214.32-7.48L214.32-7.48Q214.32-8.87 213.92-10.18L213.92-10.18L213.92-10.18Q213.53-11.48 212.81-12.64L212.81-12.64L212.81-12.64Q212.09-13.79 211.08-14.76L211.08-14.76L211.08-14.76Q210.07-15.72 208.82-16.41L208.82-16.41L208.82-16.41Q207.58-17.10 206.14-17.49L206.14-17.49L206.14-17.49Q204.71-17.87 203.15-17.87L203.15-17.87L203.15-17.87Q201.61-17.87 200.18-17.47L200.18-17.47L200.18-17.47Q198.75-17.08 197.51-16.35L197.51-16.35L197.51-16.35Q196.27-15.63 195.25-14.62L195.25-14.62L195.25-14.62Q194.24-13.60 193.52-12.37L193.52-12.37L193.52-12.37Q192.80-11.13 192.40-9.71L192.40-9.71L192.40-9.71Q192.01-8.29 192.01-6.75L192.01-6.75L192.01-6.75Q192.01-5.21 192.40-3.78L192.40-3.78L192.40-3.78Q192.80-2.35 193.52-1.11L193.52-1.11L193.52-1.11Q194.24 0.14 195.25 1.15L195.25 1.15L195.25 1.15Q196.27 2.16 197.51 2.88L197.51 2.88L197.51 2.88Q198.75 3.61 200.18 4.01L200.18 4.01L200.18 4.01Q201.61 4.40 203.15 4.40L203.15 4.40L203.15 4.40Q204.72 4.40 206.19 3.99L206.19 3.99L206.19 3.99Q207.65 3.57 208.92 2.80L208.92 2.80L210.21 4.95L210.21 4.95Q208.66 5.89 206.88 6.41L206.88 6.41L206.88 6.41Q205.09 6.92 203.15 6.92L203.15 6.92L203.15 6.92Q201.26 6.92 199.51 6.43L199.51 6.43L199.51 6.43Q197.76 5.95 196.25 5.06L196.25 5.06L196.25 5.06Q194.73 4.17 193.48 2.92L193.48 2.92L193.48 2.92Q192.23 1.67 191.34 0.15L191.34 0.15L191.34 0.15Q190.45-1.37 189.96-3.12L189.96-3.12L189.96-3.12Q189.48-4.87 189.48-6.75L189.48-6.75L189.48-6.75Q189.48-8.63 189.96-10.37L189.96-10.37L189.96-10.37Q190.45-12.11 191.34-13.63L191.34-13.63L191.34-13.63Q192.23-15.15 193.48-16.39L193.48-16.39L193.48-16.39Q194.73-17.64 196.25-18.53L196.25-18.53L196.25-18.53Q197.76-19.41 199.51-19.90L199.51-19.90L199.51-19.90Q201.26-20.38 203.15-20.38L203.15-20.38L203.15-20.38Q205.06-20.38 206.82-19.91L206.82-19.91L206.82-19.91Q208.58-19.44 210.10-18.59L210.10-18.59L210.10-18.59Q211.61-17.75 212.86-16.56L212.86-16.56L212.86-16.56Q214.10-15.37 214.98-13.93L214.98-13.93L214.98-13.93Q215.87-12.50 216.35-10.86L216.35-10.86L216.35-10.86Q216.84-9.23 216.84-7.48L216.84-7.48L216.84-7.48Q216.84-6.55 216.66-5.61L216.66-5.61L216.66-5.61Q216.48-4.66 216.13-3.80L216.13-3.80L216.13-3.80Q215.77-2.94 215.26-2.19L215.26-2.19L215.26-2.19Q214.74-1.44 214.07-0.88L214.07-0.88L214.07-0.88Q213.39-0.33 212.57-0.01L212.57-0.01L212.57-0.01Q211.75 0.31 210.79 0.31L210.79 0.31L210.79 0.31Q209.54 0.31 208.69-0.23L208.69-0.23L208.69-0.23Q207.84-0.78 207.36-1.64L207.36-1.64L207.36-1.64Q206.50-0.93 205.42-0.53L205.42-0.53L205.42-0.53Q204.34-0.14 203.10-0.14L203.10-0.14L203.10-0.14Q201.66-0.14 200.46-0.64L200.46-0.64L200.46-0.64Q199.27-1.13 198.39-2.01L198.39-2.01L198.39-2.01Q197.52-2.88 197.03-4.05L197.03-4.05L197.03-4.05Q196.55-5.21 196.55-6.55L196.55-6.55L196.55-6.55Q196.55-7.88 197.05-9.04L197.05-9.04L197.05-9.04Q197.56-10.21 198.44-11.09L198.44-11.09L198.44-11.09Q199.32-11.96 200.52-12.48L200.52-12.48L200.52-12.48Q201.71-12.99 203.10-12.99L203.10-12.99L203.10-12.99Q204.09-12.99 205.01-12.71L205.01-12.71L205.01-12.71Q205.93-12.44 206.71-11.94L206.71-11.94L206.71-13.07ZM203.10-2.67L203.10-2.67L203.10-2.67Q204.38-2.67 205.31-3.26L205.31-3.26L205.31-3.26Q206.24-3.86 206.71-4.80L206.71-4.80L206.71-8.26L206.71-8.26Q206.47-8.74 206.11-9.15L206.11-9.15L206.11-9.15Q205.75-9.56 205.28-9.85L205.28-9.85L205.28-9.85Q204.82-10.14 204.26-10.31L204.26-10.31L204.26-10.31Q203.71-10.47 203.10-10.47L203.10-10.47L203.10-10.47Q202.22-10.47 201.48-10.16L201.48-10.16L201.48-10.16Q200.74-9.84 200.20-9.31L200.20-9.31L200.20-9.31Q199.66-8.78 199.36-8.06L199.36-8.06L199.36-8.06Q199.06-7.34 199.06-6.55L199.06-6.55L199.06-6.55Q199.06-5.74 199.35-5.04L199.35-5.04L199.35-5.04Q199.64-4.33 200.16-3.81L200.16-3.81L200.16-3.81Q200.69-3.28 201.43-2.97L201.43-2.97L201.43-2.97Q202.18-2.67 203.10-2.67ZM228.62-10.36L228.62-10.36Q228.62-10.94 228.35-11.34L228.35-11.34L228.35-11.34Q228.09-11.74 227.66-12.00L227.66-12.00L227.66-12.00Q227.24-12.25 226.72-12.37L226.72-12.37L226.72-12.37Q226.20-12.48 225.71-12.48L225.71-12.48L225.71-12.48Q225.16-12.48 224.70-12.36L224.70-12.36L224.70-12.36Q224.25-12.24 223.92-12.00L223.92-12.00L223.92-12.00Q223.59-11.77 223.41-11.44L223.41-11.44L223.41-11.44Q223.22-11.10 223.22-10.69L223.22-10.69L223.22-10.69Q223.22-9.98 223.65-9.56L223.65-9.56L223.65-9.56Q224.08-9.15 225.09-8.79L225.09-8.79L227.81-7.83L227.81-7.83Q229.56-7.25 230.37-6.23L230.37-6.23L230.37-6.23Q231.18-5.22 231.18-3.81L231.18-3.81L231.18-3.81Q231.18-2.87 230.80-2.08L230.80-2.08L230.80-2.08Q230.43-1.30 229.74-0.75L229.74-0.75L229.74-0.75Q229.04-0.19 228.07 0.12L228.07 0.12L228.07 0.12Q227.10 0.42 225.91 0.42L225.91 0.42L225.91 0.42Q224.26 0.42 223.22-0.11L223.22-0.11L223.22-0.11Q222.18-0.64 221.62-1.52L221.62-1.52L220.20-1.52L220.20-3.87L223.03-3.87L223.03-3.87Q223.03-3.28 223.28-2.86L223.28-2.86L223.28-2.86Q223.54-2.45 223.95-2.19L223.95-2.19L223.95-2.19Q224.37-1.93 224.90-1.80L224.90-1.80L224.90-1.80Q225.42-1.68 225.97-1.68L225.97-1.68L225.97-1.68Q226.50-1.68 226.99-1.81L226.99-1.81L226.99-1.81Q227.49-1.94 227.86-2.19L227.86-2.19L227.86-2.19Q228.24-2.45 228.46-2.80L228.46-2.80L228.46-2.80Q228.68-3.16 228.68-3.61L228.68-3.61L228.68-3.61Q228.68-4.29 228.23-4.77L228.23-4.77L228.23-4.77Q227.79-5.25 226.72-5.63L226.72-5.63L224.01-6.64L224.01-6.64Q222.36-7.23 221.56-8.14L221.56-8.14L221.56-8.14Q220.76-9.05 220.76-10.42L220.76-10.42L220.76-10.42Q220.76-11.32 221.09-12.09L221.09-12.09L221.09-12.09Q221.43-12.85 222.07-13.41L222.07-13.41L222.07-13.41Q222.70-13.96 223.62-14.27L223.62-14.27L223.62-14.27Q224.53-14.59 225.71-14.59L225.71-14.59L225.71-14.59Q227.23-14.59 228.25-14.16L228.25-14.16L228.25-14.16Q229.28-13.74 230.10-12.71L230.10-12.71L231.42-12.71L231.42-10.36L228.62-10.36ZM233.83-7.08L233.83-7.08L233.83-7.08Q233.84-8.76 234.37-10.14L234.37-10.14L234.37-10.14Q234.90-11.53 235.84-12.52L235.84-12.52L235.84-12.52Q236.78-13.51 238.08-14.04L238.08-14.04L238.08-14.04Q239.38-14.57 240.94-14.57L240.94-14.57L240.94-14.57Q242.51-14.57 243.82-14.04L243.82-14.04L243.82-14.04Q245.12-13.51 246.05-12.53L246.05-12.53L246.05-12.53Q246.98-11.55 247.50-10.17L247.50-10.17L247.50-10.17Q248.02-8.79 248.02-7.11L248.02-7.11L248.02-7.11Q248.02-5.46 247.50-4.07L247.50-4.07L247.50-4.07Q246.98-2.68 246.05-1.68L246.05-1.68L246.05-1.68Q245.12-0.68 243.82-0.13L243.82-0.13L243.82-0.13Q242.51 0.42 240.94 0.42L240.94 0.42L240.94 0.42Q239.34 0.42 238.04-0.12L238.04-0.12L238.04-0.12Q236.74-0.67 235.81-1.66L235.81-1.66L235.81-1.66Q234.88-2.65 234.36-4.03L234.36-4.03L234.36-4.03Q233.84-5.41 233.83-7.08ZM236.52-7.08L236.52-7.08L236.52-7.08Q236.52-5.87 236.87-4.88L236.87-4.88L236.87-4.88Q237.22-3.90 237.83-3.21L237.83-3.21L237.83-3.21Q238.44-2.52 239.24-2.14L239.24-2.14L239.24-2.14Q240.04-1.76 240.94-1.76L240.94-1.76L240.94-1.76Q241.88-1.76 242.70-2.13L242.70-2.13L242.70-2.13Q243.51-2.50 244.11-3.19L244.11-3.19L244.11-3.19Q244.71-3.88 245.05-4.87L245.05-4.87L245.05-4.87Q245.40-5.85 245.40-7.08L245.40-7.08L245.40-7.08Q245.40-8.37 245.05-9.37L245.05-9.37L245.05-9.37Q244.71-10.36 244.12-11.03L244.12-11.03L244.12-11.03Q243.52-11.70 242.70-12.04L242.70-12.04L242.70-12.04Q241.88-12.39 240.94-12.39L240.94-12.39L240.94-12.39Q240.04-12.39 239.24-12.04L239.24-12.04L239.24-12.04Q238.44-11.70 237.83-11.03L237.83-11.03L237.83-11.03Q237.22-10.36 236.87-9.37L236.87-9.37L236.87-9.37Q236.52-8.37 236.52-7.08ZM260.96-14.25L260.96-11.17L258.36-11.17L258.36-12.04L258.36-12.04Q257.91-12.04 257.43-11.87L257.43-11.87L257.43-11.87Q256.96-11.70 256.55-11.35L256.55-11.35L256.55-11.35Q256.14-11.01 255.83-10.47L255.83-10.47L255.83-10.47Q255.53-9.93 255.39-9.19L255.39-9.19L255.39-2.35L257.80-2.35L257.80 0L250.77 0L250.77-2.35L252.72-2.35L252.74-11.81L250.77-11.81L250.77-14.16L255.29-14.16L255.29-12.21L255.29-12.21Q255.54-12.65 255.85-13.02L255.85-13.02L255.85-13.02Q256.16-13.40 256.53-13.68L256.53-13.68L256.53-13.68Q256.91-13.96 257.37-14.12L257.37-14.12L257.37-14.12Q257.82-14.27 258.36-14.27L258.36-14.27L258.36-14.27Q259.07-14.27 259.70-14.27L259.70-14.27L259.70-14.27Q260.33-14.27 260.96-14.25L260.96-14.25ZM263.31-18.92L263.31-21.27L267.90-21.27L267.90-12.99L267.90-12.99Q268.80-13.69 269.87-14.10L269.87-14.10L269.87-14.10Q270.94-14.51 272.07-14.51L272.07-14.51L272.07-14.51Q273.46-14.51 274.63-13.99L274.63-13.99L274.63-13.99Q275.79-13.47 276.63-12.52L276.63-12.52L276.63-12.52Q277.47-11.58 277.94-10.26L277.94-10.26L277.94-10.26Q278.40-8.94 278.40-7.34L278.40-7.34L278.40-7.34Q278.40-5.63 277.88-4.25L277.88-4.25L277.88-4.25Q277.36-2.86 276.44-1.86L276.44-1.86L276.44-1.86Q275.52-0.86 274.24-0.32L274.24-0.32L274.24-0.32Q272.97 0.22 271.46 0.22L271.46 0.22L271.46 0.22Q270.40 0.22 269.48-0.09L269.48-0.09L269.48-0.09Q268.56-0.40 267.90-0.89L267.90-0.89L267.90 0L265.36 0L265.36-18.92L263.31-18.92ZM271.40-12.26L271.40-12.26L271.40-12.26Q270.40-12.26 269.49-11.85L269.49-11.85L269.49-11.85Q268.57-11.44 267.90-10.75L267.90-10.75L267.90-3.13L267.90-3.13Q268.34-2.68 269.19-2.33L269.19-2.33L269.19-2.33Q270.03-1.98 271.32-1.98L271.32-1.98L271.32-1.98Q272.19-1.98 273-2.31L273-2.31L273-2.31Q273.81-2.64 274.42-3.30L274.42-3.30L274.42-3.30Q275.04-3.96 275.41-4.95L275.41-4.95L275.41-4.95Q275.78-5.93 275.78-7.25L275.78-7.25L275.78-7.25Q275.78-8.45 275.43-9.38L275.43-9.38L275.43-9.38Q275.08-10.31 274.48-10.95L274.48-10.95L274.48-10.95Q273.89-11.59 273.10-11.93L273.10-11.93L273.10-11.93Q272.30-12.26 271.40-12.26ZM280.83-7.08L280.83-7.08L280.83-7.08Q280.85-8.76 281.37-10.14L281.37-10.14L281.37-10.14Q281.90-11.53 282.84-12.52L282.84-12.52L282.84-12.52Q283.79-13.51 285.09-14.04L285.09-14.04L285.09-14.04Q286.38-14.57 287.94-14.57L287.94-14.57L287.94-14.57Q289.52-14.57 290.82-14.04L290.82-14.04L290.82-14.04Q292.13-13.51 293.06-12.53L293.06-12.53L293.06-12.53Q293.99-11.55 294.51-10.17L294.51-10.17L294.51-10.17Q295.03-8.79 295.03-7.11L295.03-7.11L295.03-7.11Q295.03-5.46 294.51-4.07L294.51-4.07L294.51-4.07Q293.99-2.68 293.06-1.68L293.06-1.68L293.06-1.68Q292.13-0.68 290.82-0.13L290.82-0.13L290.82-0.13Q289.52 0.42 287.94 0.42L287.94 0.42L287.94 0.42Q286.34 0.42 285.04-0.12L285.04-0.12L285.04-0.12Q283.75-0.67 282.82-1.66L282.82-1.66L282.82-1.66Q281.89-2.65 281.37-4.03L281.37-4.03L281.37-4.03Q280.85-5.41 280.83-7.08ZM283.53-7.08L283.53-7.08L283.53-7.08Q283.53-5.87 283.88-4.88L283.88-4.88L283.88-4.88Q284.22-3.90 284.83-3.21L284.83-3.21L284.83-3.21Q285.44-2.52 286.24-2.14L286.24-2.14L286.24-2.14Q287.04-1.76 287.94-1.76L287.94-1.76L287.94-1.76Q288.89-1.76 289.70-2.13L289.70-2.13L289.70-2.13Q290.51-2.50 291.12-3.19L291.12-3.19L291.12-3.19Q291.72-3.88 292.06-4.87L292.06-4.87L292.06-4.87Q292.40-5.85 292.40-7.08L292.40-7.08L292.40-7.08Q292.40-8.37 292.06-9.37L292.06-9.37L292.06-9.37Q291.72-10.36 291.12-11.03L291.12-11.03L291.12-11.03Q290.53-11.70 289.71-12.04L289.71-12.04L289.71-12.04Q288.89-12.39 287.94-12.39L287.94-12.39L287.94-12.39Q287.04-12.39 286.24-12.04L286.24-12.04L286.24-12.04Q285.44-11.70 284.83-11.03L284.83-11.03L284.83-11.03Q284.22-10.36 283.88-9.37L283.88-9.37L283.88-9.37Q283.53-8.37 283.53-7.08ZM307.10 0L307.10-2.35L309.09-2.35L309.09-8.82L309.09-8.82Q309.09-10.45 308.27-11.29L308.27-11.29L308.27-11.29Q307.44-12.13 305.89-12.13L305.89-12.13L305.89-12.13Q305.01-12.13 304.10-11.70L304.10-11.70L304.10-11.70Q303.20-11.28 302.39-10.65L302.39-10.65L302.39-2.35L304.39-2.35L304.39 0L297.77 0L297.77-2.35L299.74-2.35L299.74-11.81L297.77-11.81L297.77-14.16L302.29-14.16L302.29-12.50L302.31-12.50L302.31-12.50Q302.76-12.89 303.28-13.25L303.28-13.25L303.28-13.25Q303.79-13.60 304.35-13.86L304.35-13.86L304.35-13.86Q304.91-14.12 305.52-14.27L305.52-14.27L305.52-14.27Q306.13-14.42 306.80-14.42L306.80-14.42L306.80-14.42Q307.93-14.42 308.85-14.11L308.85-14.11L308.85-14.11Q309.76-13.79 310.41-13.15L310.41-13.15L310.41-13.15Q311.05-12.51 311.40-11.50L311.40-11.50L311.40-11.50Q311.75-10.50 311.75-9.13L311.75-9.13L311.75-2.35L313.71-2.35L313.71 0L307.10 0ZM325.77 0L325.77-2.35L327.77-2.35L327.77-8.82L327.77-8.82Q327.77-10.45 326.94-11.29L326.94-11.29L326.94-11.29Q326.12-12.13 324.57-12.13L324.57-12.13L324.57-12.13Q323.68-12.13 322.78-11.70L322.78-11.70L322.78-11.70Q321.88-11.28 321.07-10.65L321.07-10.65L321.07-2.35L323.07-2.35L323.07 0L316.45 0L316.45-2.35L318.42-2.35L318.42-11.81L316.45-11.81L316.45-14.16L320.96-14.16L320.96-12.50L320.99-12.50L320.99-12.50Q321.44-12.89 321.95-13.25L321.95-13.25L321.95-13.25Q322.46-13.60 323.03-13.86L323.03-13.86L323.03-13.86Q323.59-14.12 324.19-14.27L324.19-14.27L324.19-14.27Q324.80-14.42 325.47-14.42L325.47-14.42L325.47-14.42Q326.61-14.42 327.52-14.11L327.52-14.11L327.52-14.11Q328.44-13.79 329.08-13.15L329.08-13.15L329.08-13.15Q329.72-12.51 330.07-11.50L330.07-11.50L330.07-11.50Q330.42-10.50 330.42-9.13L330.42-9.13L330.42-2.35L332.39-2.35L332.39 0L325.77 0ZM347.73-6.75L337.53-6.75L337.53-6.75Q337.53-6.15 337.62-5.65L337.62-5.65L337.62-5.65Q337.71-5.15 337.87-4.70L337.87-4.70L337.87-4.70Q338.38-3.34 339.49-2.65L339.49-2.65L339.49-2.65Q340.61-1.96 342.02-1.96L342.02-1.96L342.02-1.96Q343.12-1.96 344.17-2.26L344.17-2.26L344.17-2.26Q345.21-2.57 346.36-3.23L346.36-3.23L347.39-1.49L347.39-1.49Q345.99-0.53 344.59-0.07L344.59-0.07L344.59-0.07Q343.18 0.40 341.66 0.40L341.66 0.40L341.66 0.40Q340.22 0.40 339.00-0.08L339.00-0.08L339.00-0.08Q337.78-0.56 336.90-1.50L336.90-1.50L336.90-1.50Q336.01-2.45 335.51-3.86L335.51-3.86L335.51-3.86Q335.02-5.26 335.02-7.14L335.02-7.14L335.02-7.14Q335.02-8.65 335.44-10.00L335.44-10.00L335.44-10.00Q335.86-11.35 336.70-12.35L336.70-12.35L336.70-12.35Q337.54-13.36 338.79-13.95L338.79-13.95L338.79-13.95Q340.03-14.53 341.69-14.53L341.69-14.53L341.69-14.53Q343.29-14.53 344.36-14.05L344.36-14.05L344.36-14.05Q345.43-13.56 346.11-12.76L346.11-12.76L346.11-12.76Q346.79-11.96 347.14-10.94L347.14-10.94L347.14-10.94Q347.48-9.91 347.62-8.85L347.62-8.85L347.62-8.85Q347.69-8.33 347.71-7.79L347.71-7.79L347.71-7.79Q347.73-7.26 347.73-6.75L347.73-6.75ZM341.51-12.40L341.51-12.40L341.51-12.40Q340.62-12.40 339.96-12.15L339.96-12.15L339.96-12.15Q339.29-11.89 338.83-11.42L338.83-11.42L338.83-11.42Q338.37-10.95 338.08-10.27L338.08-10.27L338.08-10.27Q337.80-9.58 337.67-8.74L337.67-8.74L345.01-8.74L345.01-8.74Q344.96-9.53 344.76-10.20L344.76-10.20L344.76-10.20Q344.56-10.87 344.15-11.36L344.15-11.36L344.15-11.36Q343.74-11.85 343.10-12.13L343.10-12.13L343.10-12.13Q342.45-12.40 341.51-12.40ZM358.64-6.78L351.11-6.78L351.11-9.13L358.64-9.13L358.64-6.78ZM369.80-11.81L369.80-14.16L374.36-14.16L374.36-2.35L375.94-2.35L375.94 0L371.81 0L371.81-1.31L371.81-1.31Q370.85-0.57 369.72-0.16L369.72-0.16L369.72-0.16Q368.59 0.25 367.31 0.25L367.31 0.25L367.31 0.25Q366.24 0.25 365.37-0.06L365.37-0.06L365.37-0.06Q364.51-0.37 363.90-1.02L363.90-1.02L363.90-1.02Q363.29-1.67 362.96-2.67L362.96-2.67L362.96-2.67Q362.63-3.66 362.63-5.04L362.63-5.04L362.63-11.81L360.72-11.81L360.72-14.16L365.29-14.16L365.29-5.35L365.29-5.35Q365.29-3.72 366.04-2.88L366.04-2.88L366.04-2.88Q366.79-2.05 368.20-2.05L368.20-2.05L368.20-2.05Q369.03-2.05 369.95-2.35L369.95-2.35L369.95-2.35Q370.88-2.65 371.70-3.19L371.70-3.19L371.70-11.81L369.80-11.81ZM389.05 0L389.05-2.35L391.04-2.35L391.04-8.82L391.04-8.82Q391.04-10.45 390.22-11.29L390.22-11.29L390.22-11.29Q389.39-12.13 387.84-12.13L387.84-12.13L387.84-12.13Q386.96-12.13 386.05-11.70L386.05-11.70L386.05-11.70Q385.15-11.28 384.34-10.65L384.34-10.65L384.34-2.35L386.34-2.35L386.34 0L379.72 0L379.72-2.35L381.69-2.35L381.69-11.81L379.72-11.81L379.72-14.16L384.23-14.16L384.23-12.50L384.26-12.50L384.26-12.50Q384.71-12.89 385.23-13.25L385.23-13.25L385.23-13.25Q385.74-13.60 386.30-13.86L386.30-13.86L386.30-13.86Q386.86-14.12 387.47-14.27L387.47-14.27L387.47-14.27Q388.08-14.42 388.75-14.42L388.75-14.42L388.75-14.42Q389.88-14.42 390.80-14.11L390.80-14.11L390.80-14.11Q391.71-13.79 392.36-13.15L392.36-13.15L392.36-13.15Q393.00-12.51 393.35-11.50L393.35-11.50L393.35-11.50Q393.70-10.50 393.70-9.13L393.70-9.13L393.70-2.35L395.66-2.35L395.66 0L389.05 0ZM398.29-11.81L398.29-14.16L402.91-14.16L402.91-2.35L405.04-2.35L405.04 0L398.32 0L398.32-2.35L400.34-2.35L400.34-11.81L398.29-11.81ZM399.86-19.18L399.86-19.18L399.86-19.18Q399.86-19.54 400.00-19.86L400.00-19.86L400.00-19.86Q400.15-20.18 400.39-20.42L400.39-20.42L400.39-20.42Q400.63-20.66 400.96-20.80L400.96-20.80L400.96-20.80Q401.28-20.95 401.65-20.95L401.65-20.95L401.65-20.95Q402.01-20.95 402.33-20.80L402.33-20.80L402.33-20.80Q402.65-20.66 402.89-20.42L402.89-20.42L402.89-20.42Q403.13-20.18 403.27-19.86L403.27-19.86L403.27-19.86Q403.42-19.54 403.42-19.18L403.42-19.18L403.42-19.18Q403.42-18.81 403.27-18.48L403.27-18.48L403.27-18.48Q403.13-18.16 402.89-17.90L402.89-17.90L402.89-17.90Q402.65-17.65 402.33-17.51L402.33-17.51L402.33-17.51Q402.01-17.36 401.65-17.36L401.65-17.36L401.65-17.36Q401.28-17.36 400.96-17.51L400.96-17.51L400.96-17.51Q400.63-17.65 400.39-17.90L400.39-17.90L400.39-17.90Q400.15-18.16 400.00-18.48L400.00-18.48L400.00-18.48Q399.86-18.81 399.86-19.18ZM406.29-11.81L406.29-14.16L411.18-14.16L411.18-11.81L409.86-11.81L413.36-2.05L416.77-11.81L415.91-11.81L415.91-14.16L420.40-14.16L420.40-11.81L419.18-11.81L414.54 0.22L412.03 0.22L407.41-11.81L406.29-11.81ZM435.03-6.75L424.83-6.75L424.83-6.75Q424.83-6.15 424.92-5.65L424.92-5.65L424.92-5.65Q425.00-5.15 425.17-4.70L425.17-4.70L425.17-4.70Q425.67-3.34 426.79-2.65L426.79-2.65L426.79-2.65Q427.90-1.96 429.31-1.96L429.31-1.96L429.31-1.96Q430.42-1.96 431.46-2.26L431.46-2.26L431.46-2.26Q432.51-2.57 433.66-3.23L433.66-3.23L434.68-1.49L434.68-1.49Q433.29-0.53 431.88-0.07L431.88-0.07L431.88-0.07Q430.47 0.40 428.96 0.40L428.96 0.40L428.96 0.40Q427.52 0.40 426.30-0.08L426.30-0.08L426.30-0.08Q425.07-0.56 424.19-1.50L424.19-1.50L424.19-1.50Q423.31-2.45 422.81-3.86L422.81-3.86L422.81-3.86Q422.31-5.26 422.31-7.14L422.31-7.14L422.31-7.14Q422.31-8.65 422.73-10.00L422.73-10.00L422.73-10.00Q423.16-11.35 424.00-12.35L424.00-12.35L424.00-12.35Q424.84-13.36 426.08-13.95L426.08-13.95L426.08-13.95Q427.33-14.53 428.98-14.53L428.98-14.53L428.98-14.53Q430.58-14.53 431.66-14.05L431.66-14.05L431.66-14.05Q432.73-13.56 433.41-12.76L433.41-12.76L433.41-12.76Q434.08-11.96 434.43-10.94L434.43-10.94L434.43-10.94Q434.78-9.91 434.92-8.85L434.92-8.85L434.92-8.85Q434.98-8.33 435.00-7.79L435.00-7.79L435.00-7.79Q435.03-7.26 435.03-6.75L435.03-6.75ZM428.80-12.40L428.80-12.40L428.80-12.40Q427.92-12.40 427.25-12.15L427.25-12.15L427.25-12.15Q426.59-11.89 426.13-11.42L426.13-11.42L426.13-11.42Q425.66-10.95 425.38-10.27L425.38-10.27L425.38-10.27Q425.10-9.58 424.96-8.74L424.96-8.74L432.30-8.74L432.30-8.74Q432.25-9.53 432.05-10.20L432.05-10.20L432.05-10.20Q431.85-10.87 431.44-11.36L431.44-11.36L431.44-11.36Q431.03-11.85 430.39-12.13L430.39-12.13L430.39-12.13Q429.75-12.40 428.80-12.40ZM448.67-14.25L448.67-11.17L446.07-11.17L446.07-12.04L446.07-12.04Q445.62-12.04 445.15-11.87L445.15-11.87L445.15-11.87Q444.68-11.70 444.27-11.35L444.27-11.35L444.27-11.35Q443.86-11.01 443.55-10.47L443.55-10.47L443.55-10.47Q443.24-9.93 443.11-9.19L443.11-9.19L443.11-2.35L445.51-2.35L445.51 0L438.48 0L438.48-2.35L440.44-2.35L440.45-11.81L438.48-11.81L438.48-14.16L443.01-14.16L443.01-12.21L443.01-12.21Q443.26-12.65 443.56-13.02L443.56-13.02L443.56-13.02Q443.87-13.40 444.25-13.68L444.25-13.68L444.25-13.68Q444.62-13.96 445.08-14.12L445.08-14.12L445.08-14.12Q445.54-14.27 446.07-14.27L446.07-14.27L446.07-14.27Q446.78-14.27 447.41-14.27L447.41-14.27L447.41-14.27Q448.04-14.27 448.67-14.25L448.67-14.25ZM459.79-10.36L459.79-10.36Q459.79-10.94 459.52-11.34L459.52-11.34L459.52-11.34Q459.25-11.74 458.83-12.00L458.83-12.00L458.83-12.00Q458.40-12.25 457.88-12.37L457.88-12.37L457.88-12.37Q457.37-12.48 456.87-12.48L456.87-12.48L456.87-12.48Q456.33-12.48 455.87-12.36L455.87-12.36L455.87-12.36Q455.41-12.24 455.08-12.00L455.08-12.00L455.08-12.00Q454.75-11.77 454.57-11.44L454.57-11.44L454.57-11.44Q454.38-11.10 454.38-10.69L454.38-10.69L454.38-10.69Q454.38-9.98 454.82-9.56L454.82-9.56L454.82-9.56Q455.25-9.15 456.26-8.79L456.26-8.79L458.98-7.83L458.98-7.83Q460.73-7.25 461.54-6.23L461.54-6.23L461.54-6.23Q462.34-5.22 462.34-3.81L462.34-3.81L462.34-3.81Q462.34-2.87 461.97-2.08L461.97-2.08L461.97-2.08Q461.59-1.30 460.90-0.75L460.90-0.75L460.90-0.75Q460.21-0.19 459.24 0.12L459.24 0.12L459.24 0.12Q458.27 0.42 457.08 0.42L457.08 0.42L457.08 0.42Q455.42 0.42 454.38-0.11L454.38-0.11L454.38-0.11Q453.35-0.64 452.79-1.52L452.79-1.52L451.36-1.52L451.36-3.87L454.19-3.87L454.19-3.87Q454.19-3.28 454.45-2.86L454.45-2.86L454.45-2.86Q454.70-2.45 455.12-2.19L455.12-2.19L455.12-2.19Q455.53-1.93 456.06-1.80L456.06-1.80L456.06-1.80Q456.59-1.68 457.13-1.68L457.13-1.68L457.13-1.68Q457.67-1.68 458.16-1.81L458.16-1.81L458.16-1.81Q458.65-1.94 459.03-2.19L459.03-2.19L459.03-2.19Q459.40-2.45 459.62-2.80L459.62-2.80L459.62-2.80Q459.84-3.16 459.84-3.61L459.84-3.61L459.84-3.61Q459.84-4.29 459.40-4.77L459.40-4.77L459.40-4.77Q458.95-5.25 457.88-5.63L457.88-5.63L455.18-6.64L455.18-6.64Q453.52-7.23 452.72-8.14L452.72-8.14L452.72-8.14Q451.92-9.05 451.92-10.42L451.92-10.42L451.92-10.42Q451.92-11.32 452.26-12.09L452.26-12.09L452.26-12.09Q452.59-12.85 453.23-13.41L453.23-13.41L453.23-13.41Q453.87-13.96 454.78-14.27L454.78-14.27L454.78-14.27Q455.70-14.59 456.87-14.59L456.87-14.59L456.87-14.59Q458.39-14.59 459.42-14.16L459.42-14.16L459.42-14.16Q460.44-13.74 461.26-12.71L461.26-12.71L462.59-12.71L462.59-10.36L459.79-10.36ZM465.08-11.81L465.08-14.16L469.70-14.16L469.70-2.35L471.83-2.35L471.83 0L465.10 0L465.10-2.35L467.13-2.35L467.13-11.81L465.08-11.81ZM466.65-19.18L466.65-19.18L466.65-19.18Q466.65-19.54 466.79-19.86L466.79-19.86L466.79-19.86Q466.94-20.18 467.17-20.42L467.17-20.42L467.17-20.42Q467.41-20.66 467.74-20.80L467.74-20.80L467.74-20.80Q468.07-20.95 468.44-20.95L468.44-20.95L468.44-20.95Q468.79-20.95 469.12-20.80L469.12-20.80L469.12-20.80Q469.44-20.66 469.68-20.42L469.68-20.42L469.68-20.42Q469.92-20.18 470.06-19.86L470.06-19.86L470.06-19.86Q470.20-19.54 470.20-19.18L470.20-19.18L470.20-19.18Q470.20-18.81 470.06-18.48L470.06-18.48L470.06-18.48Q469.92-18.16 469.68-17.90L469.68-17.90L469.68-17.90Q469.44-17.65 469.12-17.51L469.12-17.51L469.12-17.51Q468.79-17.36 468.44-17.36L468.44-17.36L468.44-17.36Q468.07-17.36 467.74-17.51L467.74-17.51L467.74-17.51Q467.41-17.65 467.17-17.90L467.17-17.90L467.17-17.90Q466.94-18.16 466.79-18.48L466.79-18.48L466.79-18.48Q466.65-18.81 466.65-19.18ZM478.27-18.73L478.27-14.16L481.59-14.16L481.59-12.10L478.24-12.10L478.20-3.92L478.20-3.92Q478.20-3.09 478.39-2.57L478.39-2.57L478.39-2.57Q478.58-2.05 479.01-1.85L479.01-1.85L479.01-1.85Q479.43-1.65 479.96-1.65L479.96-1.65L479.96-1.65Q480.54-1.65 480.98-1.76L480.98-1.76L480.98-1.76Q481.41-1.86 481.93-2.11L481.93-2.11L482.52-0.40L482.52-0.40Q481.87-0.05 481.14 0.14L481.14 0.14L481.14 0.14Q480.42 0.34 479.43 0.34L479.43 0.34L479.43 0.34Q478.50 0.34 477.81 0.12L477.81 0.12L477.81 0.12Q477.12-0.11 476.65-0.64L476.65-0.64L476.65-0.64Q476.18-1.18 475.95-2.07L475.95-2.07L475.95-2.07Q475.71-2.97 475.71-4.31L475.71-4.31L475.75-12.10L473.50-12.10L473.50-14.16L475.78-14.16L475.78-17.55L478.27-18.73ZM497.19-6.75L486.99-6.75L486.99-6.75Q486.99-6.15 487.08-5.65L487.08-5.65L487.08-5.65Q487.17-5.15 487.33-4.70L487.33-4.70L487.33-4.70Q487.84-3.34 488.95-2.65L488.95-2.65L488.95-2.65Q490.07-1.96 491.48-1.96L491.48-1.96L491.48-1.96Q492.58-1.96 493.63-2.26L493.63-2.26L493.63-2.26Q494.68-2.57 495.82-3.23L495.82-3.23L496.85-1.49L496.85-1.49Q495.46-0.53 494.05-0.07L494.05-0.07L494.05-0.07Q492.64 0.40 491.12 0.40L491.12 0.40L491.12 0.40Q489.69 0.40 488.46-0.08L488.46-0.08L488.46-0.08Q487.24-0.56 486.36-1.50L486.36-1.50L486.36-1.50Q485.47-2.45 484.98-3.86L484.98-3.86L484.98-3.86Q484.48-5.26 484.48-7.14L484.48-7.14L484.48-7.14Q484.48-8.65 484.90-10.00L484.90-10.00L484.90-10.00Q485.32-11.35 486.17-12.35L486.17-12.35L486.17-12.35Q487.01-13.36 488.25-13.95L488.25-13.95L488.25-13.95Q489.49-14.53 491.15-14.53L491.15-14.53L491.15-14.53Q492.75-14.53 493.82-14.05L493.82-14.05L493.82-14.05Q494.89-13.56 495.57-12.76L495.57-12.76L495.57-12.76Q496.25-11.96 496.60-10.94L496.60-10.94L496.60-10.94Q496.95-9.91 497.08-8.85L497.08-8.85L497.08-8.85Q497.15-8.33 497.17-7.79L497.17-7.79L497.17-7.79Q497.19-7.26 497.19-6.75L497.19-6.75ZM490.97-12.40L490.97-12.40L490.97-12.40Q490.08-12.40 489.42-12.15L489.42-12.15L489.42-12.15Q488.76-11.89 488.29-11.42L488.29-11.42L488.29-11.42Q487.83-10.95 487.55-10.27L487.55-10.27L487.55-10.27Q487.27-9.58 487.13-8.74L487.13-8.74L494.47-8.74L494.47-8.74Q494.42-9.53 494.22-10.20L494.22-10.20L494.22-10.20Q494.02-10.87 493.61-11.36L493.61-11.36L493.61-11.36Q493.20-11.85 492.56-12.13L492.56-12.13L492.56-12.13Q491.91-12.40 490.97-12.40ZM500.60-1.65L500.60-1.65L500.60-1.65Q500.60-2.01 500.74-2.33L500.74-2.33L500.74-2.33Q500.88-2.65 501.13-2.89L501.13-2.89L501.13-2.89Q501.38-3.13 501.70-3.27L501.70-3.27L501.70-3.27Q502.02-3.42 502.39-3.42L502.39-3.42L502.39-3.42Q502.74-3.42 503.06-3.27L503.06-3.27L503.06-3.27Q503.38-3.13 503.62-2.89L503.62-2.89L503.62-2.89Q503.86-2.65 504.01-2.33L504.01-2.33L504.01-2.33Q504.15-2.01 504.15-1.65L504.15-1.65L504.15-1.65Q504.15-1.29 504.01-0.96L504.01-0.96L504.01-0.96Q503.86-0.63 503.62-0.38L503.62-0.38L503.62-0.38Q503.38-0.12 503.06 0.02L503.06 0.02L503.06 0.02Q502.74 0.16 502.39 0.16L502.39 0.16L502.39 0.16Q502.02 0.16 501.70 0.02L501.70 0.02L501.70 0.02Q501.38-0.12 501.13-0.38L501.13-0.38L501.13-0.38Q500.88-0.63 500.74-0.96L500.74-0.96L500.74-0.96Q500.60-1.29 500.60-1.65ZM511.56-16.46L511.56-14.16L514.84-14.16L514.84-12.10L511.56-12.10L511.56-2.35L513.78-2.35L513.78 0L506.88 0L506.88-2.35L509.02-2.35L509.02-12.10L506.68-12.10L506.68-14.16L509.02-14.16L509.02-16.38L509.02-16.38Q509.04-17.61 509.37-18.53L509.37-18.53L509.37-18.53Q509.70-19.44 510.30-20.06L510.30-20.06L510.30-20.06Q510.90-20.67 511.75-20.97L511.75-20.97L511.75-20.97Q512.60-21.27 513.64-21.27L513.64-21.27L513.64-21.27Q514.36-21.27 514.94-21.21L514.94-21.21L514.94-21.21Q515.51-21.14 515.96-21.02L515.96-21.02L515.96-21.02Q516.41-20.90 516.76-20.77L516.76-20.77L516.76-20.77Q517.11-20.63 517.38-20.49L517.38-20.49L516.61-18.68L516.61-18.68Q516.17-18.91 515.46-19.07L515.46-19.07L515.46-19.07Q514.76-19.24 513.99-19.24L513.99-19.24L513.99-19.24Q512.86-19.24 512.21-18.53L512.21-18.53L512.21-18.53Q511.56-17.83 511.56-16.46L511.56-16.46ZM527.26-14.25L527.26-11.17L524.66-11.17L524.66-12.04L524.66-12.04Q524.21-12.04 523.74-11.87L523.74-11.87L523.74-11.87Q523.26-11.70 522.85-11.35L522.85-11.35L522.85-11.35Q522.44-11.01 522.14-10.47L522.14-10.47L522.14-10.47Q521.83-9.93 521.69-9.19L521.69-9.19L521.69-2.35L524.10-2.35L524.10 0L517.07 0L517.07-2.35L519.03-2.35L519.04-11.81L517.07-11.81L517.07-14.16L521.60-14.16L521.60-12.21L521.60-12.21Q521.84-12.65 522.15-13.02L522.15-13.02L522.15-13.02Q522.46-13.40 522.83-13.68L522.83-13.68L522.83-13.68Q523.21-13.96 523.67-14.12L523.67-14.12L523.67-14.12Q524.13-14.27 524.66-14.27L524.66-14.27L524.66-14.27Q525.37-14.27 526.00-14.27L526.00-14.27L526.00-14.27Q526.63-14.27 527.26-14.25L527.26-14.25Z" fill="#052b4a"></path></g></g><style>text {
  font-size: 64px;
  font-family: Arial Black;
  dominant-baseline: central;
  text-anchor: middle;
}</style></svg>