<svg width="750.396861472084px" height="69.23800793081335px" xmlns="http://www.w3.org/2000/svg" viewBox="-125.19843073604198 40.38099603459332 750.396861472084 69.23800793081335" style="background: rgb(191, 216, 175);" preserveAspectRatio="xMidYMid"><defs><filter id="editing-hover" x="-100%" y="-100%" width="300%" height="300%"><feFlood flood-color="#bfd8af" result="flood"></feFlood><feComposite operator="in" in2="SourceAlpha" in="flood" result="shadow"></feComposite><feOffset dx="0.2" dy="0.1" in="SourceGraphic" result="offset-1"></feOffset><feOffset dx="-0.2" dy="-0.1" in="shadow" result="offset-2"></feOffset><feMerge><feMergeNode in="offset-2"></feMergeNode><feMergeNode in="offset-1"></feMergeNode></feMerge></filter></defs><g filter="url(#editing-hover)"><g transform="translate(-17.508729185641595, 85.84174360458897)"><path d="M1.37-11.81L1.37-14.16L5.88-14.16L5.88-12.51L5.91-12.51L5.91-12.51Q6.37-12.91 6.88-13.25L6.88-13.25L6.88-13.25Q7.40-13.60 7.96-13.86L7.96-13.86L7.96-13.86Q8.52-14.12 9.13-14.27L9.13-14.27L9.13-14.27Q9.73-14.42 10.39-14.42L10.39-14.42L10.39-14.42Q11.92-14.42 13.03-13.86L13.03-13.86L13.03-13.86Q14.14-13.29 14.74-12.09L14.74-12.09L14.74-12.09Q15.26-12.55 15.83-12.98L15.83-12.98L15.83-12.98Q16.41-13.41 17.03-13.73L17.03-13.73L17.03-13.73Q17.65-14.04 18.33-14.23L18.33-14.23L18.33-14.23Q19.02-14.42 19.76-14.42L19.76-14.42L19.76-14.42Q20.90-14.42 21.82-14.11L21.82-14.11L21.82-14.11Q22.74-13.79 23.38-13.15L23.38-13.15L23.38-13.15Q24.02-12.51 24.36-11.50L24.36-11.50L24.36-11.50Q24.69-10.50 24.69-9.13L24.69-9.13L24.69-2.35L26.66-2.35L26.66 0L20.04 0L20.04-2.35L22.04-2.35L22.04-8.82L22.04-8.82Q22.04-10.45 21.22-11.29L21.22-11.29L21.22-11.29Q20.40-12.13 18.85-12.13L18.85-12.13L18.85-12.13Q17.94-12.13 16.98-11.69L16.98-11.69L16.98-11.69Q16.02-11.25 15.34-10.58L15.34-10.58L15.34-2.35L17.29-2.35L17.29 0L10.69 0L10.69-2.35L12.69-2.35L12.69-8.82L12.69-8.82Q12.69-10.45 11.86-11.29L11.86-11.29L11.86-11.29Q11.03-12.13 9.49-12.13L9.49-12.13L9.49-12.13Q8.60-12.13 7.70-11.70L7.70-11.70L7.70-11.70Q6.79-11.28 5.99-10.65L5.99-10.65L5.99-2.35L7.98-2.35L7.98 0L1.37 0L1.37-2.35L3.34-2.35L3.34-11.81L1.37-11.81ZM37.72 0L37.72-1.31L37.72-1.31Q36.91-0.56 35.94-0.08L35.94-0.08L35.94-0.08Q34.96 0.40 33.71 0.40L33.71 0.40L33.71 0.40Q32.68 0.40 31.81 0.07L31.81 0.07L31.81 0.07Q30.94-0.26 30.31-0.83L30.31-0.83L30.31-0.83Q29.68-1.39 29.33-2.15L29.33-2.15L29.33-2.15Q28.98-2.90 28.98-3.75L28.98-3.75L28.98-3.75Q28.98-4.65 29.25-5.35L29.25-5.35L29.25-5.35Q29.52-6.04 29.96-6.56L29.96-6.56L29.96-6.56Q30.41-7.07 31.00-7.42L31.00-7.42L31.00-7.42Q31.60-7.77 32.25-7.98L32.25-7.98L32.25-7.98Q32.89-8.19 33.57-8.28L33.57-8.28L33.57-8.28Q34.25-8.37 34.86-8.37L34.86-8.37L34.86-8.37Q35.85-8.37 36.52-8.31L36.52-8.31L36.52-8.31Q37.19-8.24 37.73-8.13L37.73-8.13L37.75-9.30L37.75-9.30Q37.75-10.05 37.53-10.60L37.53-10.60L37.53-10.60Q37.31-11.16 36.91-11.52L36.91-11.52L36.91-11.52Q36.52-11.88 35.96-12.06L35.96-12.06L35.96-12.06Q35.41-12.24 34.73-12.24L34.73-12.24L34.73-12.24Q34.08-12.24 33.50-12.15L33.50-12.15L33.50-12.15Q32.91-12.06 32.40-11.92L32.40-11.92L32.40-11.92Q31.88-11.77 31.45-11.59L31.45-11.59L31.45-11.59Q31.02-11.40 30.72-11.20L30.72-11.20L29.89-12.96L29.89-12.96Q30.39-13.29 30.99-13.57L30.99-13.57L30.99-13.57Q31.60-13.85 32.26-14.05L32.26-14.05L32.26-14.05Q32.92-14.25 33.61-14.36L33.61-14.36L33.61-14.36Q34.30-14.48 34.97-14.48L34.97-14.48L34.97-14.48Q36.20-14.48 37.19-14.18L37.19-14.18L37.19-14.18Q38.17-13.89 38.86-13.28L38.86-13.28L38.86-13.28Q39.54-12.66 39.91-11.71L39.91-11.71L39.91-11.71Q40.28-10.76 40.28-9.43L40.28-9.43L40.26-2.35L41.84-2.35L41.84 0L37.72 0ZM34.28-1.74L34.28-1.74L34.28-1.74Q34.78-1.74 35.29-1.86L35.29-1.86L35.29-1.86Q35.79-1.98 36.24-2.19L36.24-2.19L36.24-2.19Q36.70-2.41 37.08-2.69L37.08-2.69L37.08-2.69Q37.46-2.97 37.72-3.27L37.72-3.27L37.73-6.47L34.78-6.47L34.78-6.47Q34.04-6.47 33.43-6.30L33.43-6.30L33.43-6.30Q32.83-6.14 32.38-5.82L32.38-5.82L32.38-5.82Q31.94-5.51 31.69-5.04L31.69-5.04L31.69-5.04Q31.45-4.58 31.45-3.98L31.45-3.98L31.45-3.98Q31.45-3.42 31.65-3.00L31.65-3.00L31.65-3.00Q31.86-2.58 32.23-2.30L32.23-2.30L32.23-2.30Q32.61-2.02 33.13-1.88L33.13-1.88L33.13-1.88Q33.65-1.74 34.28-1.74ZM53.24-11.81L53.24-14.16L57.80-14.16L57.80-2.35L59.38-2.35L59.38 0L55.25 0L55.25-1.31L55.25-1.31Q54.29-0.57 53.16-0.16L53.16-0.16L53.16-0.16Q52.04 0.25 50.75 0.25L50.75 0.25L50.75 0.25Q49.68 0.25 48.82-0.06L48.82-0.06L48.82-0.06Q47.95-0.37 47.34-1.02L47.34-1.02L47.34-1.02Q46.73-1.67 46.40-2.67L46.40-2.67L46.40-2.67Q46.07-3.66 46.07-5.04L46.07-5.04L46.07-11.81L44.16-11.81L44.16-14.16L48.73-14.16L48.73-5.35L48.73-5.35Q48.73-3.72 49.48-2.88L49.48-2.88L49.48-2.88Q50.23-2.05 51.64-2.05L51.64-2.05L51.64-2.05Q52.47-2.05 53.40-2.35L53.40-2.35L53.40-2.35Q54.32-2.65 55.14-3.19L55.14-3.19L55.14-11.81L53.24-11.81ZM73.35-14.25L73.35-11.17L70.75-11.17L70.75-12.04L70.75-12.04Q70.30-12.04 69.83-11.87L69.83-11.87L69.83-11.87Q69.36-11.70 68.95-11.35L68.95-11.35L68.95-11.35Q68.54-11.01 68.23-10.47L68.23-10.47L68.23-10.47Q67.92-9.93 67.79-9.19L67.79-9.19L67.79-2.35L70.19-2.35L70.19 0L63.16 0L63.16-2.35L65.12-2.35L65.13-11.81L63.16-11.81L63.16-14.16L67.69-14.16L67.69-12.21L67.69-12.21Q67.94-12.65 68.24-13.02L68.24-13.02L68.24-13.02Q68.55-13.40 68.93-13.68L68.93-13.68L68.93-13.68Q69.30-13.96 69.76-14.12L69.76-14.12L69.76-14.12Q70.22-14.27 70.75-14.27L70.75-14.27L70.75-14.27Q71.46-14.27 72.09-14.27L72.09-14.27L72.09-14.27Q72.72-14.27 73.35-14.25L73.35-14.25ZM76.18-11.81L76.18-14.16L80.80-14.16L80.80-2.35L82.93-2.35L82.93 0L76.21 0L76.21-2.35L78.23-2.35L78.23-11.81L76.18-11.81ZM77.75-19.18L77.75-19.18L77.75-19.18Q77.75-19.54 77.90-19.86L77.90-19.86L77.90-19.86Q78.04-20.18 78.28-20.42L78.28-20.42L78.28-20.42Q78.52-20.66 78.85-20.80L78.85-20.80L78.85-20.80Q79.17-20.95 79.54-20.95L79.54-20.95L79.54-20.95Q79.90-20.95 80.22-20.80L80.22-20.80L80.22-20.80Q80.54-20.66 80.78-20.42L80.78-20.42L80.78-20.42Q81.02-20.18 81.16-19.86L81.16-19.86L81.16-19.86Q81.31-19.54 81.31-19.18L81.31-19.18L81.31-19.18Q81.31-18.81 81.16-18.48L81.16-18.48L81.16-18.48Q81.02-18.16 80.78-17.90L80.78-17.90L80.78-17.90Q80.54-17.65 80.22-17.51L80.22-17.51L80.22-17.51Q79.90-17.36 79.54-17.36L79.54-17.36L79.54-17.36Q79.17-17.36 78.85-17.51L78.85-17.51L78.85-17.51Q78.52-17.65 78.28-17.90L78.28-17.90L78.28-17.90Q78.04-18.16 77.90-18.48L77.90-18.48L77.90-18.48Q77.75-18.81 77.75-19.18ZM98.07-10.39L95.50-10.39L95.50-10.39Q94.92-11.42 94.04-11.89L94.04-11.89L94.04-11.89Q93.16-12.37 92.00-12.37L92.00-12.37L92.00-12.37Q91.11-12.37 90.33-12.00L90.33-12.00L90.33-12.00Q89.55-11.63 88.97-10.95L88.97-10.95L88.97-10.95Q88.39-10.27 88.05-9.29L88.05-9.29L88.05-9.29Q87.72-8.31 87.72-7.11L87.72-7.11L87.72-7.11Q87.72-5.92 88.05-4.96L88.05-4.96L88.05-4.96Q88.39-4.01 88.98-3.33L88.98-3.33L88.98-3.33Q89.56-2.65 90.34-2.29L90.34-2.29L90.34-2.29Q91.11-1.93 92.00-1.93L92.00-1.93L92.00-1.93Q93.31-1.93 94.28-2.56L94.28-2.56L94.28-2.56Q95.25-3.20 95.83-4.43L95.83-4.43L97.93-3.39L97.93-3.39Q97.52-2.52 96.92-1.82L96.92-1.82L96.92-1.82Q96.32-1.12 95.56-0.63L95.56-0.63L95.56-0.63Q94.80-0.14 93.89 0.13L93.89 0.13L93.89 0.13Q92.98 0.40 91.97 0.40L91.97 0.40L91.97 0.40Q90.49 0.40 89.24-0.16L89.24-0.16L89.24-0.16Q87.99-0.71 87.08-1.71L87.08-1.71L87.08-1.71Q86.17-2.71 85.67-4.09L85.67-4.09L85.67-4.09Q85.16-5.47 85.16-7.11L85.16-7.11L85.16-7.11Q85.16-8.75 85.70-10.13L85.70-10.13L85.70-10.13Q86.23-11.51 87.16-12.50L87.16-12.50L87.16-12.50Q88.09-13.49 89.33-14.05L89.33-14.05L89.33-14.05Q90.58-14.62 92.00-14.62L92.00-14.62L92.00-14.62Q93.34-14.62 94.53-14.15L94.53-14.15L94.53-14.15Q95.73-13.69 96.63-12.74L96.63-12.74L98.07-12.74L98.07-10.39ZM113.16-6.75L102.96-6.75L102.96-6.75Q102.96-6.15 103.05-5.65L103.05-5.65L103.05-5.65Q103.14-5.15 103.30-4.70L103.30-4.70L103.30-4.70Q103.81-3.34 104.92-2.65L104.92-2.65L104.92-2.65Q106.04-1.96 107.45-1.96L107.45-1.96L107.45-1.96Q108.55-1.96 109.60-2.26L109.60-2.26L109.60-2.26Q110.65-2.57 111.79-3.23L111.79-3.23L112.82-1.49L112.82-1.49Q111.43-0.53 110.02-0.07L110.02-0.07L110.02-0.07Q108.61 0.40 107.09 0.40L107.09 0.40L107.09 0.40Q105.66 0.40 104.43-0.08L104.43-0.08L104.43-0.08Q103.21-0.56 102.33-1.50L102.33-1.50L102.33-1.50Q101.45-2.45 100.95-3.86L100.95-3.86L100.95-3.86Q100.45-5.26 100.45-7.14L100.45-7.14L100.45-7.14Q100.45-8.65 100.87-10.00L100.87-10.00L100.87-10.00Q101.29-11.35 102.14-12.35L102.14-12.35L102.14-12.35Q102.98-13.36 104.22-13.95L104.22-13.95L104.22-13.95Q105.46-14.53 107.12-14.53L107.12-14.53L107.12-14.53Q108.72-14.53 109.79-14.05L109.79-14.05L109.79-14.05Q110.87-13.56 111.54-12.76L111.54-12.76L111.54-12.76Q112.22-11.96 112.57-10.94L112.57-10.94L112.57-10.94Q112.92-9.91 113.05-8.85L113.05-8.85L113.05-8.85Q113.12-8.33 113.14-7.79L113.14-7.79L113.14-7.79Q113.16-7.26 113.16-6.75L113.16-6.75ZM106.94-12.40L106.94-12.40L106.94-12.40Q106.05-12.40 105.39-12.15L105.39-12.15L105.39-12.15Q104.73-11.89 104.26-11.42L104.26-11.42L104.26-11.42Q103.80-10.95 103.52-10.27L103.52-10.27L103.52-10.27Q103.24-9.58 103.10-8.74L103.10-8.74L110.44-8.74L110.44-8.74Q110.39-9.53 110.19-10.20L110.19-10.20L110.19-10.20Q109.99-10.87 109.58-11.36L109.58-11.36L109.58-11.36Q109.17-11.85 108.53-12.13L108.53-12.13L108.53-12.13Q107.88-12.40 106.94-12.40ZM116.57-1.65L116.57-1.65L116.57-1.65Q116.57-2.01 116.71-2.33L116.71-2.33L116.71-2.33Q116.85-2.65 117.10-2.89L117.10-2.89L117.10-2.89Q117.35-3.13 117.67-3.27L117.67-3.27L117.67-3.27Q117.99-3.42 118.36-3.42L118.36-3.42L118.36-3.42Q118.71-3.42 119.03-3.27L119.03-3.27L119.03-3.27Q119.36-3.13 119.59-2.89L119.59-2.89L119.59-2.89Q119.83-2.65 119.98-2.33L119.98-2.33L119.98-2.33Q120.12-2.01 120.12-1.65L120.12-1.65L120.12-1.65Q120.12-1.29 119.98-0.96L119.98-0.96L119.98-0.96Q119.83-0.63 119.59-0.38L119.59-0.38L119.59-0.38Q119.36-0.12 119.03 0.02L119.03 0.02L119.03 0.02Q118.71 0.16 118.36 0.16L118.36 0.16L118.36 0.16Q117.99 0.16 117.67 0.02L117.67 0.02L117.67 0.02Q117.35-0.12 117.10-0.38L117.10-0.38L117.10-0.38Q116.85-0.63 116.71-0.96L116.71-0.96L116.71-0.96Q116.57-1.29 116.57-1.65ZM133.04-14.25L133.04-11.17L130.44-11.17L130.44-12.04L130.44-12.04Q129.99-12.04 129.52-11.87L129.52-11.87L129.52-11.87Q129.05-11.70 128.64-11.35L128.64-11.35L128.64-11.35Q128.23-11.01 127.92-10.47L127.92-10.47L127.92-10.47Q127.61-9.93 127.48-9.19L127.48-9.19L127.48-2.35L129.88-2.35L129.88 0L122.86 0L122.86-2.35L124.81-2.35L124.82-11.81L122.86-11.81L122.86-14.16L127.38-14.16L127.38-12.21L127.38-12.21Q127.63-12.65 127.93-13.02L127.93-13.02L127.93-13.02Q128.24-13.40 128.62-13.68L128.62-13.68L128.62-13.68Q128.99-13.96 129.45-14.12L129.45-14.12L129.45-14.12Q129.91-14.27 130.44-14.27L130.44-14.27L130.44-14.27Q131.15-14.27 131.78-14.27L131.78-14.27L131.78-14.27Q132.41-14.27 133.04-14.25L133.04-14.25ZM135.79-7.08L135.79-7.08L135.79-7.08Q135.80-8.76 136.33-10.14L136.33-10.14L136.33-10.14Q136.86-11.53 137.80-12.52L137.80-12.52L137.80-12.52Q138.74-13.51 140.04-14.04L140.04-14.04L140.04-14.04Q141.34-14.57 142.90-14.57L142.90-14.57L142.90-14.57Q144.47-14.57 145.78-14.04L145.78-14.04L145.78-14.04Q147.08-13.51 148.01-12.53L148.01-12.53L148.01-12.53Q148.94-11.55 149.46-10.17L149.46-10.17L149.46-10.17Q149.98-8.79 149.98-7.11L149.98-7.11L149.98-7.11Q149.98-5.46 149.46-4.07L149.46-4.07L149.46-4.07Q148.94-2.68 148.01-1.68L148.01-1.68L148.01-1.68Q147.08-0.68 145.78-0.13L145.78-0.13L145.78-0.13Q144.47 0.42 142.90 0.42L142.90 0.42L142.90 0.42Q141.30 0.42 140-0.12L140-0.12L140-0.12Q138.70-0.67 137.77-1.66L137.77-1.66L137.77-1.66Q136.84-2.65 136.32-4.03L136.32-4.03L136.32-4.03Q135.80-5.41 135.79-7.08ZM138.48-7.08L138.48-7.08L138.48-7.08Q138.48-5.87 138.83-4.88L138.83-4.88L138.83-4.88Q139.18-3.90 139.79-3.21L139.79-3.21L139.79-3.21Q140.40-2.52 141.20-2.14L141.20-2.14L141.20-2.14Q142.00-1.76 142.90-1.76L142.90-1.76L142.90-1.76Q143.84-1.76 144.66-2.13L144.66-2.13L144.66-2.13Q145.47-2.50 146.07-3.19L146.07-3.19L146.07-3.19Q146.67-3.88 147.01-4.87L147.01-4.87L147.01-4.87Q147.36-5.85 147.36-7.08L147.36-7.08L147.36-7.08Q147.36-8.37 147.01-9.37L147.01-9.37L147.01-9.37Q146.67-10.36 146.08-11.03L146.08-11.03L146.08-11.03Q145.48-11.70 144.66-12.04L144.66-12.04L144.66-12.04Q143.84-12.39 142.90-12.39L142.90-12.39L142.90-12.39Q142.00-12.39 141.20-12.04L141.20-12.04L141.20-12.04Q140.40-11.70 139.79-11.03L139.79-11.03L139.79-11.03Q139.18-10.36 138.83-9.37L138.83-9.37L138.83-9.37Q138.48-8.37 138.48-7.08ZM160.90-10.36L160.90-10.36Q160.90-10.94 160.64-11.34L160.64-11.34L160.64-11.34Q160.37-11.74 159.95-12.00L159.95-12.00L159.95-12.00Q159.52-12.25 159.00-12.37L159.00-12.37L159.00-12.37Q158.48-12.48 157.99-12.48L157.99-12.48L157.99-12.48Q157.45-12.48 156.99-12.36L156.99-12.36L156.99-12.36Q156.53-12.24 156.20-12.00L156.20-12.00L156.20-12.00Q155.87-11.77 155.69-11.44L155.69-11.44L155.69-11.44Q155.50-11.10 155.50-10.69L155.50-10.69L155.50-10.69Q155.50-9.98 155.93-9.56L155.93-9.56L155.93-9.56Q156.37-9.15 157.38-8.79L157.38-8.79L160.10-7.83L160.10-7.83Q161.85-7.25 162.65-6.23L162.65-6.23L162.65-6.23Q163.46-5.22 163.46-3.81L163.46-3.81L163.46-3.81Q163.46-2.87 163.08-2.08L163.08-2.08L163.08-2.08Q162.71-1.30 162.02-0.75L162.02-0.75L162.02-0.75Q161.33-0.19 160.36 0.12L160.36 0.12L160.36 0.12Q159.39 0.42 158.20 0.42L158.20 0.42L158.20 0.42Q156.54 0.42 155.50-0.11L155.50-0.11L155.50-0.11Q154.46-0.64 153.90-1.52L153.90-1.52L152.48-1.52L152.48-3.87L155.31-3.87L155.31-3.87Q155.31-3.28 155.57-2.86L155.57-2.86L155.57-2.86Q155.82-2.45 156.24-2.19L156.24-2.19L156.24-2.19Q156.65-1.93 157.18-1.80L157.18-1.80L157.18-1.80Q157.71-1.68 158.25-1.68L158.25-1.68L158.25-1.68Q158.79-1.68 159.28-1.81L159.28-1.81L159.28-1.81Q159.77-1.94 160.15-2.19L160.15-2.19L160.15-2.19Q160.52-2.45 160.74-2.80L160.74-2.80L160.74-2.80Q160.96-3.16 160.96-3.61L160.96-3.61L160.96-3.61Q160.96-4.29 160.51-4.77L160.51-4.77L160.51-4.77Q160.07-5.25 159.00-5.63L159.00-5.63L156.30-6.64L156.30-6.64Q154.64-7.23 153.84-8.14L153.84-8.14L153.84-8.14Q153.04-9.05 153.04-10.42L153.04-10.42L153.04-10.42Q153.04-11.32 153.38-12.09L153.38-12.09L153.38-12.09Q153.71-12.85 154.35-13.41L154.35-13.41L154.35-13.41Q154.98-13.96 155.90-14.27L155.90-14.27L155.90-14.27Q156.82-14.59 157.99-14.59L157.99-14.59L157.99-14.59Q159.51-14.59 160.54-14.16L160.54-14.16L160.54-14.16Q161.56-13.74 162.38-12.71L162.38-12.71L163.71-12.71L163.71-10.36L160.90-10.36ZM174.48-10.36L174.48-10.36Q174.48-10.94 174.21-11.34L174.21-11.34L174.21-11.34Q173.95-11.74 173.52-12.00L173.52-12.00L173.52-12.00Q173.10-12.25 172.58-12.37L172.58-12.37L172.58-12.37Q172.06-12.48 171.57-12.48L171.57-12.48L171.57-12.48Q171.02-12.48 170.56-12.36L170.56-12.36L170.56-12.36Q170.11-12.24 169.78-12.00L169.78-12.00L169.78-12.00Q169.45-11.77 169.26-11.44L169.26-11.44L169.26-11.44Q169.08-11.10 169.08-10.69L169.08-10.69L169.08-10.69Q169.08-9.98 169.51-9.56L169.51-9.56L169.51-9.56Q169.94-9.15 170.95-8.79L170.95-8.79L173.67-7.83L173.67-7.83Q175.42-7.25 176.23-6.23L176.23-6.23L176.23-6.23Q177.04-5.22 177.04-3.81L177.04-3.81L177.04-3.81Q177.04-2.87 176.66-2.08L176.66-2.08L176.66-2.08Q176.29-1.30 175.59-0.75L175.59-0.75L175.59-0.75Q174.90-0.19 173.93 0.12L173.93 0.12L173.93 0.12Q172.96 0.42 171.77 0.42L171.77 0.42L171.77 0.42Q170.12 0.42 169.08-0.11L169.08-0.11L169.08-0.11Q168.04-0.64 167.48-1.52L167.48-1.52L166.06-1.52L166.06-3.87L168.89-3.87L168.89-3.87Q168.89-3.28 169.14-2.86L169.14-2.86L169.14-2.86Q169.39-2.45 169.81-2.19L169.81-2.19L169.81-2.19Q170.23-1.93 170.75-1.80L170.75-1.80L170.75-1.80Q171.28-1.68 171.83-1.68L171.83-1.68L171.83-1.68Q172.36-1.68 172.85-1.81L172.85-1.81L172.85-1.81Q173.35-1.94 173.72-2.19L173.72-2.19L173.72-2.19Q174.10-2.45 174.32-2.80L174.32-2.80L174.32-2.80Q174.54-3.16 174.54-3.61L174.54-3.61L174.54-3.61Q174.54-4.29 174.09-4.77L174.09-4.77L174.09-4.77Q173.65-5.25 172.58-5.63L172.58-5.63L169.87-6.64L169.87-6.64Q168.22-7.23 167.42-8.14L167.42-8.14L167.42-8.14Q166.62-9.05 166.62-10.42L166.62-10.42L166.62-10.42Q166.62-11.32 166.95-12.09L166.95-12.09L166.95-12.09Q167.29-12.85 167.92-13.41L167.92-13.41L167.92-13.41Q168.56-13.96 169.48-14.27L169.48-14.27L169.48-14.27Q170.39-14.59 171.57-14.59L171.57-14.59L171.57-14.59Q173.09-14.59 174.11-14.16L174.11-14.16L174.11-14.16Q175.14-13.74 175.96-12.71L175.96-12.71L177.28-12.71L177.28-10.36L174.48-10.36ZM179.77-11.81L179.77-14.16L184.39-14.16L184.39-2.35L186.53-2.35L186.53 0L179.80 0L179.80-2.35L181.82-2.35L181.82-11.81L179.77-11.81ZM181.34-19.18L181.34-19.18L181.34-19.18Q181.34-19.54 181.49-19.86L181.49-19.86L181.49-19.86Q181.63-20.18 181.87-20.42L181.87-20.42L181.87-20.42Q182.11-20.66 182.44-20.80L182.44-20.80L182.44-20.80Q182.77-20.95 183.13-20.95L183.13-20.95L183.13-20.95Q183.49-20.95 183.81-20.80L183.81-20.80L183.81-20.80Q184.13-20.66 184.37-20.42L184.37-20.42L184.37-20.42Q184.61-20.18 184.75-19.86L184.75-19.86L184.75-19.86Q184.90-19.54 184.90-19.18L184.90-19.18L184.90-19.18Q184.90-18.81 184.75-18.48L184.75-18.48L184.75-18.48Q184.61-18.16 184.37-17.90L184.37-17.90L184.37-17.90Q184.13-17.65 183.81-17.51L183.81-17.51L183.81-17.51Q183.49-17.36 183.13-17.36L183.13-17.36L183.13-17.36Q182.77-17.36 182.44-17.51L182.44-17.51L182.44-17.51Q182.11-17.65 181.87-17.90L181.87-17.90L181.87-17.90Q181.63-18.16 181.49-18.48L181.49-18.48L181.49-18.48Q181.34-18.81 181.34-19.18ZM187.50 0L187.50 0L187.50 0Q187.50 0 187.50 0ZM203.31 0L203.31-1.31L203.31-1.31Q202.51-0.56 201.53-0.08L201.53-0.08L201.53-0.08Q200.55 0.40 199.31 0.40L199.31 0.40L199.31 0.40Q198.27 0.40 197.40 0.07L197.40 0.07L197.40 0.07Q196.53-0.26 195.90-0.83L195.90-0.83L195.90-0.83Q195.28-1.39 194.93-2.15L194.93-2.15L194.93-2.15Q194.58-2.90 194.58-3.75L194.58-3.75L194.58-3.75Q194.58-4.65 194.84-5.35L194.84-5.35L194.84-5.35Q195.11-6.04 195.56-6.56L195.56-6.56L195.56-6.56Q196-7.07 196.59-7.42L196.59-7.42L196.59-7.42Q197.19-7.77 197.84-7.98L197.84-7.98L197.84-7.98Q198.49-8.19 199.17-8.28L199.17-8.28L199.17-8.28Q199.84-8.37 200.46-8.37L200.46-8.37L200.46-8.37Q201.44-8.37 202.11-8.31L202.11-8.31L202.11-8.31Q202.78-8.24 203.33-8.13L203.33-8.13L203.34-9.30L203.34-9.30Q203.34-10.05 203.12-10.60L203.12-10.60L203.12-10.60Q202.90-11.16 202.51-11.52L202.51-11.52L202.51-11.52Q202.11-11.88 201.56-12.06L201.56-12.06L201.56-12.06Q201.00-12.24 200.32-12.24L200.32-12.24L200.32-12.24Q199.68-12.24 199.09-12.15L199.09-12.15L199.09-12.15Q198.50-12.06 197.99-11.92L197.99-11.92L197.99-11.92Q197.48-11.77 197.05-11.59L197.05-11.59L197.05-11.59Q196.62-11.40 196.31-11.20L196.31-11.20L195.48-12.96L195.48-12.96Q195.99-13.29 196.59-13.57L196.59-13.57L196.59-13.57Q197.19-13.85 197.85-14.05L197.85-14.05L197.85-14.05Q198.52-14.25 199.21-14.36L199.21-14.36L199.21-14.36Q199.90-14.48 200.57-14.48L200.57-14.48L200.57-14.48Q201.80-14.48 202.78-14.18L202.78-14.18L202.78-14.18Q203.77-13.89 204.45-13.28L204.45-13.28L204.45-13.28Q205.13-12.66 205.50-11.71L205.50-11.71L205.50-11.71Q205.87-10.76 205.87-9.43L205.87-9.43L205.86-2.35L207.43-2.35L207.43 0L203.31 0ZM199.87-1.74L199.87-1.74L199.87-1.74Q200.38-1.74 200.88-1.86L200.88-1.86L200.88-1.86Q201.39-1.98 201.84-2.19L201.84-2.19L201.84-2.19Q202.29-2.41 202.67-2.69L202.67-2.69L202.67-2.69Q203.05-2.97 203.31-3.27L203.31-3.27L203.33-6.47L200.38-6.47L200.38-6.47Q199.64-6.47 199.03-6.30L199.03-6.30L199.03-6.30Q198.42-6.14 197.98-5.82L197.98-5.82L197.98-5.82Q197.53-5.51 197.29-5.04L197.29-5.04L197.29-5.04Q197.04-4.58 197.04-3.98L197.04-3.98L197.04-3.98Q197.04-3.42 197.24-3.00L197.24-3.00L197.24-3.00Q197.45-2.58 197.83-2.30L197.83-2.30L197.83-2.30Q198.20-2.02 198.72-1.88L198.72-1.88L198.72-1.88Q199.24-1.74 199.87-1.74ZM214.40-18.73L214.40-14.16L217.72-14.16L217.72-12.10L214.38-12.10L214.33-3.92L214.33-3.92Q214.33-3.09 214.53-2.57L214.53-2.57L214.53-2.57Q214.72-2.05 215.14-1.85L215.14-1.85L215.14-1.85Q215.56-1.65 216.10-1.65L216.10-1.65L216.10-1.65Q216.67-1.65 217.11-1.76L217.11-1.76L217.11-1.76Q217.55-1.86 218.07-2.11L218.07-2.11L218.65-0.40L218.65-0.40Q218.00-0.05 217.27 0.14L217.27 0.14L217.27 0.14Q216.55 0.34 215.56 0.34L215.56 0.34L215.56 0.34Q214.63 0.34 213.94 0.12L213.94 0.12L213.94 0.12Q213.25-0.11 212.78-0.64L212.78-0.64L212.78-0.64Q212.31-1.18 212.08-2.07L212.08-2.07L212.08-2.07Q211.85-2.97 211.85-4.31L211.85-4.31L211.89-12.10L209.63-12.10L209.63-14.16L211.91-14.16L211.91-17.55L214.40-18.73ZM219.35 0L219.35 0L219.35 0Q219.35 0 219.35 0ZM235.02-10.36L235.02-10.36Q235.02-10.94 234.75-11.34L234.75-11.34L234.75-11.34Q234.49-11.74 234.06-12.00L234.06-12.00L234.06-12.00Q233.64-12.25 233.12-12.37L233.12-12.37L233.12-12.37Q232.60-12.48 232.11-12.48L232.11-12.48L232.11-12.48Q231.56-12.48 231.10-12.36L231.10-12.36L231.10-12.36Q230.64-12.24 230.32-12.00L230.32-12.00L230.32-12.00Q229.99-11.77 229.80-11.44L229.80-11.44L229.80-11.44Q229.62-11.10 229.62-10.69L229.62-10.69L229.62-10.69Q229.62-9.98 230.05-9.56L230.05-9.56L230.05-9.56Q230.48-9.15 231.49-8.79L231.49-8.79L234.21-7.83L234.21-7.83Q235.96-7.25 236.77-6.23L236.77-6.23L236.77-6.23Q237.58-5.22 237.58-3.81L237.58-3.81L237.58-3.81Q237.58-2.87 237.20-2.08L237.20-2.08L237.20-2.08Q236.82-1.30 236.13-0.75L236.13-0.75L236.13-0.75Q235.44-0.19 234.47 0.12L234.47 0.12L234.47 0.12Q233.50 0.42 232.31 0.42L232.31 0.42L232.31 0.42Q230.66 0.42 229.62-0.11L229.62-0.11L229.62-0.11Q228.58-0.64 228.02-1.52L228.02-1.52L226.60-1.52L226.60-3.87L229.43-3.87L229.43-3.87Q229.43-3.28 229.68-2.86L229.68-2.86L229.68-2.86Q229.93-2.45 230.35-2.19L230.35-2.19L230.35-2.19Q230.77-1.93 231.29-1.80L231.29-1.80L231.29-1.80Q231.82-1.68 232.37-1.68L232.37-1.68L232.37-1.68Q232.90-1.68 233.39-1.81L233.39-1.81L233.39-1.81Q233.88-1.94 234.26-2.19L234.26-2.19L234.26-2.19Q234.64-2.45 234.86-2.80L234.86-2.80L234.86-2.80Q235.07-3.16 235.07-3.61L235.07-3.61L235.07-3.61Q235.07-4.29 234.63-4.77L234.63-4.77L234.63-4.77Q234.19-5.25 233.12-5.63L233.12-5.63L230.41-6.64L230.41-6.64Q228.76-7.23 227.96-8.14L227.96-8.14L227.96-8.14Q227.16-9.05 227.16-10.42L227.16-10.42L227.16-10.42Q227.16-11.32 227.49-12.09L227.49-12.09L227.49-12.09Q227.83-12.85 228.46-13.41L228.46-13.41L228.46-13.41Q229.10-13.96 230.02-14.27L230.02-14.27L230.02-14.27Q230.93-14.59 232.11-14.59L232.11-14.59L232.11-14.59Q233.63-14.59 234.65-14.16L234.65-14.16L234.65-14.16Q235.68-13.74 236.50-12.71L236.50-12.71L237.82-12.71L237.82-10.36L235.02-10.36ZM240.23-7.08L240.23-7.08L240.23-7.08Q240.24-8.76 240.77-10.14L240.77-10.14L240.77-10.14Q241.29-11.53 242.24-12.52L242.24-12.52L242.24-12.52Q243.18-13.51 244.48-14.04L244.48-14.04L244.48-14.04Q245.78-14.57 247.34-14.57L247.34-14.57L247.34-14.57Q248.91-14.57 250.22-14.04L250.22-14.04L250.22-14.04Q251.52-13.51 252.45-12.53L252.45-12.53L252.45-12.53Q253.38-11.55 253.90-10.17L253.90-10.17L253.90-10.17Q254.42-8.79 254.42-7.11L254.42-7.11L254.42-7.11Q254.42-5.46 253.90-4.07L253.90-4.07L253.90-4.07Q253.38-2.68 252.45-1.68L252.45-1.68L252.45-1.68Q251.52-0.68 250.22-0.13L250.22-0.13L250.22-0.13Q248.91 0.42 247.34 0.42L247.34 0.42L247.34 0.42Q245.74 0.42 244.44-0.12L244.44-0.12L244.44-0.12Q243.14-0.67 242.21-1.66L242.21-1.66L242.21-1.66Q241.28-2.65 240.76-4.03L240.76-4.03L240.76-4.03Q240.24-5.41 240.23-7.08ZM242.92-7.08L242.92-7.08L242.92-7.08Q242.92-5.87 243.27-4.88L243.27-4.88L243.27-4.88Q243.62-3.90 244.23-3.21L244.23-3.21L244.23-3.21Q244.84-2.52 245.64-2.14L245.64-2.14L245.64-2.14Q246.44-1.76 247.34-1.76L247.34-1.76L247.34-1.76Q248.28-1.76 249.09-2.13L249.09-2.13L249.09-2.13Q249.91-2.50 250.51-3.19L250.51-3.19L250.51-3.19Q251.11-3.88 251.45-4.87L251.45-4.87L251.45-4.87Q251.79-5.85 251.79-7.08L251.79-7.08L251.79-7.08Q251.79-8.37 251.45-9.37L251.45-9.37L251.45-9.37Q251.11-10.36 250.52-11.03L250.52-11.03L250.52-11.03Q249.92-11.70 249.10-12.04L249.10-12.04L249.10-12.04Q248.28-12.39 247.34-12.39L247.34-12.39L247.34-12.39Q246.44-12.39 245.64-12.04L245.64-12.04L245.64-12.04Q244.84-11.70 244.23-11.03L244.23-11.03L244.23-11.03Q243.62-10.36 243.27-9.37L243.27-9.37L243.27-9.37Q242.92-8.37 242.92-7.08ZM267.35-14.25L267.35-11.17L264.76-11.17L264.76-12.04L264.76-12.04Q264.30-12.04 263.83-11.87L263.83-11.87L263.83-11.87Q263.36-11.70 262.95-11.35L262.95-11.35L262.95-11.35Q262.54-11.01 262.23-10.47L262.23-10.47L262.23-10.47Q261.93-9.93 261.79-9.19L261.79-9.19L261.79-2.35L264.20-2.35L264.20 0L257.17 0L257.17-2.35L259.12-2.35L259.14-11.81L257.17-11.81L257.17-14.16L261.69-14.16L261.69-12.21L261.69-12.21Q261.94-12.65 262.25-13.02L262.25-13.02L262.25-13.02Q262.55-13.40 262.93-13.68L262.93-13.68L262.93-13.68Q263.31-13.96 263.76-14.12L263.76-14.12L263.76-14.12Q264.22-14.27 264.76-14.27L264.76-14.27L264.76-14.27Q265.47-14.27 266.10-14.27L266.10-14.27L266.10-14.27Q266.72-14.27 267.35-14.25L267.35-14.25ZM269.71-18.92L269.71-21.27L274.30-21.27L274.30-12.99L274.30-12.99Q275.20-13.69 276.27-14.10L276.27-14.10L276.27-14.10Q277.33-14.51 278.47-14.51L278.47-14.51L278.47-14.51Q279.86-14.51 281.03-13.99L281.03-13.99L281.03-13.99Q282.19-13.47 283.03-12.52L283.03-12.52L283.03-12.52Q283.87-11.58 284.33-10.26L284.33-10.26L284.33-10.26Q284.80-8.94 284.80-7.34L284.80-7.34L284.80-7.34Q284.80-5.63 284.28-4.25L284.28-4.25L284.28-4.25Q283.76-2.86 282.84-1.86L282.84-1.86L282.84-1.86Q281.91-0.86 280.64-0.32L280.64-0.32L280.64-0.32Q279.37 0.22 277.85 0.22L277.85 0.22L277.85 0.22Q276.80 0.22 275.88-0.09L275.88-0.09L275.88-0.09Q274.96-0.40 274.30-0.89L274.30-0.89L274.30 0L271.76 0L271.76-18.92L269.71-18.92ZM277.80-12.26L277.80-12.26L277.80-12.26Q276.80-12.26 275.88-11.85L275.88-11.85L275.88-11.85Q274.97-11.44 274.30-10.75L274.30-10.75L274.30-3.13L274.30-3.13Q274.74-2.68 275.58-2.33L275.58-2.33L275.58-2.33Q276.43-1.98 277.72-1.98L277.72-1.98L277.72-1.98Q278.59-1.98 279.40-2.31L279.40-2.31L279.40-2.31Q280.21-2.64 280.82-3.30L280.82-3.30L280.82-3.30Q281.44-3.96 281.80-4.95L281.80-4.95L281.80-4.95Q282.17-5.93 282.17-7.25L282.17-7.25L282.17-7.25Q282.17-8.45 281.83-9.38L281.83-9.38L281.83-9.38Q281.48-10.31 280.88-10.95L280.88-10.95L280.88-10.95Q280.29-11.59 279.49-11.93L279.49-11.93L279.49-11.93Q278.70-12.26 277.80-12.26ZM287.23-7.08L287.23-7.08L287.23-7.08Q287.25-8.76 287.77-10.14L287.77-10.14L287.77-10.14Q288.30-11.53 289.24-12.52L289.24-12.52L289.24-12.52Q290.19-13.51 291.48-14.04L291.48-14.04L291.48-14.04Q292.78-14.57 294.34-14.57L294.34-14.57L294.34-14.57Q295.91-14.57 297.22-14.04L297.22-14.04L297.22-14.04Q298.53-13.51 299.46-12.53L299.46-12.53L299.46-12.53Q300.38-11.55 300.90-10.17L300.90-10.17L300.90-10.17Q301.42-8.79 301.42-7.11L301.42-7.11L301.42-7.11Q301.42-5.46 300.90-4.07L300.90-4.07L300.90-4.07Q300.38-2.68 299.46-1.68L299.46-1.68L299.46-1.68Q298.53-0.68 297.22-0.13L297.22-0.13L297.22-0.13Q295.91 0.42 294.34 0.42L294.34 0.42L294.34 0.42Q292.74 0.42 291.44-0.12L291.44-0.12L291.44-0.12Q290.14-0.67 289.21-1.66L289.21-1.66L289.21-1.66Q288.29-2.65 287.77-4.03L287.77-4.03L287.77-4.03Q287.25-5.41 287.23-7.08ZM289.93-7.08L289.93-7.08L289.93-7.08Q289.93-5.87 290.27-4.88L290.27-4.88L290.27-4.88Q290.62-3.90 291.23-3.21L291.23-3.21L291.23-3.21Q291.84-2.52 292.64-2.14L292.64-2.14L292.64-2.14Q293.44-1.76 294.34-1.76L294.34-1.76L294.34-1.76Q295.29-1.76 296.10-2.13L296.10-2.13L296.10-2.13Q296.91-2.50 297.51-3.19L297.51-3.19L297.51-3.19Q298.12-3.88 298.46-4.87L298.46-4.87L298.46-4.87Q298.80-5.85 298.80-7.08L298.80-7.08L298.80-7.08Q298.80-8.37 298.46-9.37L298.46-9.37L298.46-9.37Q298.12-10.36 297.52-11.03L297.52-11.03L297.52-11.03Q296.93-11.70 296.11-12.04L296.11-12.04L296.11-12.04Q295.29-12.39 294.34-12.39L294.34-12.39L294.34-12.39Q293.44-12.39 292.64-12.04L292.64-12.04L292.64-12.04Q291.84-11.70 291.23-11.03L291.23-11.03L291.23-11.03Q290.62-10.36 290.27-9.37L290.27-9.37L290.27-9.37Q289.93-8.37 289.93-7.08ZM313.50 0L313.50-2.35L315.49-2.35L315.49-8.82L315.49-8.82Q315.49-10.45 314.67-11.29L314.67-11.29L314.67-11.29Q313.84-12.13 312.29-12.13L312.29-12.13L312.29-12.13Q311.40-12.13 310.50-11.70L310.50-11.70L310.50-11.70Q309.60-11.28 308.79-10.65L308.79-10.65L308.79-2.35L310.79-2.35L310.79 0L304.17 0L304.17-2.35L306.14-2.35L306.14-11.81L304.17-11.81L304.17-14.16L308.68-14.16L308.68-12.50L308.71-12.50L308.71-12.50Q309.16-12.89 309.67-13.25L309.67-13.25L309.67-13.25Q310.19-13.60 310.75-13.86L310.75-13.86L310.75-13.86Q311.31-14.12 311.92-14.27L311.92-14.27L311.92-14.27Q312.53-14.42 313.20-14.42L313.20-14.42L313.20-14.42Q314.33-14.42 315.25-14.11L315.25-14.11L315.25-14.11Q316.16-13.79 316.80-13.15L316.80-13.15L316.80-13.15Q317.45-12.51 317.80-11.50L317.80-11.50L317.80-11.50Q318.14-10.50 318.14-9.13L318.14-9.13L318.14-2.35L320.11-2.35L320.11 0L313.50 0ZM332.17 0L332.17-2.35L334.17-2.35L334.17-8.82L334.17-8.82Q334.17-10.45 333.34-11.29L333.34-11.29L333.34-11.29Q332.51-12.13 330.97-12.13L330.97-12.13L330.97-12.13Q330.08-12.13 329.18-11.70L329.18-11.70L329.18-11.70Q328.28-11.28 327.47-10.65L327.47-10.65L327.47-2.35L329.46-2.35L329.46 0L322.85 0L322.85-2.35L324.82-2.35L324.82-11.81L322.85-11.81L322.85-14.16L327.36-14.16L327.36-12.50L327.39-12.50L327.39-12.50Q327.84-12.89 328.35-13.25L328.35-13.25L328.35-13.25Q328.86-13.60 329.42-13.86L329.42-13.86L329.42-13.86Q329.98-14.12 330.59-14.27L330.59-14.27L330.59-14.27Q331.20-14.42 331.87-14.42L331.87-14.42L331.87-14.42Q333.01-14.42 333.92-14.11L333.92-14.11L333.92-14.11Q334.84-13.79 335.48-13.15L335.48-13.15L335.48-13.15Q336.12-12.51 336.47-11.50L336.47-11.50L336.47-11.50Q336.82-10.50 336.82-9.13L336.82-9.13L336.82-2.35L338.79-2.35L338.79 0L332.17 0ZM354.13-6.75L343.93-6.75L343.93-6.75Q343.93-6.15 344.02-5.65L344.02-5.65L344.02-5.65Q344.11-5.15 344.27-4.70L344.27-4.70L344.27-4.70Q344.78-3.34 345.89-2.65L345.89-2.65L345.89-2.65Q347.01-1.96 348.41-1.96L348.41-1.96L348.41-1.96Q349.52-1.96 350.57-2.26L350.57-2.26L350.57-2.26Q351.61-2.57 352.76-3.23L352.76-3.23L353.79-1.49L353.79-1.49Q352.39-0.53 350.98-0.07L350.98-0.07L350.98-0.07Q349.58 0.40 348.06 0.40L348.06 0.40L348.06 0.40Q346.62 0.40 345.40-0.08L345.40-0.08L345.40-0.08Q344.18-0.56 343.29-1.50L343.29-1.50L343.29-1.50Q342.41-2.45 341.91-3.86L341.91-3.86L341.91-3.86Q341.41-5.26 341.41-7.14L341.41-7.14L341.41-7.14Q341.41-8.65 341.84-10.00L341.84-10.00L341.84-10.00Q342.26-11.35 343.10-12.35L343.10-12.35L343.10-12.35Q343.94-13.36 345.19-13.95L345.19-13.95L345.19-13.95Q346.43-14.53 348.09-14.53L348.09-14.53L348.09-14.53Q349.69-14.53 350.76-14.05L350.76-14.05L350.76-14.05Q351.83-13.56 352.51-12.76L352.51-12.76L352.51-12.76Q353.19-11.96 353.53-10.94L353.53-10.94L353.53-10.94Q353.88-9.91 354.02-8.85L354.02-8.85L354.02-8.85Q354.09-8.33 354.11-7.79L354.11-7.79L354.11-7.79Q354.13-7.26 354.13-6.75L354.13-6.75ZM347.91-12.40L347.91-12.40L347.91-12.40Q347.02-12.40 346.36-12.15L346.36-12.15L346.36-12.15Q345.69-11.89 345.23-11.42L345.23-11.42L345.23-11.42Q344.76-10.95 344.48-10.27L344.48-10.27L344.48-10.27Q344.20-9.58 344.07-8.74L344.07-8.74L351.41-8.74L351.41-8.74Q351.35-9.53 351.16-10.20L351.16-10.20L351.16-10.20Q350.96-10.87 350.55-11.36L350.55-11.36L350.55-11.36Q350.14-11.85 349.49-12.13L349.49-12.13L349.49-12.13Q348.85-12.40 347.91-12.40ZM365.04-6.78L357.51-6.78L357.51-9.13L365.04-9.13L365.04-6.78ZM376.20-11.81L376.20-14.16L380.76-14.16L380.76-2.35L382.33-2.35L382.33 0L378.21 0L378.21-1.31L378.21-1.31Q377.25-0.57 376.12-0.16L376.12-0.16L376.12-0.16Q374.99 0.25 373.71 0.25L373.71 0.25L373.71 0.25Q372.64 0.25 371.77-0.06L371.77-0.06L371.77-0.06Q370.90-0.37 370.30-1.02L370.30-1.02L370.30-1.02Q369.69-1.67 369.36-2.67L369.36-2.67L369.36-2.67Q369.03-3.66 369.03-5.04L369.03-5.04L369.03-11.81L367.12-11.81L367.12-14.16L371.68-14.16L371.68-5.35L371.68-5.35Q371.68-3.72 372.44-2.88L372.44-2.88L372.44-2.88Q373.19-2.05 374.60-2.05L374.60-2.05L374.60-2.05Q375.43-2.05 376.35-2.35L376.35-2.35L376.35-2.35Q377.28-2.65 378.10-3.19L378.10-3.19L378.10-11.81L376.20-11.81ZM395.45 0L395.45-2.35L397.44-2.35L397.44-8.82L397.44-8.82Q397.44-10.45 396.61-11.29L396.61-11.29L396.61-11.29Q395.79-12.13 394.24-12.13L394.24-12.13L394.24-12.13Q393.35-12.13 392.45-11.70L392.45-11.70L392.45-11.70Q391.55-11.28 390.74-10.65L390.74-10.65L390.74-2.35L392.74-2.35L392.74 0L386.12 0L386.12-2.35L388.09-2.35L388.09-11.81L386.12-11.81L386.12-14.16L390.63-14.16L390.63-12.50L390.66-12.50L390.66-12.50Q391.11-12.89 391.62-13.25L391.62-13.25L391.62-13.25Q392.14-13.60 392.70-13.86L392.70-13.86L392.70-13.86Q393.26-14.12 393.87-14.27L393.87-14.27L393.87-14.27Q394.47-14.42 395.14-14.42L395.14-14.42L395.14-14.42Q396.28-14.42 397.20-14.11L397.20-14.11L397.20-14.11Q398.11-13.79 398.75-13.15L398.75-13.15L398.75-13.15Q399.40-12.51 399.75-11.50L399.75-11.50L399.75-11.50Q400.09-10.50 400.09-9.13L400.09-9.13L400.09-2.35L402.06-2.35L402.06 0L395.45 0ZM404.69-11.81L404.69-14.16L409.31-14.16L409.31-2.35L411.44-2.35L411.44 0L404.71 0L404.71-2.35L406.74-2.35L406.74-11.81L404.69-11.81ZM406.26-19.18L406.26-19.18L406.26-19.18Q406.26-19.54 406.40-19.86L406.40-19.86L406.40-19.86Q406.55-20.18 406.79-20.42L406.79-20.42L406.79-20.42Q407.03-20.66 407.35-20.80L407.35-20.80L407.35-20.80Q407.68-20.95 408.05-20.95L408.05-20.95L408.05-20.95Q408.41-20.95 408.73-20.80L408.73-20.80L408.73-20.80Q409.05-20.66 409.29-20.42L409.29-20.42L409.29-20.42Q409.53-20.18 409.67-19.86L409.67-19.86L409.67-19.86Q409.81-19.54 409.81-19.18L409.81-19.18L409.81-19.18Q409.81-18.81 409.67-18.48L409.67-18.48L409.67-18.48Q409.53-18.16 409.29-17.90L409.29-17.90L409.29-17.90Q409.05-17.65 408.73-17.51L408.73-17.51L408.73-17.51Q408.41-17.36 408.05-17.36L408.05-17.36L408.05-17.36Q407.68-17.36 407.35-17.51L407.35-17.51L407.35-17.51Q407.03-17.65 406.79-17.90L406.79-17.90L406.79-17.90Q406.55-18.16 406.40-18.48L406.40-18.48L406.40-18.48Q406.26-18.81 406.26-19.18ZM412.69-11.81L412.69-14.16L417.58-14.16L417.58-11.81L416.25-11.81L419.75-2.05L423.17-11.81L422.31-11.81L422.31-14.16L426.79-14.16L426.79-11.81L425.58-11.81L420.94 0.22L418.43 0.22L413.81-11.81L412.69-11.81ZM441.42-6.75L431.22-6.75L431.22-6.75Q431.22-6.15 431.31-5.65L431.31-5.65L431.31-5.65Q431.40-5.15 431.57-4.70L431.57-4.70L431.57-4.70Q432.07-3.34 433.19-2.65L433.19-2.65L433.19-2.65Q434.30-1.96 435.71-1.96L435.71-1.96L435.71-1.96Q436.82-1.96 437.86-2.26L437.86-2.26L437.86-2.26Q438.91-2.57 440.06-3.23L440.06-3.23L441.08-1.49L441.08-1.49Q439.69-0.53 438.28-0.07L438.28-0.07L438.28-0.07Q436.87 0.40 435.35 0.40L435.35 0.40L435.35 0.40Q433.92 0.40 432.69-0.08L432.69-0.08L432.69-0.08Q431.47-0.56 430.59-1.50L430.59-1.50L430.59-1.50Q429.71-2.45 429.21-3.86L429.21-3.86L429.21-3.86Q428.71-5.26 428.71-7.14L428.71-7.14L428.71-7.14Q428.71-8.65 429.13-10.00L429.13-10.00L429.13-10.00Q429.56-11.35 430.40-12.35L430.40-12.35L430.40-12.35Q431.24-13.36 432.48-13.95L432.48-13.95L432.48-13.95Q433.73-14.53 435.38-14.53L435.38-14.53L435.38-14.53Q436.98-14.53 438.05-14.05L438.05-14.05L438.05-14.05Q439.13-13.56 439.80-12.76L439.80-12.76L439.80-12.76Q440.48-11.96 440.83-10.94L440.83-10.94L440.83-10.94Q441.18-9.91 441.31-8.85L441.31-8.85L441.31-8.85Q441.38-8.33 441.40-7.79L441.40-7.79L441.40-7.79Q441.42-7.26 441.42-6.75L441.42-6.75ZM435.20-12.40L435.20-12.40L435.20-12.40Q434.31-12.40 433.65-12.15L433.65-12.15L433.65-12.15Q432.99-11.89 432.52-11.42L432.52-11.42L432.52-11.42Q432.06-10.95 431.78-10.27L431.78-10.27L431.78-10.27Q431.50-9.58 431.36-8.74L431.36-8.74L438.70-8.74L438.70-8.74Q438.65-9.53 438.45-10.20L438.45-10.20L438.45-10.20Q438.25-10.87 437.84-11.36L437.84-11.36L437.84-11.36Q437.43-11.85 436.79-12.13L436.79-12.13L436.79-12.13Q436.15-12.40 435.20-12.40ZM455.07-14.25L455.07-11.17L452.47-11.17L452.47-12.04L452.47-12.04Q452.02-12.04 451.55-11.87L451.55-11.87L451.55-11.87Q451.08-11.70 450.67-11.35L450.67-11.35L450.67-11.35Q450.26-11.01 449.95-10.47L449.95-10.47L449.95-10.47Q449.64-9.93 449.50-9.19L449.50-9.19L449.50-2.35L451.91-2.35L451.91 0L444.88 0L444.88-2.35L446.84-2.35L446.85-11.81L444.88-11.81L444.88-14.16L449.41-14.16L449.41-12.21L449.41-12.21Q449.65-12.65 449.96-13.02L449.96-13.02L449.96-13.02Q450.27-13.40 450.65-13.68L450.65-13.68L450.65-13.68Q451.02-13.96 451.48-14.12L451.48-14.12L451.48-14.12Q451.94-14.27 452.47-14.27L452.47-14.27L452.47-14.27Q453.18-14.27 453.81-14.27L453.81-14.27L453.81-14.27Q454.44-14.27 455.07-14.25L455.07-14.25ZM466.18-10.36L466.18-10.36Q466.18-10.94 465.92-11.34L465.92-11.34L465.92-11.34Q465.65-11.74 465.23-12.00L465.23-12.00L465.23-12.00Q464.80-12.25 464.28-12.37L464.28-12.37L464.28-12.37Q463.76-12.48 463.27-12.48L463.27-12.48L463.27-12.48Q462.72-12.48 462.27-12.36L462.27-12.36L462.27-12.36Q461.81-12.24 461.48-12.00L461.48-12.00L461.48-12.00Q461.15-11.77 460.97-11.44L460.97-11.44L460.97-11.44Q460.78-11.10 460.78-10.69L460.78-10.69L460.78-10.69Q460.78-9.98 461.21-9.56L461.21-9.56L461.21-9.56Q461.64-9.15 462.66-8.79L462.66-8.79L465.38-7.83L465.38-7.83Q467.13-7.25 467.93-6.23L467.93-6.23L467.93-6.23Q468.74-5.22 468.74-3.81L468.74-3.81L468.74-3.81Q468.74-2.87 468.36-2.08L468.36-2.08L468.36-2.08Q467.99-1.30 467.30-0.75L467.30-0.75L467.30-0.75Q466.61-0.19 465.64 0.12L465.64 0.12L465.64 0.12Q464.67 0.42 463.48 0.42L463.48 0.42L463.48 0.42Q461.82 0.42 460.78-0.11L460.78-0.11L460.78-0.11Q459.74-0.64 459.18-1.52L459.18-1.52L457.76-1.52L457.76-3.87L460.59-3.87L460.59-3.87Q460.59-3.28 460.84-2.86L460.84-2.86L460.84-2.86Q461.10-2.45 461.51-2.19L461.51-2.19L461.51-2.19Q461.93-1.93 462.46-1.80L462.46-1.80L462.46-1.80Q462.98-1.68 463.53-1.68L463.53-1.68L463.53-1.68Q464.06-1.68 464.56-1.81L464.56-1.81L464.56-1.81Q465.05-1.94 465.42-2.19L465.42-2.19L465.42-2.19Q465.80-2.45 466.02-2.80L466.02-2.80L466.02-2.80Q466.24-3.16 466.24-3.61L466.24-3.61L466.24-3.61Q466.24-4.29 465.79-4.77L465.79-4.77L465.79-4.77Q465.35-5.25 464.28-5.63L464.28-5.63L461.58-6.64L461.58-6.64Q459.92-7.23 459.12-8.14L459.12-8.14L459.12-8.14Q458.32-9.05 458.32-10.42L458.32-10.42L458.32-10.42Q458.32-11.32 458.66-12.09L458.66-12.09L458.66-12.09Q458.99-12.85 459.63-13.41L459.63-13.41L459.63-13.41Q460.26-13.96 461.18-14.27L461.18-14.27L461.18-14.27Q462.10-14.59 463.27-14.59L463.27-14.59L463.27-14.59Q464.79-14.59 465.81-14.16L465.81-14.16L465.81-14.16Q466.84-13.74 467.66-12.71L467.66-12.71L468.99-12.71L468.99-10.36L466.18-10.36ZM471.47-11.81L471.47-14.16L476.10-14.16L476.10-2.35L478.23-2.35L478.23 0L471.50 0L471.50-2.35L473.53-2.35L473.53-11.81L471.47-11.81ZM473.05-19.18L473.05-19.18L473.05-19.18Q473.05-19.54 473.19-19.86L473.19-19.86L473.19-19.86Q473.33-20.18 473.57-20.42L473.57-20.42L473.57-20.42Q473.81-20.66 474.14-20.80L474.14-20.80L474.14-20.80Q474.47-20.95 474.84-20.95L474.84-20.95L474.84-20.95Q475.19-20.95 475.51-20.80L475.51-20.80L475.51-20.80Q475.84-20.66 476.08-20.42L476.08-20.42L476.08-20.42Q476.31-20.18 476.46-19.86L476.46-19.86L476.46-19.86Q476.60-19.54 476.60-19.18L476.60-19.18L476.60-19.18Q476.60-18.81 476.46-18.48L476.46-18.48L476.46-18.48Q476.31-18.16 476.08-17.90L476.08-17.90L476.08-17.90Q475.84-17.65 475.51-17.51L475.51-17.51L475.51-17.51Q475.19-17.36 474.84-17.36L474.84-17.36L474.84-17.36Q474.47-17.36 474.14-17.51L474.14-17.51L474.14-17.51Q473.81-17.65 473.57-17.90L473.57-17.90L473.57-17.90Q473.33-18.16 473.19-18.48L473.19-18.48L473.19-18.48Q473.05-18.81 473.05-19.18ZM484.67-18.73L484.67-14.16L487.99-14.16L487.99-12.10L484.64-12.10L484.60-3.92L484.60-3.92Q484.60-3.09 484.79-2.57L484.79-2.57L484.79-2.57Q484.98-2.05 485.41-1.85L485.41-1.85L485.41-1.85Q485.83-1.65 486.36-1.65L486.36-1.65L486.36-1.65Q486.94-1.65 487.38-1.76L487.38-1.76L487.38-1.76Q487.81-1.86 488.33-2.11L488.33-2.11L488.92-0.40L488.92-0.40Q488.26-0.05 487.54 0.14L487.54 0.14L487.54 0.14Q486.81 0.34 485.83 0.34L485.83 0.34L485.83 0.34Q484.90 0.34 484.21 0.12L484.21 0.12L484.21 0.12Q483.52-0.11 483.05-0.64L483.05-0.64L483.05-0.64Q482.58-1.18 482.34-2.07L482.34-2.07L482.34-2.07Q482.11-2.97 482.11-4.31L482.11-4.31L482.15-12.10L479.90-12.10L479.90-14.16L482.18-14.16L482.18-17.55L484.67-18.73ZM503.59-6.75L493.39-6.75L493.39-6.75Q493.39-6.15 493.48-5.65L493.48-5.65L493.48-5.65Q493.57-5.15 493.73-4.70L493.73-4.70L493.73-4.70Q494.24-3.34 495.35-2.65L495.35-2.65L495.35-2.65Q496.47-1.96 497.88-1.96L497.88-1.96L497.88-1.96Q498.98-1.96 500.03-2.26L500.03-2.26L500.03-2.26Q501.07-2.57 502.22-3.23L502.22-3.23L503.25-1.49L503.25-1.49Q501.85-0.53 500.45-0.07L500.45-0.07L500.45-0.07Q499.04 0.40 497.52 0.40L497.52 0.40L497.52 0.40Q496.08 0.40 494.86-0.08L494.86-0.08L494.86-0.08Q493.64-0.56 492.75-1.50L492.75-1.50L492.75-1.50Q491.87-2.45 491.37-3.86L491.37-3.86L491.37-3.86Q490.88-5.26 490.88-7.14L490.88-7.14L490.88-7.14Q490.88-8.65 491.30-10.00L491.30-10.00L491.30-10.00Q491.72-11.35 492.56-12.35L492.56-12.35L492.56-12.35Q493.40-13.36 494.65-13.95L494.65-13.95L494.65-13.95Q495.89-14.53 497.55-14.53L497.55-14.53L497.55-14.53Q499.15-14.53 500.22-14.05L500.22-14.05L500.22-14.05Q501.29-13.56 501.97-12.76L501.97-12.76L501.97-12.76Q502.65-11.96 503.00-10.94L503.00-10.94L503.00-10.94Q503.34-9.91 503.48-8.85L503.48-8.85L503.48-8.85Q503.55-8.33 503.57-7.79L503.57-7.79L503.57-7.79Q503.59-7.26 503.59-6.75L503.59-6.75ZM497.37-12.40L497.37-12.40L497.37-12.40Q496.48-12.40 495.82-12.15L495.82-12.15L495.82-12.15Q495.15-11.89 494.69-11.42L494.69-11.42L494.69-11.42Q494.22-10.95 493.94-10.27L493.94-10.27L493.94-10.27Q493.66-9.58 493.53-8.74L493.53-8.74L500.87-8.74L500.87-8.74Q500.81-9.53 500.62-10.20L500.62-10.20L500.62-10.20Q500.42-10.87 500.01-11.36L500.01-11.36L500.01-11.36Q499.60-11.85 498.96-12.13L498.96-12.13L498.96-12.13Q498.31-12.40 497.37-12.40ZM506.99-1.65L506.99-1.65L506.99-1.65Q506.99-2.01 507.14-2.33L507.14-2.33L507.14-2.33Q507.28-2.65 507.53-2.89L507.53-2.89L507.53-2.89Q507.77-3.13 508.09-3.27L508.09-3.27L508.09-3.27Q508.42-3.42 508.79-3.42L508.79-3.42L508.79-3.42Q509.14-3.42 509.46-3.27L509.46-3.27L509.46-3.27Q509.78-3.13 510.02-2.89L510.02-2.89L510.02-2.89Q510.26-2.65 510.41-2.33L510.41-2.33L510.41-2.33Q510.55-2.01 510.55-1.65L510.55-1.65L510.55-1.65Q510.55-1.29 510.41-0.96L510.41-0.96L510.41-0.96Q510.26-0.63 510.02-0.38L510.02-0.38L510.02-0.38Q509.78-0.12 509.46 0.02L509.46 0.02L509.46 0.02Q509.14 0.16 508.79 0.16L508.79 0.16L508.79 0.16Q508.42 0.16 508.09 0.02L508.09 0.02L508.09 0.02Q507.77-0.12 507.53-0.38L507.53-0.38L507.53-0.38Q507.28-0.63 507.14-0.96L507.14-0.96L507.14-0.96Q506.99-1.29 506.99-1.65ZM517.96-16.46L517.96-14.16L521.24-14.16L521.24-12.10L517.96-12.10L517.96-2.35L520.17-2.35L520.17 0L513.28 0L513.28-2.35L515.42-2.35L515.42-12.10L513.08-12.10L513.08-14.16L515.42-14.16L515.42-16.38L515.42-16.38Q515.44-17.61 515.77-18.53L515.77-18.53L515.77-18.53Q516.10-19.44 516.70-20.06L516.70-20.06L516.70-20.06Q517.30-20.67 518.15-20.97L518.15-20.97L518.15-20.97Q519.00-21.27 520.04-21.27L520.04-21.27L520.04-21.27Q520.76-21.27 521.34-21.21L521.34-21.21L521.34-21.21Q521.91-21.14 522.36-21.02L522.36-21.02L522.36-21.02Q522.81-20.90 523.16-20.77L523.16-20.77L523.16-20.77Q523.51-20.63 523.78-20.49L523.78-20.49L523.00-18.68L523.00-18.68Q522.57-18.91 521.86-19.07L521.86-19.07L521.86-19.07Q521.16-19.24 520.39-19.24L520.39-19.24L520.39-19.24Q519.26-19.24 518.61-18.53L518.61-18.53L518.61-18.53Q517.96-17.83 517.96-16.46L517.96-16.46ZM533.65-14.25L533.65-11.17L531.06-11.17L531.06-12.04L531.06-12.04Q530.61-12.04 530.13-11.87L530.13-11.87L530.13-11.87Q529.66-11.70 529.25-11.35L529.25-11.35L529.25-11.35Q528.84-11.01 528.53-10.47L528.53-10.47L528.53-10.47Q528.23-9.93 528.09-9.19L528.09-9.19L528.09-2.35L530.50-2.35L530.50 0L523.47 0L523.47-2.35L525.42-2.35L525.44-11.81L523.47-11.81L523.47-14.16L527.99-14.16L527.99-12.21L527.99-12.21Q528.24-12.65 528.55-13.02L528.55-13.02L528.55-13.02Q528.86-13.40 529.23-13.68L529.23-13.68L529.23-13.68Q529.61-13.96 530.07-14.12L530.07-14.12L530.07-14.12Q530.52-14.27 531.06-14.27L531.06-14.27L531.06-14.27Q531.77-14.27 532.40-14.27L532.40-14.27L532.40-14.27Q533.03-14.27 533.65-14.25L533.65-14.25Z" fill="#052b4a"></path></g></g><style>text {
  font-size: 64px;
  font-family: Arial Black;
  dominant-baseline: central;
  text-anchor: middle;
}</style></svg>